#VRML V2.0 utf8
# 3D model generated by easyeda2kicad.py (https://github.com/uPesy/easyeda2kicad.py)

Shape{
    appearance Appearance {
        material  Material 	{
            diffuseColor 0.25098039215686274 0.25098039215686274 0.25098039215686274
            specularColor 0.12549019607843137 0.12549019607843137 0.12549019607843137
            ambientIntensity 0.251
            transparency 0.0
            shininess 0.5
        }
    }
    geometry IndexedFaceSet {
        ccw TRUE
        solid FALSE
        coord DEF co Coordinate {
            point [
                0.4655 -0.2687 0.3858, 0.4655 0.2687 0.3858, -0.3001 -0.2687 0.3858, -0.3001 0.2687 0.3858, 0.433 -0.1772 0.0039, 0.5066 -0.1772 0.0039, 0.5066 -0.2902 0.0039, 0.0473 -0.0336 0.0039, 0.0505 -0.0341 0.0039, -0.0344 -0.3098 0.0039, 0.0526 -0.0341 0.0039, 0.0572 -0.0336 0.0039, 0.487 -0.3098 0.0039, 0.5051 -0.2977 0.0039, 0.492 -0.3091 0.0039, 0.4945 -0.3083 0.0039, 0.4968 -0.3072 0.0039, 0.504 -0.3 0.0039, 0.4989 -0.3058 0.0039, 0.5025 -0.3022 0.0039, 0.5008 -0.3041 0.0039, -0.0344 0.3098 0.0039, -0.0267 -0.0245 0.0039, -0.0344 -0.0336 0.0039, -0.0267 -0.0331 0.0039, 0.0156 -0.0331 0.0039, 0.0309 -0.0291 0.0039, 0.0309 -0.0204 0.0039, 0.0156 0.0456 0.0039, 0.0393 -0.0325 0.0039, 0.5066 0.2902 0.0039, 0.5066 0.1771 0.0039, 0.487 0.3098 0.0039, 0.433 0.1771 0.0039, 0.005 0.037 0.0039, 0.005 0.011 0.0039, -0.0248 0.037 0.0039, -0.0228 0.011 0.0039, 0.005 0.0024 0.0039, 0.005 -0.0245 0.0039, -0.0228 0.0024 0.0039, 0.504 0.3 0.0039, 0.5051 0.2977 0.0039, 0.4968 0.3072 0.0039, 0.4945 0.3083 0.0039, 0.492 0.3091 0.0039, 0.5059 0.2952 0.0039, 0.1366 -0.0331 0.0039, 0.0962 -0.0331 0.0039, 0.0623 -0.0331 0.0039, 0.0699 -0.0305 0.0039, -0.0248 0.0456 0.0039, 0.0571 0.037 0.0039, 0.063 0.0349 0.0039, 0.0323 -0.0212 0.0039, 0.0685 0.0313 0.0039, 0.0732 0.026 0.0039, 0.079 0.0054 0.0039, 0.0782 -0.0031 0.0039, 0.076 -0.0099 0.0039, 0.0585 -0.0246 0.0039, 0.0511 -0.0255 0.0039, 0.0642 -0.0225 0.0039, 0.0691 -0.0193 0.0039, 0.0728 -0.0154 0.0039, 0.0407 -0.0243 0.0039, 0.0854 0.0249 0.0039, 0.0807 0.0322 0.0039, 0.126 0.0456 0.0039, 0.0765 0.0199 0.0039, 0.0786 0.0115 0.0039, 0.5025 0.3021 0.0039, 0.4989 0.3057 0.0039, 0.5008 0.304 0.0039, 0.0736 0.0391 0.0039, 0.1366 0.0456 0.0039, 0.433 -0.0336 0.0039, 0.5059 -0.2953 0.0039, 0.0763 -0.0264 0.0039, 0.0822 -0.0202 0.0039, 0.0962 -0.0245 0.0039, 0.0864 -0.0127 0.0039, 0.126 -0.0245 0.0039, 0.0888 -0.0044 0.0039, 0.0895 0.0047 0.0039, 0.0884 0.0159 0.0039, 0.0662 0.0434 0.0039, 0.0574 0.0459 0.0039, 0.0495 0.0466 0.0039, 0.04 0.0459 0.0039, 0.0309 0.0434 0.0039, 0.0309 0.0329 0.0039, 0.0398 0.0367 0.0039, 0.0494 0.0379 0.0039, -0.1822 -0.0331 0.0039, -0.1707 -0.0331 0.0039, -0.1112 -0.0331 0.0039, -0.1015 -0.0116 0.0039, -0.097 -0.0186 0.0039, -0.4331 0.1771 0.0039, -0.5067 0.1771 0.0039, -0.5067 0.2902 0.0039, -0.4871 0.3098 0.0039, -0.0905 -0.0248 0.0039, -0.0823 -0.0296 0.0039, -0.0732 -0.0323 0.0039, -0.1409 0.0456 0.0039, -0.1515 0.0456 0.0039, -0.4331 -0.0336 0.0039, -0.0635 -0.0331 0.0039, -0.042 -0.0331 0.0039, -0.042 0.0456 0.0039, -0.0643 0.0456 0.0039, -0.0935 0.0353 0.0039, -0.0991 0.0292 0.0039, -0.1027 0.0224 0.0039, -0.1227 -0.0331 0.0039, -0.1302 -0.0111 0.0039, -0.1627 -0.0111 0.0039, -0.0756 0.0444 0.0039, -0.0849 0.0411 0.0039, -0.0934 0.0354 0.0039, -0.4969 0.3072 0.0039, -0.4946 0.3083 0.0039, -0.5041 0.3 0.0039, -0.5052 0.2977 0.0039, -0.506 0.2952 0.0039, -0.4922 0.3091 0.0039, -0.1048 0.0146 0.0039, -0.1054 0.0072 0.0039, -0.1043 -0.0033 0.0039, -0.4991 0.3057 0.0039, -0.5027 0.3021 0.0039, -0.501 0.304 0.0039, -0.4331 -0.1772 0.0039, -0.5067 -0.1772 0.0039, -0.4871 -0.3098 0.0039, -0.5067 -0.2902 0.0039, -0.4922 -0.3091 0.0039, -0.5052 -0.2977 0.0039, -0.506 -0.2953 0.0039, -0.4946 -0.3083 0.0039, -0.4969 -0.3072 0.0039, -0.5041 -0.3 0.0039, -0.5027 -0.3022 0.0039, -0.4991 -0.3058 0.0039, -0.501 -0.3041 0.0039, 0.5117 -0.2954 0.063, 0.5117 -0.1772 0.063, 0.5117 0.2953 0.063, 0.5117 0.1771 0.063, -0.5119 0.2953 0.063, -0.5119 0.1771 0.063, 0.4921 -0.315 0.063, -0.4923 -0.315 0.063, -0.5119 -0.2954 0.063, -0.5119 -0.1772 0.063, -0.4923 0.3149 0.063, 0.4921 0.3149 0.063, 0.4851 0.2687 0.3679, 0.4851 -0.2687 0.3679, 0.4655 0.2883 0.3679, -0.4656 0.2883 0.3679, -0.4852 -0.2687 0.3679, -0.4852 0.2687 0.3679, -0.4656 -0.2883 0.3679, 0.4655 -0.2883 0.3679, -0.4656 0.2687 0.3858, -0.4656 -0.2687 0.3858, -0.3794 0.2687 0.3858, -0.3794 -0.2687 0.3858
            ]
        }
        coordIndex [
            0,1,2,-1,2,1,3,-1,4,5,6,-1,7,8,9,-1,9,8,10,-1,9,10,11,-1,12,13,14,-1,14,13,15,-1,15,13,16,-1,16,13,17,-1,16,17,18,-1,18,17,19,-1,18,19,20,-1,21,22,23,-1,23,22,24,-1,23,24,25,-1,26,25,27,-1,27,25,28,-1,9,23,7,-1,7,23,25,-1,7,25,29,-1,29,25,26,-1,30,31,32,-1,32,31,33,-1,32,33,21,-1,34,35,36,-1,36,35,37,-1,38,39,40,-1,40,39,22,-1,41,42,43,-1,43,42,44,-1,32,45,30,-1,30,45,44,-1,30,44,46,-1,46,44,42,-1,47,11,48,-1,48,11,49,-1,48,49,50,-1,28,51,21,-1,21,51,36,-1,21,36,22,-1,22,36,37,-1,22,37,40,-1,52,53,54,-1,54,53,55,-1,54,55,56,-1,57,58,54,-1,54,58,59,-1,60,61,62,-1,62,61,63,-1,59,64,54,-1,54,64,63,-1,54,63,65,-1,65,63,61,-1,66,67,68,-1,56,69,54,-1,54,69,70,-1,54,70,57,-1,41,43,71,-1,71,43,72,-1,71,72,73,-1,67,74,68,-1,68,74,21,-1,68,21,75,-1,75,21,33,-1,75,33,47,-1,47,33,76,-1,47,76,11,-1,11,76,4,-1,11,4,9,-1,9,4,6,-1,9,6,12,-1,12,6,77,-1,12,77,13,-1,50,78,48,-1,48,78,79,-1,48,79,80,-1,80,79,81,-1,80,81,82,-1,81,83,82,-1,82,83,84,-1,82,84,68,-1,68,84,85,-1,68,85,66,-1,74,86,21,-1,21,86,87,-1,21,87,88,-1,88,89,21,-1,21,89,90,-1,21,90,28,-1,28,90,91,-1,28,91,27,-1,27,91,92,-1,27,92,54,-1,54,92,93,-1,54,93,52,-1,94,95,23,-1,96,97,98,-1,99,100,21,-1,21,100,101,-1,21,101,102,-1,98,103,96,-1,96,103,104,-1,96,104,105,-1,21,106,99,-1,99,106,107,-1,99,107,108,-1,109,110,23,-1,23,110,111,-1,23,111,21,-1,21,111,112,-1,113,114,106,-1,106,114,115,-1,105,109,96,-1,96,109,23,-1,96,23,116,-1,116,23,95,-1,116,95,117,-1,117,95,118,-1,112,119,21,-1,21,119,120,-1,21,120,106,-1,106,120,121,-1,106,121,113,-1,122,123,124,-1,124,123,125,-1,101,126,102,-1,102,126,125,-1,102,125,127,-1,127,125,123,-1,115,128,106,-1,106,128,129,-1,106,129,96,-1,96,129,130,-1,96,130,97,-1,122,124,131,-1,131,124,132,-1,131,132,133,-1,107,94,108,-1,108,94,23,-1,108,23,134,-1,134,23,9,-1,134,9,135,-1,135,9,136,-1,135,136,137,-1,138,139,136,-1,136,139,140,-1,136,140,137,-1,138,141,139,-1,139,141,142,-1,139,142,143,-1,143,142,144,-1,144,142,145,-1,144,145,146,-1,6,5,147,-1,147,5,148,-1,149,150,30,-1,30,150,31,-1,101,100,151,-1,151,100,152,-1,12,153,9,-1,9,153,154,-1,9,154,136,-1,155,156,137,-1,137,156,135,-1,102,157,21,-1,21,157,158,-1,21,158,32,-1,149,159,150,-1,150,159,160,-1,150,160,148,-1,148,160,147,-1,158,157,161,-1,161,157,162,-1,155,163,156,-1,156,163,164,-1,156,164,152,-1,152,164,151,-1,154,153,165,-1,165,153,166,-1,167,168,169,-1,169,168,170,-1,
        ]
    }
}
Shape{
    appearance Appearance {
        material  Material 	{
            diffuseColor 1.0 1.0 1.0
            specularColor 0.5019607843137255 0.5019607843137255 0.5019607843137255
            ambientIntensity 1.0
            transparency 0.0
            shininess 0.5
        }
    }
    geometry IndexedFaceSet {
        ccw TRUE
        solid FALSE
        coord DEF co Coordinate {
            point [
                -0.4331 -0.1772 0.0039, -0.4331 -0.1772 0.0, -0.4331 -0.0336 0.0039, -0.4331 0.1771 0.0, -0.4331 0.1771 0.0039, -0.5119 0.1771 0.063, -0.689 0.1771 0.063, -0.5119 -0.1772 0.063, -0.689 -0.1772 0.063, -0.5067 0.1771 0.0039, -0.689 0.1771 0.0, -0.689 -0.1772 0.0, -0.5067 -0.1772 0.0039, 0.433 0.1771 0.0039, 0.433 0.1771 0.0, 0.433 -0.0336 0.0039, 0.433 -0.1772 0.0, 0.433 -0.1772 0.0039, 0.5117 -0.1772 0.063, 0.6889 -0.1772 0.063, 0.5117 0.1771 0.063, 0.6889 0.1771 0.063, 0.5066 -0.1772 0.0039, 0.6889 -0.1772 0.0, 0.6889 0.1771 0.0, 0.5066 0.1771 0.0039
            ]
        }
        coordIndex [
            0,1,2,-1,2,1,3,-1,2,3,4,-1,5,6,7,-1,7,6,8,-1,4,3,9,-1,9,3,10,-1,9,10,5,-1,5,10,6,-1,11,8,10,-1,10,8,6,-1,1,0,12,-1,7,8,12,-1,12,8,11,-1,12,11,1,-1,11,10,1,-1,1,10,3,-1,13,14,15,-1,15,14,16,-1,15,16,17,-1,18,19,20,-1,20,19,21,-1,17,16,22,-1,22,16,23,-1,22,23,18,-1,18,23,19,-1,24,21,23,-1,23,21,19,-1,14,13,25,-1,20,21,25,-1,25,21,24,-1,25,24,14,-1,24,23,14,-1,14,23,16,-1,
        ]
    }
}
Shape{
    appearance Appearance {
        material  Material 	{
            diffuseColor 0.7529411764705882 0.7529411764705882 0.7529411764705882
            specularColor 0.3764705882352941 0.3764705882352941 0.3764705882352941
            ambientIntensity 0.7529
            transparency 0.0
            shininess 0.5
        }
    }
    geometry IndexedFaceSet {
        ccw TRUE
        solid FALSE
        coord DEF co Coordinate {
            point [
                -0.1515 0.0456 0.0043, -0.1822 -0.0331 0.0043, -0.1515 0.0456 0.0039, -0.1822 -0.0331 0.0039, -0.1707 -0.0331 0.0043, -0.1707 -0.0331 0.0039, -0.1627 -0.0111 0.0043, -0.1627 -0.0111 0.0039, -0.1302 -0.0111 0.0043, -0.1302 -0.0111 0.0039, -0.1227 -0.0331 0.0043, -0.1227 -0.0331 0.0039, -0.1112 -0.0331 0.0043, -0.1112 -0.0331 0.0039, -0.1409 0.0456 0.0043, -0.1409 0.0456 0.0039, -0.1329 -0.0024 0.0043, -0.1592 -0.0024 0.0043, -0.1446 0.0305 0.0043, -0.1454 0.0332 0.0043, -0.1459 0.036 0.0043, -0.1461 0.036 0.0043, -0.1467 0.0332 0.0043, -0.1474 0.0305 0.0043, -0.1329 -0.0024 0.0039, -0.1592 -0.0024 0.0039, -0.1446 0.0305 0.0039, -0.1454 0.0332 0.0039, -0.1459 0.036 0.0039, -0.1461 0.036 0.0039, -0.1467 0.0332 0.0039, -0.1474 0.0305 0.0039, -0.0635 -0.0331 0.0043, -0.042 -0.0331 0.0043, -0.0635 -0.0331 0.0039, -0.042 -0.0331 0.0039, -0.042 0.0456 0.0043, -0.042 0.0456 0.0039, -0.0643 0.0456 0.0043, -0.0643 0.0456 0.0039, -0.1054 0.0072 0.0043, -0.1054 0.0072 0.0039, -0.1048 0.0146 0.0039, -0.1048 0.0146 0.0043, -0.1027 0.0224 0.0039, -0.1027 0.0224 0.0043, -0.0991 0.0292 0.0039, -0.0991 0.0292 0.0043, -0.0935 0.0353 0.0039, -0.0935 0.0353 0.0043, -0.0934 0.0354 0.0039, -0.0934 0.0354 0.0043, -0.0849 0.0411 0.0039, -0.0849 0.0411 0.0043, -0.0756 0.0444 0.0039, -0.0756 0.0444 0.0043, -0.0732 -0.0323 0.0039, -0.0732 -0.0323 0.0043, -0.0823 -0.0296 0.0039, -0.0823 -0.0296 0.0043, -0.0905 -0.0248 0.0039, -0.0905 -0.0248 0.0043, -0.097 -0.0186 0.0039, -0.097 -0.0186 0.0043, -0.1015 -0.0116 0.0039, -0.1015 -0.0116 0.0043, -0.1043 -0.0033 0.0039, -0.1043 -0.0033 0.0043, -0.0896 0.0259 0.0043, -0.0858 0.03 0.0043, -0.08 0.0337 0.0043, -0.0735 0.036 0.0043, -0.0642 0.037 0.0043, -0.0526 0.037 0.0043, -0.0526 -0.0245 0.0043, -0.0638 -0.0245 0.0043, -0.0721 -0.0237 0.0043, -0.0787 -0.0217 0.0043, -0.0841 -0.0185 0.0043, -0.0885 -0.0141 0.0043, -0.0918 -0.0087 0.0043, -0.0941 -0.0013 0.0043, -0.0949 0.007 0.0043, -0.0942 0.0148 0.0043, -0.0923 0.0211 0.0043, -0.0642 0.037 0.0039, -0.0526 0.037 0.0039, -0.0735 0.036 0.0039, -0.08 0.0337 0.0039, -0.0858 0.03 0.0039, -0.0896 0.0259 0.0039, -0.0923 0.0211 0.0039, -0.0942 0.0148 0.0039, -0.0949 0.007 0.0039, -0.0941 -0.0013 0.0039, -0.0918 -0.0087 0.0039, -0.0885 -0.0141 0.0039, -0.0841 -0.0185 0.0039, -0.0787 -0.0217 0.0039, -0.0721 -0.0237 0.0039, -0.0638 -0.0245 0.0039, -0.0526 -0.0245 0.0039, -0.0267 -0.0245 0.0043, -0.0267 -0.0331 0.0043, -0.0267 -0.0245 0.0039, -0.0267 -0.0331 0.0039, 0.0156 -0.0331 0.0043, 0.0156 -0.0331 0.0039, 0.0156 0.0456 0.0043, 0.0156 0.0456 0.0039, -0.0248 0.0456 0.0043, -0.0248 0.0456 0.0039, -0.0248 0.037 0.0043, -0.0248 0.037 0.0039, 0.005 0.037 0.0043, 0.005 0.037 0.0039, 0.005 0.011 0.0043, 0.005 0.011 0.0039, -0.0228 0.011 0.0043, -0.0228 0.011 0.0039, -0.0228 0.0024 0.0043, -0.0228 0.0024 0.0039, 0.005 0.0024 0.0043, 0.005 0.0024 0.0039, 0.005 -0.0245 0.0043, 0.005 -0.0245 0.0039, 0.0309 -0.0204 0.0043, 0.0309 -0.0291 0.0043, 0.0309 -0.0204 0.0039, 0.0309 -0.0291 0.0039, 0.0393 -0.0325 0.0043, 0.0526 -0.0341 0.0043, 0.0526 -0.0341 0.0039, 0.0505 -0.0341 0.0039, 0.0505 -0.0341 0.0043, 0.0473 -0.0336 0.0039, 0.0393 -0.0325 0.0039, 0.0572 -0.0336 0.0039, 0.0623 -0.0331 0.0043, 0.0623 -0.0331 0.0039, 0.0699 -0.0305 0.0043, 0.0699 -0.0305 0.0039, 0.0763 -0.0264 0.0043, 0.0763 -0.0264 0.0039, 0.0822 -0.0202 0.0043, 0.0822 -0.0202 0.0039, 0.0864 -0.0127 0.0043, 0.0864 -0.0127 0.0039, 0.0888 -0.0044 0.0043, 0.0888 -0.0044 0.0039, 0.0895 0.0047 0.0043, 0.0895 0.0047 0.0039, 0.0495 0.0466 0.0043, 0.0495 0.0466 0.0039, 0.0574 0.0459 0.0039, 0.0574 0.0459 0.0043, 0.0662 0.0434 0.0039, 0.0662 0.0434 0.0043, 0.0736 0.0391 0.0039, 0.0736 0.0391 0.0043, 0.0807 0.0322 0.0039, 0.0807 0.0322 0.0043, 0.0854 0.0249 0.0039, 0.0854 0.0249 0.0043, 0.0884 0.0159 0.0039, 0.0884 0.0159 0.0043, 0.0309 0.0434 0.0043, 0.0309 0.0434 0.0039, 0.04 0.0459 0.0039, 0.04 0.0459 0.0043, 0.0309 0.0329 0.0043, 0.0309 0.0329 0.0039, 0.0494 0.0379 0.0043, 0.0494 0.0379 0.0039, 0.0398 0.0367 0.0039, 0.0398 0.0367 0.0043, 0.079 0.0054 0.0043, 0.079 0.0054 0.0039, 0.0786 0.0115 0.0039, 0.0786 0.0115 0.0043, 0.0765 0.0199 0.0039, 0.0765 0.0199 0.0043, 0.0732 0.026 0.0039, 0.0732 0.026 0.0043, 0.0685 0.0313 0.0039, 0.0685 0.0313 0.0043, 0.063 0.0349 0.0039, 0.063 0.0349 0.0043, 0.0571 0.037 0.0039, 0.0571 0.037 0.0043, 0.0511 -0.0255 0.0043, 0.0511 -0.0255 0.0039, 0.0585 -0.0246 0.0039, 0.0585 -0.0246 0.0043, 0.0642 -0.0225 0.0039, 0.0642 -0.0225 0.0043, 0.0691 -0.0193 0.0039, 0.0691 -0.0193 0.0043, 0.0728 -0.0154 0.0039, 0.0728 -0.0154 0.0043, 0.076 -0.0099 0.0039, 0.076 -0.0099 0.0043, 0.0782 -0.0031 0.0039, 0.0782 -0.0031 0.0043, 0.0323 -0.0212 0.0039, 0.0323 -0.0212 0.0043, 0.0407 -0.0243 0.0039, 0.0407 -0.0243 0.0043, 0.0962 -0.0245 0.0043, 0.0962 -0.0331 0.0043, 0.0962 -0.0245 0.0039, 0.0962 -0.0331 0.0039, 0.1366 -0.0331 0.0043, 0.1366 -0.0331 0.0039, 0.1366 0.0456 0.0043, 0.1366 0.0456 0.0039, 0.126 0.0456 0.0043, 0.126 0.0456 0.0039, 0.126 -0.0245 0.0043, 0.126 -0.0245 0.0039
            ]
        }
        coordIndex [
            0,1,2,-1,2,1,3,-1,1,4,3,-1,3,4,5,-1,4,6,5,-1,5,6,7,-1,6,8,7,-1,7,8,9,-1,8,10,9,-1,9,10,11,-1,10,12,11,-1,11,12,13,-1,12,14,13,-1,13,14,15,-1,14,0,15,-1,15,0,2,-1,16,8,17,-1,17,8,6,-1,18,14,16,-1,16,14,12,-1,16,12,8,-1,8,12,10,-1,18,19,14,-1,14,19,20,-1,14,20,0,-1,0,20,21,-1,0,21,22,-1,22,23,0,-1,0,23,17,-1,0,17,1,-1,1,17,6,-1,1,6,4,-1,16,17,24,-1,24,17,25,-1,18,16,26,-1,26,16,24,-1,18,26,27,-1,18,27,19,-1,19,27,28,-1,19,28,20,-1,21,20,29,-1,29,20,28,-1,21,29,30,-1,21,30,22,-1,22,30,31,-1,22,31,23,-1,17,23,25,-1,25,23,31,-1,32,33,34,-1,34,33,35,-1,33,36,35,-1,35,36,37,-1,36,38,37,-1,37,38,39,-1,40,41,42,-1,40,42,43,-1,43,42,44,-1,43,44,45,-1,45,44,46,-1,45,46,47,-1,47,46,48,-1,47,48,49,-1,49,48,50,-1,49,50,51,-1,51,50,52,-1,51,52,53,-1,53,52,54,-1,53,54,55,-1,55,54,39,-1,55,39,38,-1,32,34,56,-1,32,56,57,-1,57,56,58,-1,57,58,59,-1,59,58,60,-1,59,60,61,-1,61,60,62,-1,61,62,63,-1,63,62,64,-1,63,64,65,-1,65,64,66,-1,65,66,67,-1,67,66,41,-1,67,41,40,-1,45,47,68,-1,68,47,49,-1,68,49,69,-1,69,49,51,-1,69,51,70,-1,70,51,53,-1,70,53,71,-1,71,53,55,-1,71,55,72,-1,72,55,38,-1,72,38,73,-1,73,38,36,-1,73,36,74,-1,74,36,33,-1,74,33,75,-1,75,33,32,-1,75,32,76,-1,76,32,57,-1,76,57,77,-1,77,57,59,-1,77,59,78,-1,78,59,61,-1,78,61,79,-1,79,61,63,-1,79,63,80,-1,80,63,65,-1,80,65,81,-1,81,65,67,-1,81,67,82,-1,82,67,40,-1,82,40,83,-1,83,40,43,-1,83,43,84,-1,84,43,45,-1,84,45,68,-1,72,73,85,-1,85,73,86,-1,72,85,87,-1,72,87,71,-1,71,87,88,-1,71,88,70,-1,70,88,89,-1,70,89,69,-1,69,89,90,-1,69,90,68,-1,68,90,91,-1,68,91,84,-1,84,91,92,-1,84,92,83,-1,83,92,93,-1,83,93,82,-1,82,93,94,-1,82,94,81,-1,81,94,95,-1,81,95,80,-1,80,95,96,-1,80,96,79,-1,79,96,97,-1,79,97,78,-1,78,97,98,-1,78,98,77,-1,77,98,99,-1,77,99,76,-1,76,99,100,-1,76,100,75,-1,74,75,101,-1,101,75,100,-1,73,74,86,-1,86,74,101,-1,102,103,104,-1,104,103,105,-1,103,106,105,-1,105,106,107,-1,106,108,107,-1,107,108,109,-1,108,110,109,-1,109,110,111,-1,110,112,111,-1,111,112,113,-1,112,114,113,-1,113,114,115,-1,114,116,115,-1,115,116,117,-1,116,118,117,-1,117,118,119,-1,118,120,119,-1,119,120,121,-1,120,122,121,-1,121,122,123,-1,122,124,123,-1,123,124,125,-1,124,102,125,-1,125,102,104,-1,106,103,102,-1,102,124,106,-1,106,124,122,-1,106,122,108,-1,112,110,114,-1,114,110,108,-1,114,108,116,-1,116,108,122,-1,116,122,118,-1,118,122,120,-1,126,127,128,-1,128,127,129,-1,129,127,130,-1,131,132,133,-1,131,133,134,-1,134,133,135,-1,134,135,130,-1,130,135,136,-1,130,136,129,-1,132,131,137,-1,137,131,138,-1,137,138,139,-1,139,138,140,-1,139,140,141,-1,141,140,142,-1,141,142,143,-1,143,142,144,-1,143,144,145,-1,145,144,146,-1,145,146,147,-1,147,146,148,-1,147,148,149,-1,149,148,150,-1,149,150,151,-1,152,153,154,-1,152,154,155,-1,155,154,156,-1,155,156,157,-1,157,156,158,-1,157,158,159,-1,159,158,160,-1,159,160,161,-1,161,160,162,-1,161,162,163,-1,163,162,164,-1,163,164,165,-1,165,164,151,-1,165,151,150,-1,166,167,168,-1,166,168,169,-1,169,168,153,-1,169,153,152,-1,166,170,167,-1,167,170,171,-1,172,173,174,-1,172,174,175,-1,175,174,171,-1,175,171,170,-1,176,177,178,-1,176,178,179,-1,179,178,180,-1,179,180,181,-1,181,180,182,-1,181,182,183,-1,183,182,184,-1,183,184,185,-1,185,184,186,-1,185,186,187,-1,187,186,188,-1,187,188,189,-1,189,188,173,-1,189,173,172,-1,190,191,192,-1,190,192,193,-1,193,192,194,-1,193,194,195,-1,195,194,196,-1,195,196,197,-1,197,196,198,-1,197,198,199,-1,199,198,200,-1,199,200,201,-1,201,200,202,-1,201,202,203,-1,203,202,177,-1,203,177,176,-1,126,128,204,-1,126,204,205,-1,205,204,206,-1,205,206,207,-1,207,206,191,-1,207,191,190,-1,193,131,190,-1,190,131,134,-1,190,134,207,-1,207,134,130,-1,207,130,205,-1,205,130,127,-1,205,127,126,-1,170,166,175,-1,175,166,169,-1,175,169,172,-1,172,169,152,-1,172,152,189,-1,189,152,155,-1,189,155,187,-1,187,155,157,-1,187,157,185,-1,185,157,159,-1,185,159,183,-1,183,159,161,-1,183,161,181,-1,181,161,163,-1,181,163,179,-1,179,163,165,-1,179,165,176,-1,176,165,150,-1,176,150,203,-1,203,150,148,-1,203,148,201,-1,201,148,146,-1,201,146,199,-1,199,146,144,-1,199,144,197,-1,197,144,142,-1,197,142,195,-1,195,142,140,-1,195,140,193,-1,193,140,138,-1,193,138,131,-1,208,209,210,-1,210,209,211,-1,209,212,211,-1,211,212,213,-1,212,214,213,-1,213,214,215,-1,214,216,215,-1,215,216,217,-1,216,218,217,-1,217,218,219,-1,218,208,219,-1,219,208,210,-1,216,214,218,-1,218,214,212,-1,218,212,208,-1,208,212,209,-1,
        ]
    }
}
Shape{
    appearance Appearance {
        material  Material 	{
            diffuseColor 0.25098039215686274 0.25098039215686274 0.25098039215686274
            specularColor 0.12549019607843137 0.12549019607843137 0.12549019607843137
            ambientIntensity 0.251
            transparency 0.0
            shininess 0.5
        }
    }
    geometry IndexedFaceSet {
        ccw TRUE
        solid FALSE
        coord DEF co Coordinate {
            point [
                -0.1329 -0.0024 0.0039, -0.1592 -0.0024 0.0039, -0.1446 0.0305 0.0039, -0.1474 0.0305 0.0039, -0.1454 0.0332 0.0039, -0.1467 0.0332 0.0039, -0.1459 0.036 0.0039, -0.1461 0.036 0.0039, -0.0526 0.037 0.0039, -0.0526 -0.0245 0.0039, -0.0642 0.037 0.0039, -0.0638 -0.0245 0.0039, -0.0721 -0.0237 0.0039, -0.0949 0.007 0.0039, -0.0942 0.0148 0.0039, -0.0923 0.0211 0.0039, -0.0735 0.036 0.0039, -0.0787 -0.0217 0.0039, -0.0841 -0.0185 0.0039, -0.0885 -0.0141 0.0039, -0.0918 -0.0087 0.0039, -0.0941 -0.0013 0.0039, -0.0896 0.0259 0.0039, -0.0858 0.03 0.0039, -0.08 0.0337 0.0039, -0.4923 0.3149 0.063, -0.4871 0.3098 0.0039, -0.4922 0.3091 0.0039, -0.4974 0.3143 0.063, -0.4946 0.3083 0.0039, -0.4998 0.3135 0.063, -0.4969 0.3072 0.0039, -0.5021 0.3123 0.063, -0.5042 0.3109 0.063, -0.4991 0.3057 0.0039, -0.5061 0.3092 0.063, -0.501 0.304 0.0039, -0.5078 0.3073 0.063, -0.5027 0.3021 0.0039, -0.5093 0.3051 0.063, -0.5041 0.3 0.0039, -0.5104 0.3028 0.063, -0.5052 0.2977 0.0039, -0.5112 0.3004 0.063, -0.506 0.2952 0.0039, -0.5067 0.2902 0.0039, -0.5119 0.2953 0.063, 0.5117 0.2953 0.063, 0.5066 0.2902 0.0039, 0.5059 0.2952 0.0039, 0.5111 0.3004 0.063, 0.5051 0.2977 0.0039, 0.5103 0.3028 0.063, 0.504 0.3 0.0039, 0.5091 0.3051 0.063, 0.5077 0.3073 0.063, 0.5025 0.3021 0.0039, 0.506 0.3092 0.063, 0.5008 0.304 0.0039, 0.5041 0.3109 0.063, 0.4989 0.3057 0.0039, 0.5019 0.3123 0.063, 0.4968 0.3072 0.0039, 0.4996 0.3135 0.063, 0.4945 0.3083 0.0039, 0.4972 0.3143 0.063, 0.492 0.3091 0.0039, 0.487 0.3098 0.0039, 0.4921 0.3149 0.063, -0.4852 0.2687 0.3679, -0.4845 0.2737 0.3682, -0.4845 0.2737 0.3682, -0.4825 0.2784 0.3685, -0.4825 0.2784 0.3685, -0.4794 0.2825 0.3686, -0.4754 0.2856 0.3685, -0.4754 0.2856 0.3685, -0.4707 0.2876 0.3682, -0.4707 0.2876 0.3682, -0.4656 0.2883 0.3679, -0.4656 0.2687 0.3858, -0.3794 0.2687 0.3858, -0.4656 0.2735 0.3852, -0.3794 0.2726 0.3854, -0.3001 0.2687 0.3858, 0.4655 0.2687 0.3858, -0.3001 0.2726 0.3854, 0.4655 0.2735 0.3852, 0.4655 0.2883 0.3679, 0.4655 0.2873 0.3725, -0.4656 0.2873 0.3725, 0.4655 0.2872 0.3726, -0.4656 0.2872 0.3726, 0.4655 0.2852 0.3769, -0.4656 0.2852 0.3769, 0.4655 0.2851 0.3769, -0.4656 0.2851 0.3769, 0.4655 0.282 0.3806, -0.4656 0.282 0.3806, 0.4655 0.282 0.3806, -0.4656 0.282 0.3806, 0.4655 0.2781 0.3834, -0.4656 0.2781 0.3834, 0.4655 0.278 0.3835, -0.4656 0.278 0.3835, 0.4655 0.2735 0.3852, -0.4656 0.2735 0.3852, 0.4705 0.2876 0.3682, 0.4705 0.2876 0.3682, 0.4752 0.2856 0.3685, 0.4752 0.2856 0.3685, 0.4793 0.2825 0.3686, 0.4824 0.2784 0.3685, 0.4824 0.2784 0.3685, 0.4844 0.2737 0.3682, 0.4844 0.2737 0.3682, 0.4851 0.2687 0.3679, -0.5119 -0.2954 0.063, -0.5067 -0.2902 0.0039, -0.506 -0.2953 0.0039, -0.5112 -0.3005 0.063, -0.5052 -0.2977 0.0039, -0.5104 -0.3029 0.063, -0.5041 -0.3 0.0039, -0.5093 -0.3052 0.063, -0.5078 -0.3073 0.063, -0.5027 -0.3022 0.0039, -0.5061 -0.3092 0.063, -0.501 -0.3041 0.0039, -0.5042 -0.3109 0.063, -0.4991 -0.3058 0.0039, -0.5021 -0.3124 0.063, -0.4969 -0.3072 0.0039, -0.4998 -0.3135 0.063, -0.4946 -0.3083 0.0039, -0.4974 -0.3143 0.063, -0.4922 -0.3091 0.0039, -0.4871 -0.3098 0.0039, -0.4923 -0.315 0.063, -0.482 0.2687 0.3769, -0.479 0.2687 0.3806, -0.4785 0.2721 0.3806, -0.4747 0.2711 0.3834, -0.4703 0.2699 0.3852, -0.4698 0.2711 0.3852, -0.468 0.2729 0.3852, -0.469 0.2721 0.3852, -0.4669 0.2733 0.3852, -0.4704 0.2687 0.3852, -0.4836 0.2735 0.3725, -0.4817 0.278 0.3725, -0.4788 0.2818 0.3725, -0.4749 0.2848 0.3725, -0.4704 0.2867 0.3725, -0.4789 0.2687 0.3806, -0.475 0.2687 0.3834, -0.4749 0.2687 0.3835, -0.4704 0.2687 0.3852, -0.4737 0.2734 0.3834, -0.4722 0.2753 0.3834, -0.4703 0.2768 0.3834, -0.468 0.2777 0.3834, -0.4772 0.2753 0.3806, -0.475 0.2781 0.3806, -0.4723 0.2802 0.3806, -0.4691 0.2816 0.3806, -0.4842 0.2687 0.3726, -0.4821 0.2687 0.3769, -0.4815 0.2729 0.3769, -0.4799 0.2769 0.3769, -0.4773 0.2803 0.3769, -0.4739 0.283 0.3769, -0.4699 0.2846 0.3769, -0.4842 0.2687 0.3725, 0.4689 0.2816 0.3806, 0.4679 0.2777 0.3834, 0.4667 0.2733 0.3852, 0.4679 0.2729 0.3852, 0.4697 0.2711 0.3852, 0.4689 0.2721 0.3852, 0.4701 0.2699 0.3852, 0.4703 0.2867 0.3725, 0.4748 0.2848 0.3725, 0.4786 0.2818 0.3725, 0.4816 0.278 0.3725, 0.4835 0.2735 0.3725, 0.4841 0.2687 0.3725, 0.4703 0.2687 0.3852, 0.4702 0.2768 0.3834, 0.4721 0.2753 0.3834, 0.4736 0.2734 0.3834, 0.4745 0.2711 0.3834, 0.4703 0.2687 0.3852, 0.4748 0.2687 0.3835, 0.4749 0.2687 0.3834, 0.4788 0.2687 0.3806, 0.4721 0.2802 0.3806, 0.4749 0.2781 0.3806, 0.477 0.2753 0.3806, 0.4784 0.2721 0.3806, 0.4697 0.2846 0.3769, 0.4737 0.283 0.3769, 0.4771 0.2803 0.3769, 0.4798 0.2769 0.3769, 0.4814 0.2729 0.3769, 0.4788 0.2687 0.3806, 0.4819 0.2687 0.3769, 0.482 0.2687 0.3769, 0.484 0.2687 0.3726, 0.4921 -0.315 0.063, 0.487 -0.3098 0.0039, 0.492 -0.3091 0.0039, 0.4972 -0.3143 0.063, 0.4945 -0.3083 0.0039, 0.4996 -0.3135 0.063, 0.4968 -0.3072 0.0039, 0.5019 -0.3124 0.063, 0.5041 -0.3109 0.063, 0.4989 -0.3058 0.0039, 0.506 -0.3092 0.063, 0.5008 -0.3041 0.0039, 0.5077 -0.3073 0.063, 0.5025 -0.3022 0.0039, 0.5091 -0.3052 0.063, 0.504 -0.3 0.0039, 0.5103 -0.3029 0.063, 0.5051 -0.2977 0.0039, 0.5111 -0.3005 0.063, 0.5059 -0.2953 0.0039, 0.5066 -0.2902 0.0039, 0.5117 -0.2954 0.063, -0.4656 -0.2883 0.3679, -0.4707 -0.2876 0.3682, -0.4707 -0.2876 0.3682, -0.4754 -0.2856 0.3685, -0.4754 -0.2856 0.3685, -0.4794 -0.2825 0.3686, -0.4825 -0.2785 0.3685, -0.4825 -0.2785 0.3685, -0.4845 -0.2738 0.3682, -0.4845 -0.2737 0.3682, -0.4852 -0.2687 0.3679, -0.4842 -0.2687 0.3725, -0.4842 -0.2687 0.3726, -0.4821 -0.2687 0.3769, -0.482 -0.2687 0.3769, -0.479 -0.2687 0.3806, -0.4789 -0.2687 0.3806, -0.475 -0.2687 0.3834, -0.4749 -0.2687 0.3835, -0.4704 -0.2687 0.3852, -0.4704 -0.2687 0.3852, -0.4656 -0.2687 0.3858, 0.4851 -0.2687 0.3679, 0.4841 -0.2687 0.3725, 0.484 -0.2687 0.3726, 0.482 -0.2687 0.3769, 0.4819 -0.2687 0.3769, 0.4788 -0.2687 0.3806, 0.4788 -0.2687 0.3806, 0.4749 -0.2687 0.3834, 0.4748 -0.2687 0.3835, 0.4703 -0.2687 0.3852, 0.4703 -0.2687 0.3852, 0.4655 -0.2687 0.3858, 0.4845 -0.273 0.3682, 0.4844 -0.2737 0.3682, 0.483 -0.2771 0.3684, 0.4824 -0.2785 0.3685, 0.4806 -0.2808 0.3685, 0.4793 -0.2825 0.3686, 0.4775 -0.2838 0.3685, 0.4752 -0.2856 0.3685, 0.4739 -0.2862 0.3684, 0.4705 -0.2876 0.3682, 0.4698 -0.2877 0.3682, 0.4655 -0.2883 0.3679, -0.4656 -0.2851 0.3769, -0.4656 -0.2821 0.3806, -0.4691 -0.2816 0.3806, -0.468 -0.2778 0.3834, -0.4669 -0.2734 0.3852, -0.468 -0.2729 0.3852, -0.4698 -0.2711 0.3852, -0.469 -0.2721 0.3852, -0.4703 -0.27 0.3852, -0.4656 -0.2735 0.3852, -0.4704 -0.2867 0.3725, -0.4749 -0.2848 0.3725, -0.4788 -0.2819 0.3725, -0.4817 -0.278 0.3725, -0.4836 -0.2735 0.3725, -0.4656 -0.282 0.3806, -0.4656 -0.2781 0.3834, -0.4656 -0.278 0.3835, -0.4656 -0.2735 0.3852, -0.4703 -0.2768 0.3834, -0.4722 -0.2753 0.3834, -0.4737 -0.2734 0.3834, -0.4747 -0.2711 0.3834, -0.4723 -0.2803 0.3806, -0.475 -0.2781 0.3806, -0.4772 -0.2754 0.3806, -0.4785 -0.2722 0.3806, -0.4656 -0.2873 0.3726, -0.4656 -0.2852 0.3769, -0.4699 -0.2846 0.3769, -0.4739 -0.283 0.3769, -0.4773 -0.2804 0.3769, -0.4799 -0.277 0.3769, -0.4815 -0.273 0.3769, -0.4656 -0.2873 0.3725, 0.4816 -0.2724 0.3769, 0.4785 -0.2717 0.3806, 0.4746 -0.2708 0.3834, 0.4702 -0.2698 0.3852, 0.4698 -0.2708 0.3852, 0.4676 -0.2731 0.3852, 0.4685 -0.2725 0.3852, 0.4665 -0.2734 0.3852, 0.4836 -0.2728 0.3725, 0.4823 -0.2768 0.3725, 0.48 -0.2803 0.3725, 0.4771 -0.2833 0.3725, 0.4735 -0.2855 0.3725, 0.4696 -0.2869 0.3725, 0.4655 -0.2873 0.3725, 0.4655 -0.2735 0.3852, 0.4728 -0.2746 0.3834, 0.4713 -0.276 0.3834, 0.4695 -0.2772 0.3834, 0.4675 -0.2779 0.3834, 0.4739 -0.2728 0.3834, 0.4692 -0.2717 0.3852, 0.4655 -0.2735 0.3852, 0.4655 -0.278 0.3835, 0.4655 -0.2781 0.3834, 0.4655 -0.282 0.3806, 0.4775 -0.2745 0.3806, 0.4759 -0.277 0.3806, 0.4738 -0.2791 0.3806, 0.4713 -0.2807 0.3806, 0.4684 -0.2817 0.3806, 0.4803 -0.2759 0.3769, 0.4784 -0.279 0.3769, 0.4758 -0.2816 0.3769, 0.4726 -0.2836 0.3769, 0.4691 -0.2848 0.3769, 0.4655 -0.2821 0.3806, 0.4655 -0.2851 0.3769, 0.4655 -0.2852 0.3769, 0.4655 -0.2873 0.3726, -0.3001 -0.2687 0.3858, -0.3794 -0.2687 0.3858, -0.3794 -0.2726 0.3854, -0.3001 -0.2726 0.3854
            ]
        }
        coordIndex [
            0,1,2,-1,2,1,3,-1,2,3,4,-1,4,3,5,-1,4,5,6,-1,6,5,7,-1,8,9,10,-1,10,9,11,-1,10,11,12,-1,13,14,10,-1,10,14,15,-1,10,15,16,-1,12,17,10,-1,10,17,18,-1,10,18,19,-1,19,20,10,-1,10,20,21,-1,10,21,13,-1,22,23,15,-1,15,23,24,-1,15,24,16,-1,25,26,27,-1,25,27,28,-1,28,27,29,-1,28,29,30,-1,30,29,31,-1,30,31,32,-1,32,31,33,-1,33,31,34,-1,33,34,35,-1,35,34,36,-1,35,36,37,-1,37,36,38,-1,37,38,39,-1,39,38,40,-1,39,40,41,-1,41,40,42,-1,41,42,43,-1,42,44,43,-1,43,44,45,-1,43,45,46,-1,47,48,49,-1,47,49,50,-1,50,49,51,-1,50,51,52,-1,52,51,53,-1,52,53,54,-1,54,53,55,-1,55,53,56,-1,55,56,57,-1,57,56,58,-1,57,58,59,-1,59,58,60,-1,59,60,61,-1,61,60,62,-1,61,62,63,-1,63,62,64,-1,63,64,65,-1,64,66,65,-1,65,66,67,-1,65,67,68,-1,69,70,46,-1,46,70,43,-1,43,70,41,-1,41,70,71,-1,41,71,39,-1,39,71,72,-1,39,72,37,-1,37,72,73,-1,37,73,35,-1,35,73,74,-1,35,74,33,-1,33,74,75,-1,33,75,32,-1,32,75,76,-1,32,76,30,-1,30,76,77,-1,30,77,28,-1,77,78,28,-1,28,78,79,-1,28,79,25,-1,80,81,82,-1,82,81,83,-1,84,85,86,-1,86,85,87,-1,88,79,89,-1,89,79,90,-1,89,90,91,-1,91,90,92,-1,91,92,93,-1,93,92,94,-1,93,94,95,-1,95,94,96,-1,95,96,97,-1,97,96,98,-1,97,98,99,-1,99,98,100,-1,99,100,101,-1,101,100,102,-1,101,102,103,-1,103,102,104,-1,103,104,105,-1,105,104,106,-1,105,106,87,-1,87,106,82,-1,87,82,86,-1,86,82,83,-1,88,107,68,-1,68,107,65,-1,65,107,63,-1,63,107,108,-1,63,108,61,-1,61,108,109,-1,61,109,59,-1,59,109,110,-1,59,110,57,-1,57,110,111,-1,57,111,55,-1,55,111,112,-1,55,112,54,-1,54,112,113,-1,54,113,52,-1,52,113,114,-1,52,114,50,-1,114,115,50,-1,50,115,116,-1,50,116,47,-1,117,118,119,-1,117,119,120,-1,120,119,121,-1,120,121,122,-1,122,121,123,-1,122,123,124,-1,124,123,125,-1,125,123,126,-1,125,126,127,-1,127,126,128,-1,127,128,129,-1,129,128,130,-1,129,130,131,-1,131,130,132,-1,131,132,133,-1,133,132,134,-1,133,134,135,-1,134,136,135,-1,135,136,137,-1,135,137,138,-1,139,140,141,-1,142,143,144,-1,80,145,146,-1,147,145,80,-1,144,143,80,-1,148,80,143,-1,149,71,70,-1,71,149,72,-1,72,149,150,-1,72,150,73,-1,73,150,151,-1,73,151,74,-1,74,151,152,-1,74,152,75,-1,75,152,76,-1,76,152,153,-1,76,153,77,-1,77,153,78,-1,78,153,90,-1,78,90,79,-1,82,147,80,-1,154,155,142,-1,142,155,156,-1,142,156,143,-1,143,156,157,-1,143,157,148,-1,158,146,159,-1,159,146,145,-1,159,145,160,-1,160,145,147,-1,160,147,161,-1,82,106,147,-1,147,106,104,-1,147,104,161,-1,161,104,102,-1,161,102,100,-1,141,158,162,-1,162,158,159,-1,162,159,163,-1,163,159,160,-1,163,160,164,-1,164,160,161,-1,164,161,165,-1,165,161,100,-1,166,167,168,-1,168,167,139,-1,139,141,168,-1,168,141,162,-1,168,162,169,-1,169,162,163,-1,169,163,170,-1,170,163,164,-1,170,164,171,-1,171,164,165,-1,171,165,172,-1,140,154,141,-1,141,154,142,-1,141,142,158,-1,158,142,144,-1,158,144,146,-1,146,144,80,-1,166,149,173,-1,173,149,70,-1,173,70,69,-1,100,98,165,-1,165,98,96,-1,165,96,172,-1,172,96,94,-1,172,94,92,-1,166,168,149,-1,149,168,169,-1,149,169,150,-1,150,169,170,-1,150,170,151,-1,151,170,171,-1,151,171,152,-1,152,171,172,-1,152,172,153,-1,153,172,92,-1,153,92,90,-1,95,97,174,-1,175,176,177,-1,85,178,179,-1,180,178,85,-1,177,176,85,-1,87,85,176,-1,181,108,107,-1,108,181,109,-1,109,181,182,-1,109,182,110,-1,110,182,183,-1,110,183,111,-1,111,183,184,-1,111,184,112,-1,112,184,113,-1,113,184,185,-1,113,185,114,-1,114,185,115,-1,115,185,186,-1,115,186,116,-1,187,180,85,-1,99,101,175,-1,175,101,103,-1,175,103,176,-1,176,103,105,-1,176,105,87,-1,188,179,189,-1,189,179,178,-1,189,178,190,-1,190,178,180,-1,190,180,191,-1,187,192,180,-1,180,192,193,-1,180,193,191,-1,191,193,194,-1,191,194,195,-1,174,188,196,-1,196,188,189,-1,196,189,197,-1,197,189,190,-1,197,190,198,-1,198,190,191,-1,198,191,199,-1,199,191,195,-1,91,93,200,-1,200,93,95,-1,95,174,200,-1,200,174,196,-1,200,196,201,-1,201,196,197,-1,201,197,202,-1,202,197,198,-1,202,198,203,-1,203,198,199,-1,203,199,204,-1,97,99,174,-1,174,99,175,-1,174,175,188,-1,188,175,177,-1,188,177,179,-1,179,177,85,-1,91,181,89,-1,89,181,107,-1,89,107,88,-1,195,205,199,-1,199,205,206,-1,199,206,204,-1,204,206,207,-1,204,207,208,-1,91,200,181,-1,181,200,201,-1,181,201,182,-1,182,201,202,-1,182,202,183,-1,183,202,203,-1,183,203,184,-1,184,203,204,-1,184,204,185,-1,185,204,208,-1,185,208,186,-1,209,210,211,-1,209,211,212,-1,212,211,213,-1,212,213,214,-1,214,213,215,-1,214,215,216,-1,216,215,217,-1,217,215,218,-1,217,218,219,-1,219,218,220,-1,219,220,221,-1,221,220,222,-1,221,222,223,-1,223,222,224,-1,223,224,225,-1,225,224,226,-1,225,226,227,-1,226,228,227,-1,227,228,229,-1,227,229,230,-1,231,232,138,-1,138,232,135,-1,135,232,133,-1,133,232,233,-1,133,233,131,-1,131,233,234,-1,131,234,129,-1,129,234,235,-1,129,235,127,-1,127,235,236,-1,127,236,125,-1,125,236,237,-1,125,237,124,-1,124,237,238,-1,124,238,122,-1,122,238,239,-1,122,239,120,-1,239,240,120,-1,120,240,241,-1,120,241,117,-1,69,241,173,-1,173,241,242,-1,173,242,166,-1,166,242,243,-1,166,243,167,-1,167,243,244,-1,167,244,139,-1,139,244,245,-1,139,245,140,-1,140,245,246,-1,140,246,154,-1,154,246,247,-1,154,247,155,-1,155,247,248,-1,155,248,156,-1,156,248,249,-1,156,249,157,-1,157,249,250,-1,157,250,148,-1,250,251,148,-1,148,251,252,-1,148,252,80,-1,253,116,254,-1,254,116,186,-1,254,186,255,-1,255,186,208,-1,255,208,256,-1,256,208,207,-1,256,207,257,-1,257,207,206,-1,257,206,258,-1,258,206,205,-1,258,205,259,-1,259,205,195,-1,259,195,260,-1,260,195,194,-1,260,194,261,-1,261,194,193,-1,261,193,262,-1,262,193,192,-1,262,192,263,-1,192,187,263,-1,263,187,85,-1,263,85,264,-1,230,253,265,-1,230,265,227,-1,227,265,266,-1,227,266,225,-1,225,266,267,-1,225,267,223,-1,223,267,268,-1,223,268,221,-1,221,268,269,-1,221,269,219,-1,219,269,270,-1,219,270,217,-1,217,270,271,-1,217,271,216,-1,216,271,272,-1,216,272,214,-1,214,272,273,-1,214,273,212,-1,212,273,274,-1,212,274,209,-1,209,274,275,-1,209,275,276,-1,277,278,279,-1,280,281,282,-1,252,283,284,-1,285,283,252,-1,282,281,252,-1,286,252,281,-1,287,233,232,-1,233,287,234,-1,234,287,288,-1,234,288,235,-1,235,288,289,-1,235,289,236,-1,236,289,290,-1,236,290,237,-1,237,290,238,-1,238,290,291,-1,238,291,239,-1,239,291,240,-1,240,291,242,-1,240,242,241,-1,251,285,252,-1,292,293,280,-1,280,293,294,-1,280,294,281,-1,281,294,295,-1,281,295,286,-1,296,284,297,-1,297,284,283,-1,297,283,298,-1,298,283,285,-1,298,285,299,-1,251,250,285,-1,285,250,249,-1,285,249,299,-1,299,249,248,-1,299,248,247,-1,279,296,300,-1,300,296,297,-1,300,297,301,-1,301,297,298,-1,301,298,302,-1,302,298,299,-1,302,299,303,-1,303,299,247,-1,304,305,306,-1,306,305,277,-1,277,279,306,-1,306,279,300,-1,306,300,307,-1,307,300,301,-1,307,301,308,-1,308,301,302,-1,308,302,309,-1,309,302,303,-1,309,303,310,-1,278,292,279,-1,279,292,280,-1,279,280,296,-1,296,280,282,-1,296,282,284,-1,284,282,252,-1,304,287,311,-1,311,287,232,-1,311,232,231,-1,247,246,303,-1,303,246,245,-1,303,245,310,-1,310,245,244,-1,310,244,243,-1,304,306,287,-1,287,306,307,-1,287,307,288,-1,288,307,308,-1,288,308,289,-1,289,308,309,-1,289,309,290,-1,290,309,310,-1,290,310,291,-1,291,310,243,-1,291,243,242,-1,255,256,312,-1,257,258,313,-1,314,315,316,-1,264,317,318,-1,319,317,264,-1,316,315,264,-1,263,264,315,-1,265,320,266,-1,266,320,321,-1,266,321,267,-1,267,321,268,-1,268,321,322,-1,268,322,269,-1,269,322,270,-1,270,322,323,-1,270,323,271,-1,271,323,272,-1,272,323,324,-1,272,324,273,-1,273,324,274,-1,274,324,325,-1,274,325,275,-1,275,325,326,-1,275,326,276,-1,327,319,264,-1,259,260,314,-1,314,260,261,-1,314,261,315,-1,315,261,262,-1,315,262,263,-1,328,318,329,-1,329,318,317,-1,329,317,330,-1,330,317,319,-1,330,319,331,-1,258,259,313,-1,313,259,314,-1,313,314,332,-1,332,314,316,-1,332,316,333,-1,333,316,264,-1,327,334,319,-1,319,334,335,-1,319,335,331,-1,331,335,336,-1,331,336,337,-1,338,328,339,-1,339,328,329,-1,339,329,340,-1,340,329,330,-1,340,330,341,-1,341,330,331,-1,341,331,342,-1,342,331,337,-1,312,338,343,-1,343,338,339,-1,343,339,344,-1,344,339,340,-1,344,340,345,-1,345,340,341,-1,345,341,346,-1,346,341,342,-1,346,342,347,-1,256,257,312,-1,312,257,313,-1,312,313,338,-1,338,313,332,-1,338,332,328,-1,328,332,333,-1,328,333,318,-1,318,333,264,-1,265,253,320,-1,320,253,254,-1,320,254,255,-1,337,348,342,-1,342,348,349,-1,342,349,347,-1,347,349,350,-1,347,350,351,-1,255,312,320,-1,320,312,343,-1,320,343,321,-1,321,343,344,-1,321,344,322,-1,322,344,345,-1,322,345,323,-1,323,345,346,-1,323,346,324,-1,324,346,347,-1,324,347,325,-1,325,347,351,-1,325,351,326,-1,327,264,352,-1,353,252,354,-1,354,252,286,-1,354,286,355,-1,231,276,311,-1,311,276,326,-1,311,326,304,-1,304,326,351,-1,304,351,305,-1,305,351,350,-1,305,350,277,-1,277,350,349,-1,277,349,278,-1,278,349,348,-1,278,348,292,-1,292,348,337,-1,292,337,293,-1,293,337,336,-1,293,336,294,-1,294,336,335,-1,294,335,295,-1,295,335,334,-1,295,334,286,-1,286,334,327,-1,286,327,355,-1,355,327,352,-1,
        ]
    }
}
Shape{
    appearance Appearance {
        material  Material 	{
            diffuseColor 0.5019607843137255 0.5019607843137255 0.5019607843137255
            specularColor 0.25098039215686274 0.25098039215686274 0.25098039215686274
            ambientIntensity 0.502
            transparency 0.0
            shininess 0.5
        }
    }
    geometry IndexedFaceSet {
        ccw TRUE
        solid FALSE
        coord DEF co Coordinate {
            point [
                -0.3001 0.2687 0.3858, -0.3001 0.2726 0.3854, -0.3001 -0.2687 0.3858, -0.3001 -0.2726 0.3854, -0.3794 -0.2687 0.3858, -0.3794 -0.2726 0.3854, -0.3794 0.2687 0.3858, -0.3794 0.2726 0.3854
            ]
        }
        coordIndex [
            0,1,2,-1,2,1,3,-1,4,5,6,-1,6,5,7,-1,3,1,5,-1,5,1,7,-1,
        ]
    }
}