#VRML V2.0 utf8
# 3D model generated by easyeda2kicad.py (https://github.com/uPesy/easyeda2kicad.py)

Shape{
    appearance Appearance {
        material  Material 	{
            diffuseColor 0.7529411764705882 0.7529411764705882 0.7529411764705882
            specularColor 0.3764705882352941 0.3764705882352941 0.3764705882352941
            ambientIntensity 0.7529
            transparency 0.0
            shininess 0.5
        }
    }
    geometry IndexedFaceSet {
        ccw TRUE
        solid FALSE
        coord DEF co Coordinate {
            point [
                1.5748 -0.7516 3.2677, 1.9685 -0.7516 3.2677, 1.5748 -0.1736 2.4706, 1.9685 -0.3839 2.7607, 3.937 -0.1736 2.4706, 3.0709 -0.3839 2.7607, 3.0709 -0.666 3.1496, 3.5433 -0.666 3.1496, 3.937 -0.6945 3.189, 3.5433 -0.7516 3.2677, 3.8583 -0.7516 3.2677, 3.933 -0.7125 3.2137, 3.9224 -0.7277 3.2347, 3.875 -0.7503 3.2659, 3.8916 -0.7462 3.2603, 3.9078 -0.7389 3.2502, 0.7675 -3.6738 3.2677, 3.0709 -3.1496 3.2677, 1.9685 -3.1496 3.2677, -1.5748 -0.7516 3.2677, -1.9685 -0.7516 3.2677, -1.5748 -3.0892 3.2677, -1.9685 -3.1496 3.2677, -3.5433 -0.7516 3.2677, -3.8583 -0.7516 3.2677, -3.5433 -3.0038 3.2677, -3.8583 -3.9764 3.2677, -3.0709 -3.0038 3.2677, -1.811 -3.9764 3.2677, -3.0709 -3.1496 3.2677, 1.7237 -4.6851 3.2677, 1.811 -4.6851 3.2677, 1.811 -3.9764 3.2677, 1.5748 -3.0892 3.2677, -0.4748 -3.6738 3.2677, -0.4748 -4.3069 3.2677, -1.7237 -4.6851 3.2677, 3.8583 -3.9764 3.2677, 3.5433 -3.0038 3.2677, -1.811 -4.6851 3.2677, 3.0709 -3.0038 3.2677, 0.7675 -4.3069 3.2677, -3.5433 -0.666 3.1496, -1.9685 -0.3839 2.7607, -1.5748 -0.1736 2.4706, -3.0709 -0.3839 2.7607, -3.937 -0.1736 2.4706, -3.0709 -0.666 3.1496, -3.937 -0.6945 3.189, -3.933 -0.7125 3.2137, -3.9224 -0.7277 3.2347, -3.9078 -0.7389 3.2502, -3.8916 -0.7462 3.2603, -3.875 -0.7503 3.2659, -3.5433 -3.0038 3.1496, -3.0709 -3.0038 3.1496, 3.0709 -3.0038 3.1496, 3.5433 -3.0038 3.1496, 3.6811 -3.8977 1.681, 3.6811 -3.8977 2.5028, 3.6811 -0.8268 1.681, 3.6811 -0.8268 2.5028, -3.6811 -0.8268 0.7869, -3.6811 -3.8977 0.7869, -3.6811 -0.8268 0.4299, -3.6811 -3.8977 0.2362, -3.6811 -0.8268 0.2362, 3.7598 -3.9764 2.5815, 3.7598 -3.9764 1.681, -3.7599 -3.9764 0.1575, -3.7599 -3.9764 0.7869, -1.4097 -4.8032 2.5871, -1.7237 -4.6851 2.5245, -1.378 -4.4438 2.3964, -1.378 -3.9764 2.1484, -1.811 -3.9764 2.1484, -1.811 -4.6851 2.5245, 1.811 -3.9764 2.1484, 1.811 -4.6851 2.5245, 1.7237 -4.6851 2.5245, 1.4097 -4.8032 2.5871, 1.3779 -4.4438 2.3964, 1.3779 -3.9764 2.1484, 1.5853 -3.9764 2.1222, 1.5853 -3.9764 2.079, 1.8701 -3.9764 2.079, 3.8346 -3.9764 1.681, 3.9139 -3.9764 3.2447, 3.8884 -3.9764 3.2617, 1.3779 -3.9764 2.1222, 1.8701 -3.9764 2.5815, 3.8583 -3.9764 0.0, 3.8976 -3.9764 0.0106, 3.7598 -3.9764 0.1575, -3.931 -3.9764 3.2191, -3.937 -3.9764 3.189, -3.7599 -3.9764 2.4727, 3.8346 -3.9764 0.7869, 3.937 -3.9764 0.0787, 3.937 -3.9764 3.189, 3.931 -3.9764 3.2191, -3.937 -3.9764 0.0787, -3.9265 -3.9764 0.0394, -3.8976 -3.9764 0.0106, 3.7598 -3.9764 0.7869, 3.9264 -3.9764 0.0394, -3.8347 -3.9764 0.7869, -3.8583 -3.9764 0.0, -3.8347 -3.9764 1.681, -1.378 -3.9764 2.1222, -1.6631 -3.9764 2.1222, -1.6631 -3.9764 2.079, -3.7599 -3.9764 1.681, 0.0675 -3.9764 0.0, 0.8974 -3.9764 0.0654, -0.1243 -3.9764 0.0, -1.0731 -3.9764 0.0654, -0.5063 -3.9764 0.0, -3.5532 -3.9764 0.0, -2.7559 -3.9764 0.0, -1.0731 -3.9764 0.1575, -1.9685 -3.9764 0.0, -1.1811 -3.9764 0.0, -1.8701 -3.9764 2.4727, -1.8701 -3.9764 2.079, 0.1473 -3.9764 0.0, 0.2164 -3.9764 0.0, 0.4397 -3.9764 0.0, -3.8884 -3.9764 3.2617, -3.914 -3.9764 3.2447, 0.6167 -3.9764 0.0, 1.1811 -3.9764 0.0, 0.8974 -3.9764 0.1575, 1.9685 -3.9764 0.0, 2.7559 -3.9764 0.0, 1.1811 -0.8268 2.1222, 1.5853 -0.8268 2.1222, 1.3779 -2.6009 2.1222, -1.378 -2.6009 2.1222, -1.6631 -0.8268 2.1222, -1.1811 -0.8268 2.1222, -0.3937 -0.8268 2.1222, 0.3937 -0.8268 2.1222, -1.9488 -0.8268 2.079, -1.6631 -0.8268 2.079, -1.9488 -3.8977 2.079, -3.5413 -0.8268 0.2362, -1.0731 -0.8268 0.2362, -1.1811 -0.8268 0.2362, -1.0731 -3.8977 0.2362, -1.9685 -0.8268 0.2362, -2.7559 -0.8268 0.2362, -2.7559 -1.437 0.0, -3.5532 -1.437 0.0, -3.5532 -0.8624 0.0, -0.2328 -1.2377 0.0, -0.3237 -1.4345 0.0, -0.5063 -1.437 0.0, -3.8583 -1.437 0.0, -0.1243 -1.437 0.0, -2.2638 0.2952 0.0, -2.2638 0.3149 0.0, -1.9685 0.3149 0.0, -1.4764 0.2952 0.0, -1.4764 0.3149 0.0, -1.1811 0.3149 0.0, -0.689 0.2952 0.0, -0.689 0.3149 0.0, -0.5063 0.3149 0.0, 0.8858 0.2952 0.0, 0.8858 0.3149 0.0, 1.1811 0.3149 0.0, 1.6732 0.2952 0.0, 1.6732 0.3149 0.0, 1.9685 0.3149 0.0, 2.4606 0.2952 0.0, 2.4606 0.3149 0.0, 2.7559 0.3149 0.0, 0.1962 -1.2377 0.0, 0.2164 -1.437 0.0, 0.1962 -1.4345 0.0, 0.1473 -1.437 0.0, 0.1473 -1.4345 0.0, 0.0852 -1.2579 0.0, 0.0675 -1.437 0.0, 0.0852 -1.2377 0.0, 0.0675 -0.8624 0.0, 0.1473 -1.2377 0.0, 0.1473 -0.8624 0.0, 0.2164 -0.8624 0.0, 0.0852 -1.4345 0.0, 0.0852 -1.4143 0.0, 0.1785 -1.3386 0.0, 0.1785 -1.4143 0.0, 0.1473 -1.3386 0.0, 0.1473 -1.4143 0.0, 0.0852 -1.3386 0.0, 0.0852 -1.3184 0.0, 0.1473 -1.3184 0.0, 0.1473 -1.2579 0.0, 0.1785 -1.3184 0.0, 0.1785 -1.2579 0.0, 3.0512 0.3149 0.0, 3.0512 0.2952 0.0, 3.0512 -0.2953 0.0, 3.0512 -0.4922 0.0, 2.7559 -0.8624 0.0, 3.5433 0.9055 0.0, 3.8583 0.9055 0.0, 3.5433 0.3149 0.0, 3.8583 -0.8624 0.0, 3.248 -0.4922 0.0, 3.248 -0.2953 0.0, 2.2638 0.3149 0.0, 2.2638 0.2952 0.0, 2.2638 -0.2953 0.0, 2.2638 -0.4922 0.0, 1.9685 -0.8624 0.0, 2.4606 -0.4922 0.0, 2.4606 -0.2953 0.0, 1.4764 0.3149 0.0, 1.4764 0.2952 0.0, 1.4764 -0.2953 0.0, 1.4764 -0.4922 0.0, 1.1811 -0.8624 0.0, 1.6732 -0.4922 0.0, 1.6732 -0.2953 0.0, 0.689 -0.2953 0.0, 0.689 -0.4922 0.0, 0.6167 -0.8624 0.0, 0.8858 -0.4922 0.0, 0.8858 -0.2953 0.0, 0.6167 0.3149 0.0, 0.689 0.3149 0.0, 0.689 0.2952 0.0, 0.0984 -0.4922 0.0, 0.0984 -0.2953 0.0, 0.1473 0.3149 0.0, 0.2164 0.3149 0.0, 0.4397 -0.8624 0.0, 0.4397 0.3149 0.0, 3.248 0.2952 0.0, 3.248 0.3149 0.0, -0.1243 0.3149 0.0, -0.0984 0.3149 0.0, -0.0984 0.2952 0.0, 0.0675 -0.4922 0.0, -0.0984 -0.4922 0.0, -0.1243 -0.8624 0.0, -0.0984 -0.2953 0.0, -0.8858 0.3149 0.0, -0.8858 0.2952 0.0, -0.8858 -0.2953 0.0, -0.8858 -0.4922 0.0, -1.1811 -0.8624 0.0, -0.5063 -0.8624 0.0, -0.689 -0.4922 0.0, -0.689 -0.2953 0.0, -1.6732 0.3149 0.0, -1.6732 0.2952 0.0, -1.6732 -0.2953 0.0, -1.6732 -0.4922 0.0, -1.9685 -0.8624 0.0, -1.4764 -0.4922 0.0, -1.4764 -0.2953 0.0, -2.7559 0.3149 0.0, -2.4606 0.3149 0.0, -2.4606 0.2952 0.0, -2.4606 -0.2953 0.0, -2.4606 -0.4922 0.0, -2.7559 -0.8624 0.0, -2.2638 -0.4922 0.0, -2.2638 -0.2953 0.0, 0.0984 0.3149 0.0, 0.0984 0.2952 0.0, 0.0675 0.2952 0.0, 0.0675 -0.2953 0.0, -3.5532 0.9055 0.0, -3.5433 0.3149 0.0, -3.5433 0.9055 0.0, -3.248 -0.4922 0.0, -3.0512 -0.4922 0.0, -3.0512 -0.2953 0.0, -3.248 0.3149 0.0, -3.248 0.2952 0.0, 0.2743 -1.4293 0.0, 0.2967 -1.4369 0.0, 0.4397 -1.437 0.0, 0.4224 -1.3724 0.0, 0.4284 -1.3349 0.0, 0.2744 -1.2427 0.0, 0.2543 -1.2552 0.0, 0.2428 -1.2661 0.0, 0.2366 -1.2738 0.0, 0.3672 -1.2636 0.0, 0.3977 -1.2911 0.0, 0.3236 -1.2528 0.0, 0.4104 -1.3284 0.0, 0.4107 -1.3363 0.0, 0.4005 -1.3769 0.0, 0.3734 -1.4053 0.0, 0.3347 -1.4187 0.0, 0.3363 -1.437 0.0, 0.3668 -1.4316 0.0, 0.386 -1.4211 0.0, 0.4157 -1.2847 0.0, 0.382 -1.2492 0.0, 0.3312 -1.2329 0.0, 0.3225 -1.2326 0.0, 0.2366 -1.3983 0.0, 0.252 -1.3866 0.0, 0.252 -1.2856 0.0, 0.2834 -1.411 0.0, 0.2839 -1.2609 0.0, 0.3223 -1.4194 0.0, 0.3025 -1.2549 0.0, 0.3154 -1.2531 0.0, 0.3972 -1.4118 0.0, 0.4034 -1.4051 0.0, 0.3222 -1.4396 0.0, 0.3124 -1.4392 0.0, 0.2974 -1.437 0.0, 3.8583 -1.437 0.0, 2.7559 -1.437 0.0, 1.9685 -1.437 0.0, 1.1811 -1.437 0.0, 0.6167 -1.437 0.0, -1.1811 -1.437 0.0, -1.9685 -1.437 0.0, 0.4511 -1.4143 0.0, 0.4511 -1.4345 0.0, 0.5445 -1.4345 0.0, 0.5445 -1.2377 0.0, 0.5268 -1.4143 0.0, 0.5268 -1.2377 0.0, -0.0524 -1.2448 0.0, -0.0879 -1.2686 0.0, -0.0721 -1.4207 0.0, -0.0324 -1.4334 0.0, -0.108 -1.3076 0.0, -0.1117 -1.3386 0.0, -0.1006 -1.3881 0.0, -0.0112 -1.4345 0.0, 0.0498 -1.4345 0.0, 0.0498 -1.2377 0.0, 0.0101 -1.2377 0.0, -0.0215 -1.2389 0.0, -0.3045 -1.4345 0.0, -0.2754 -1.3714 0.0, -0.1861 -1.3714 0.0, -0.1562 -1.4345 0.0, -0.1369 -1.4345 0.0, -0.2303 -1.2377 0.0, -3.248 -0.2953 0.0, -3.0512 0.2952 0.0, -3.0512 0.3149 0.0, -3.8583 -0.8624 0.0, -3.8583 0.9055 0.0, 0.3937 -0.8268 0.1442, 0.3937 -0.8268 0.4299, -0.3937 -0.8268 0.4299, -1.0731 -0.8268 0.1442, -0.3937 -0.8268 0.1442, 3.6811 -0.8268 0.7869, 3.8346 -0.8268 0.7869, 3.8346 -0.8268 1.2078, 1.5853 -0.8268 2.079, -1.9488 -0.8268 2.394, -1.9685 -0.8268 2.394, -1.9685 -0.8268 1.2078, -1.4764 -0.8268 1.6999, -1.1811 -0.8268 1.2078, -1.4764 -0.8268 1.5031, -1.6732 -0.8268 1.5031, -1.6732 -0.8268 1.6999, -0.8858 -0.8268 1.5031, -0.689 -0.8268 1.5031, -0.3937 -0.8268 1.2078, -0.689 -0.8268 1.6999, -0.8858 -0.8268 1.6999, -0.0984 -0.8268 1.5031, 0.0984 -0.8268 1.5031, 0.3937 -0.8268 1.2078, 0.0984 -0.8268 1.6999, -0.0984 -0.8268 1.6999, 0.689 -0.8268 1.6999, 0.689 -0.8268 1.5031, 0.8858 -0.8268 1.5031, 1.1811 -0.8268 1.2078, 0.8858 -0.8268 1.6999, 1.9685 -0.8268 2.5028, 1.9488 -0.8268 2.5028, 1.9488 -0.8268 2.079, 1.9685 -0.8268 1.2078, 1.6732 -0.8268 1.5031, 1.4764 -0.8268 1.5031, 1.4764 -0.8268 1.6999, 1.6732 -0.8268 1.6999, 3.8346 -0.8268 1.681, 2.7559 -0.8268 1.2078, 3.0512 -0.8268 1.6999, 2.7559 -0.8268 2.5028, 3.0512 -0.8268 1.5031, 3.248 -0.8268 1.5031, 3.248 -0.8268 1.6999, 3.6811 -0.8268 0.4299, 3.248 -0.8268 0.9125, 3.0512 -0.8268 0.9125, 3.0512 -0.8268 0.7157, 2.7559 -0.8268 0.4299, 3.248 -0.8268 0.7157, 1.1811 -0.8268 0.4299, 1.9685 -0.8268 0.2362, 1.9685 -0.8268 0.4299, 2.7559 -0.8268 0.2362, 3.6811 -0.8268 0.2362, 0.8974 -0.8268 0.1442, 0.8974 -0.8268 0.2362, 1.1811 -0.8268 0.2362, -3.5413 -0.8268 0.4299, -3.5413 -0.8268 1.2078, -3.8347 -0.8268 0.7869, -3.5413 -0.8268 2.394, -3.6811 -0.8268 1.681, -3.6811 -0.8268 2.394, -3.8347 -0.8268 1.2078, -3.8347 -0.8268 1.681, -3.248 -0.8268 1.5031, -3.0512 -0.8268 1.5031, -2.7559 -0.8268 1.2078, -3.0512 -0.8268 1.6999, -2.7559 -0.8268 2.394, -3.248 -0.8268 1.6999, -2.4606 -0.8268 1.5031, -2.2638 -0.8268 1.5031, -2.2638 -0.8268 1.6999, -2.4606 -0.8268 1.6999, 2.2638 -0.8268 1.5031, 2.4606 -0.8268 1.5031, 2.4606 -0.8268 1.6999, 2.2638 -0.8268 1.6999, 2.2638 -0.8268 0.7157, 2.4606 -0.8268 0.7157, 2.4606 -0.8268 0.9125, 2.2638 -0.8268 0.9125, 1.4764 -0.8268 0.7157, 1.6732 -0.8268 0.7157, 1.6732 -0.8268 0.9125, 1.4764 -0.8268 0.9125, 0.689 -0.8268 0.7157, 0.8858 -0.8268 0.7157, 0.8858 -0.8268 0.9125, 0.689 -0.8268 0.9125, -0.0984 -0.8268 0.7157, 0.0984 -0.8268 0.7157, 0.0984 -0.8268 0.9125, -0.0984 -0.8268 0.9125, -0.8858 -0.8268 0.7157, -1.1811 -0.8268 0.4299, -0.689 -0.8268 0.7157, -0.689 -0.8268 0.9125, -0.8858 -0.8268 0.9125, -1.6732 -0.8268 0.7157, -1.9685 -0.8268 0.4299, -1.4764 -0.8268 0.7157, -1.4764 -0.8268 0.9125, -1.6732 -0.8268 0.9125, -2.4606 -0.8268 0.7157, -2.7559 -0.8268 0.4299, -2.2638 -0.8268 0.7157, -2.2638 -0.8268 0.9125, -2.4606 -0.8268 0.9125, -3.248 -0.8268 0.7157, -3.0512 -0.8268 0.7157, -3.0512 -0.8268 0.9125, -3.248 -0.8268 0.9125, -3.0512 0.1181 1.5021, -3.0512 0.1181 1.6999, -2.7559 0.1181 1.8413, 3.248 0.1181 1.5021, 3.5433 0.1181 1.4575, 3.0512 0.1181 1.5021, 2.7559 0.1181 1.4575, 3.0512 0.1181 1.6999, 2.7559 0.1181 1.8413, 3.248 0.1181 1.6999, 3.5433 0.1181 1.8413, 2.4606 0.1181 1.5021, 2.2638 0.1181 1.5021, 1.9685 0.1181 1.4575, 2.2638 0.1181 1.6999, 1.9685 0.1181 1.8413, 2.4606 0.1181 1.6999, 1.6732 0.1181 1.5021, 1.4764 0.1181 1.5021, 1.1811 0.1181 1.4575, 1.4764 0.1181 1.6999, 1.1811 0.1181 1.8413, 1.6732 0.1181 1.6999, 0.8858 0.1181 1.5021, 0.689 0.1181 1.5021, 0.3937 0.1181 1.4575, 0.689 0.1181 1.6999, 0.3937 0.1181 1.8413, 0.8858 0.1181 1.6999, 0.0984 0.1181 1.5021, -0.0984 0.1181 1.5021, -0.3937 0.1181 1.4575, -0.0984 0.1181 1.6999, -0.3937 0.1181 1.8413, 0.0984 0.1181 1.6999, -0.689 0.1181 1.5021, -0.8858 0.1181 1.5021, -1.1811 0.1181 1.4575, -0.8858 0.1181 1.6999, -1.1811 0.1181 1.8413, -0.689 0.1181 1.6999, -1.4764 0.1181 1.5021, -1.6732 0.1181 1.5021, -1.9685 0.1181 1.4575, -1.6732 0.1181 1.6999, -1.9685 0.1181 1.8413, -1.4764 0.1181 1.6999, -2.2638 0.1181 1.6999, -2.2638 0.1181 1.5021, -2.4606 0.1181 1.5021, -2.7559 0.1181 1.4575, -2.4606 0.1181 1.6999, -3.3957 0.1181 1.8413, -3.248 0.1181 1.6999, -3.248 0.1181 1.5021, -3.3957 0.1181 1.4575, -3.5433 0.1181 1.8413, -3.5433 0.1181 1.4575, 3.5433 0.1181 1.4129, 2.7559 0.1181 1.4129, 1.9685 0.1181 1.4129, 1.1811 0.1181 1.4129, 0.3937 0.1181 1.4129, -0.3937 0.1181 1.4129, -1.1811 0.1181 1.4129, -1.9685 0.1181 1.4129, -2.7559 0.1181 1.4129, -3.3957 0.1181 1.4129, -3.5433 0.1181 1.4129, 2.2638 0.2952 0.3637, 2.2638 0.3149 0.3637, 1.6732 0.3149 0.3637, -3.248 0.3149 0.3637, -3.5433 0.3149 0.3637, -3.248 0.2952 0.3637, -3.5433 0.1181 0.3637, -3.0512 0.2952 0.3637, 3.5433 0.1181 0.3637, 0.689 0.2952 0.3637, 0.689 0.3149 0.3637, 0.0984 0.3149 0.3637, -0.8858 0.2952 0.3637, -0.8858 0.3149 0.3637, -1.4764 0.3149 0.3637, -2.4606 0.2952 0.3637, -2.4606 0.3149 0.3637, -3.0512 0.3149 0.3637, 3.5433 0.3149 0.3637, 3.248 0.3149 0.3637, 3.248 0.2952 0.3637, 3.0512 0.2952 0.3637, 1.6732 0.2952 0.3637, 1.4764 0.2952 0.3637, 2.4606 0.2952 0.3637, 2.4606 0.3149 0.3637, 3.0512 0.3149 0.3637, 0.0984 0.2952 0.3637, -0.0984 0.2952 0.3637, 0.8858 0.2952 0.3637, 0.8858 0.3149 0.3637, 1.4764 0.3149 0.3637, -1.4764 0.2952 0.3637, -1.6732 0.2952 0.3637, -0.689 0.2952 0.3637, -0.689 0.3149 0.3637, -0.0984 0.3149 0.3637, -2.2638 0.2952 0.3637, -2.2638 0.3149 0.3637, -1.6732 0.3149 0.3637, 3.5433 0.7874 1.4129, 3.3464 0.7874 1.4129, 3.248 0.3149 1.4129, 3.248 0.2638 1.4129, -3.3465 0.7874 1.4129, -3.5433 0.7874 1.4129, -3.248 0.3149 1.4129, -3.248 0.2638 1.4129, -3.0512 0.2638 1.4129, 3.0512 0.2638 1.4129, 3.0512 0.3149 1.4129, 2.4606 0.2638 1.4129, 2.4606 0.3149 1.4129, 2.9527 0.7874 1.4129, 2.559 0.7874 1.4129, 1.6732 0.2638 1.4129, 2.2638 0.2638 1.4129, 2.2638 0.3149 1.4129, 1.6732 0.3149 1.4129, 2.1653 0.7874 1.4129, 1.7716 0.7874 1.4129, 1.4764 0.2638 1.4129, 1.4764 0.3149 1.4129, 0.8858 0.2638 1.4129, 0.8858 0.3149 1.4129, 1.3779 0.7874 1.4129, 0.9842 0.7874 1.4129, 0.0984 0.3149 1.4129, 0.0984 0.2638 1.4129, 0.5905 0.7874 1.4129, 0.1968 0.7874 1.4129, 0.689 0.3149 1.4129, 0.689 0.2638 1.4129, -0.0984 0.2638 1.4129, -0.0984 0.3149 1.4129, -0.689 0.2638 1.4129, -0.689 0.3149 1.4129, -0.1969 0.7874 1.4129, -0.5906 0.7874 1.4129, -1.4764 0.2638 1.4129, -0.8858 0.2638 1.4129, -0.8858 0.3149 1.4129, -1.4764 0.3149 1.4129, -0.9843 0.7874 1.4129, -1.378 0.7874 1.4129, -1.6732 0.2638 1.4129, -1.6732 0.3149 1.4129, -2.2638 0.2638 1.4129, -2.2638 0.3149 1.4129, -1.7717 0.7874 1.4129, -2.1654 0.7874 1.4129, -2.4606 0.2638 1.4129, -2.4606 0.3149 1.4129, -3.0512 0.3149 1.4129, -2.5591 0.7874 1.4129, -2.9528 0.7874 1.4129, -3.5433 0.7874 1.0859, -3.3465 0.7874 1.0859, -3.248 0.3149 1.0859, -3.5433 0.1181 1.0859, -3.248 0.2952 1.0859, -3.0512 0.2952 1.0859, -1.4764 0.2952 1.0859, -1.4764 0.3149 1.0859, -1.378 0.7874 1.0859, -2.1654 0.7874 1.0859, -1.7717 0.7874 1.0859, -2.2638 0.3149 1.0859, -1.6732 0.3149 1.0859, -2.2638 0.2952 1.0859, -1.6732 0.2952 1.0859, -0.689 0.2952 1.0859, 3.5433 0.1181 1.0859, -0.8858 0.2952 1.0859, -0.8858 0.3149 1.0859, -0.9843 0.7874 1.0859, -2.9528 0.7874 1.0859, -2.5591 0.7874 1.0859, -3.0512 0.3149 1.0859, -2.4606 0.3149 1.0859, -2.4606 0.2952 1.0859, 0.689 0.2952 1.0859, 0.8858 0.2952 1.0859, -0.5906 0.7874 1.0859, -0.1969 0.7874 1.0859, -0.689 0.3149 1.0859, -0.0984 0.3149 1.0859, -0.0984 0.2952 1.0859, 0.0984 0.2952 1.0859, 0.0984 0.3149 1.0859, 0.689 0.3149 1.0859, 0.1968 0.7874 1.0859, 0.5905 0.7874 1.0859, 0.9842 0.7874 1.0859, 1.3779 0.7874 1.0859, 0.8858 0.3149 1.0859, 1.4764 0.3149 1.0859, 1.4764 0.2952 1.0859, 1.6732 0.2952 1.0859, 2.2638 0.2952 1.0859, 1.6732 0.3149 1.0859, 2.2638 0.3149 1.0859, 1.7716 0.7874 1.0859, 2.1653 0.7874 1.0859, 2.559 0.7874 1.0859, 2.9527 0.7874 1.0859, 3.0512 0.3149 1.0859, 2.4606 0.3149 1.0859, 3.0512 0.2952 1.0859, 2.4606 0.2952 1.0859, 3.3464 0.7874 1.0859, 3.5433 0.7874 1.0859, 3.248 0.3149 1.0859, 3.248 0.2952 1.0859, -3.5433 0.9055 2.0769, -3.5433 0.5118 2.4706, -3.5433 0.3149 2.4706, -3.5433 0.3149 1.8413, -3.5433 0.7086 2.4178, -3.5433 0.8527 2.2737, 3.5433 0.3149 1.8413, 3.5433 0.9055 2.0769, 3.5433 0.3149 2.4706, 3.5433 0.5118 2.4706, 3.5433 0.7086 2.4178, 3.5433 0.8527 2.2737, -3.8976 0.9055 0.0106, -3.937 0.9055 2.0769, -3.937 0.9055 0.0787, -3.9265 0.9055 0.0394, -3.937 0.5118 2.4706, -3.937 0.7086 2.4178, -3.937 0.8527 2.2737, 3.937 0.9055 0.0787, 3.937 0.9055 2.0769, 3.937 0.5118 2.4706, 3.937 0.7086 2.4178, 3.937 0.8527 2.2737, 3.9264 0.9055 0.0394, 3.8976 0.9055 0.0106, -1.4097 -4.8032 3.1496, 1.4097 -4.8032 3.1496, 1.5748 -2.5694 2.4706, -1.5748 -2.5694 2.4706, -1.9488 -3.8977 2.394, -3.6811 -3.8977 2.394, 1.9488 -3.8977 2.079, 1.9488 -3.8977 2.5028, 3.6811 -3.8977 0.2362, 3.6811 -3.8977 0.7869, 0.8974 -3.8977 0.2362, -3.6811 -3.8977 1.681
            ]
        }
        coordIndex [
            0,1,2,-1,2,1,3,-1,2,3,4,-1,4,3,5,-1,5,6,4,-1,4,6,7,-1,4,7,8,-1,7,9,8,-1,8,9,10,-1,8,10,11,-1,11,10,12,-1,13,14,10,-1,10,14,15,-1,10,15,12,-1,16,17,18,-1,19,20,21,-1,21,20,22,-1,23,24,25,-1,25,24,26,-1,25,26,27,-1,28,22,26,-1,26,22,29,-1,26,29,27,-1,30,31,32,-1,1,0,18,-1,18,0,33,-1,18,33,16,-1,16,33,34,-1,35,36,30,-1,37,10,38,-1,38,10,9,-1,33,21,34,-1,34,21,22,-1,34,22,35,-1,35,22,28,-1,35,28,36,-1,36,28,39,-1,38,40,37,-1,37,40,17,-1,37,17,32,-1,32,17,16,-1,32,16,30,-1,30,16,41,-1,30,41,35,-1,24,23,42,-1,20,19,43,-1,43,19,44,-1,43,44,45,-1,45,44,46,-1,45,46,47,-1,47,46,42,-1,42,46,48,-1,42,48,24,-1,24,48,49,-1,24,49,50,-1,50,51,24,-1,24,51,52,-1,24,52,53,-1,42,54,47,-1,47,54,55,-1,54,25,55,-1,55,25,27,-1,56,57,6,-1,6,57,7,-1,38,57,40,-1,40,57,56,-1,58,59,60,-1,60,59,61,-1,62,63,64,-1,64,63,65,-1,64,65,66,-1,67,59,68,-1,68,59,58,-1,69,65,70,-1,70,65,63,-1,71,72,73,-1,74,73,75,-1,75,73,72,-1,75,72,76,-1,77,78,79,-1,71,73,80,-1,80,73,81,-1,80,81,79,-1,79,81,82,-1,79,82,77,-1,83,84,85,-1,67,68,86,-1,87,88,37,-1,82,89,83,-1,82,83,77,-1,77,83,85,-1,77,85,90,-1,91,92,93,-1,94,95,96,-1,97,98,86,-1,86,98,99,-1,86,99,67,-1,67,99,100,-1,101,102,103,-1,97,104,98,-1,98,104,93,-1,98,93,105,-1,105,93,92,-1,69,70,106,-1,100,87,67,-1,67,87,37,-1,67,37,90,-1,90,37,32,-1,90,32,77,-1,69,103,107,-1,103,69,101,-1,101,69,106,-1,101,106,108,-1,109,74,110,-1,110,74,75,-1,110,75,111,-1,112,96,108,-1,108,96,95,-1,108,95,101,-1,113,114,115,-1,115,114,116,-1,115,116,117,-1,107,118,69,-1,69,118,119,-1,69,119,120,-1,120,119,121,-1,120,121,116,-1,116,121,122,-1,116,122,117,-1,26,96,28,-1,28,96,123,-1,28,123,75,-1,75,123,124,-1,75,124,111,-1,113,125,114,-1,114,125,126,-1,114,126,127,-1,26,128,96,-1,96,128,129,-1,96,129,94,-1,127,130,114,-1,114,130,131,-1,114,131,132,-1,132,131,133,-1,132,133,93,-1,93,133,134,-1,93,134,91,-1,135,136,137,-1,137,136,83,-1,137,83,89,-1,109,110,138,-1,138,110,139,-1,139,140,138,-1,138,140,141,-1,138,141,137,-1,137,141,142,-1,137,142,135,-1,143,144,145,-1,145,144,111,-1,145,111,124,-1,146,66,65,-1,147,148,149,-1,149,148,150,-1,149,150,65,-1,65,150,151,-1,65,151,146,-1,152,153,154,-1,155,156,157,-1,118,107,158,-1,115,117,157,-1,113,115,159,-1,160,161,162,-1,163,164,165,-1,166,167,168,-1,169,170,171,-1,172,173,174,-1,175,176,177,-1,178,179,180,-1,180,179,181,-1,180,181,182,-1,183,184,185,-1,185,184,186,-1,185,186,187,-1,187,186,188,-1,187,188,178,-1,178,188,189,-1,178,189,179,-1,182,181,190,-1,190,181,184,-1,190,184,191,-1,192,193,194,-1,194,193,195,-1,194,195,196,-1,195,191,196,-1,196,191,184,-1,196,184,197,-1,197,184,183,-1,197,183,198,-1,198,183,199,-1,198,199,200,-1,200,199,201,-1,177,202,203,-1,204,205,206,-1,207,208,209,-1,209,208,210,-1,206,205,210,-1,210,205,211,-1,210,211,212,-1,174,213,214,-1,215,216,217,-1,217,216,206,-1,206,216,218,-1,206,218,219,-1,171,220,221,-1,222,223,224,-1,224,223,217,-1,217,223,225,-1,217,225,226,-1,227,228,229,-1,229,228,224,-1,224,228,230,-1,224,230,231,-1,232,233,234,-1,235,236,188,-1,188,236,237,-1,188,237,189,-1,189,237,238,-1,189,238,239,-1,239,238,240,-1,239,240,229,-1,229,240,232,-1,229,232,227,-1,227,232,234,-1,227,234,231,-1,231,234,169,-1,231,169,224,-1,224,169,171,-1,224,171,222,-1,222,171,221,-1,222,221,226,-1,226,221,172,-1,226,172,217,-1,217,172,174,-1,217,174,215,-1,215,174,214,-1,215,214,219,-1,219,214,175,-1,219,175,206,-1,206,175,177,-1,206,177,204,-1,204,177,203,-1,204,203,212,-1,212,203,241,-1,212,241,210,-1,210,241,242,-1,210,242,209,-1,243,244,245,-1,235,188,246,-1,246,188,186,-1,246,186,247,-1,247,186,248,-1,247,248,249,-1,165,250,251,-1,252,253,254,-1,254,253,255,-1,255,253,256,-1,255,256,257,-1,162,258,259,-1,260,261,262,-1,262,261,254,-1,254,261,263,-1,254,263,264,-1,265,266,267,-1,268,269,270,-1,270,269,262,-1,262,269,271,-1,262,271,272,-1,273,237,274,-1,274,237,236,-1,274,236,275,-1,275,236,276,-1,275,276,245,-1,245,276,249,-1,245,249,243,-1,243,249,248,-1,243,248,168,-1,168,248,255,-1,168,255,166,-1,166,255,257,-1,166,257,251,-1,251,257,252,-1,251,252,165,-1,165,252,254,-1,165,254,163,-1,163,254,264,-1,163,264,259,-1,259,264,260,-1,259,260,162,-1,162,260,262,-1,162,262,160,-1,160,262,272,-1,160,272,267,-1,267,272,268,-1,267,268,265,-1,154,277,278,-1,278,277,279,-1,280,281,270,-1,268,270,265,-1,265,270,281,-1,265,281,282,-1,278,283,284,-1,179,285,286,-1,287,288,289,-1,189,290,291,-1,291,292,189,-1,189,292,293,-1,189,293,179,-1,294,295,296,-1,296,295,297,-1,296,297,298,-1,298,299,296,-1,296,299,300,-1,296,300,301,-1,302,303,287,-1,287,303,304,-1,305,306,239,-1,239,306,307,-1,239,307,189,-1,189,307,308,-1,189,308,290,-1,285,179,309,-1,309,179,293,-1,309,293,310,-1,310,293,311,-1,310,311,312,-1,312,311,313,-1,312,313,314,-1,314,313,315,-1,314,315,301,-1,301,315,316,-1,301,316,296,-1,304,317,287,-1,287,317,318,-1,287,318,288,-1,319,127,320,-1,320,127,126,-1,320,126,321,-1,322,91,323,-1,323,91,134,-1,323,134,324,-1,324,134,133,-1,324,133,325,-1,319,302,127,-1,127,302,287,-1,127,287,130,-1,130,287,326,-1,130,326,131,-1,286,321,179,-1,179,321,126,-1,179,126,181,-1,181,126,125,-1,181,125,184,-1,157,117,327,-1,327,117,122,-1,327,122,328,-1,118,153,119,-1,119,153,152,-1,119,152,121,-1,210,322,206,-1,206,322,323,-1,206,323,217,-1,217,323,324,-1,217,324,224,-1,224,324,325,-1,224,325,229,-1,329,287,239,-1,239,287,289,-1,239,289,305,-1,329,330,287,-1,287,330,331,-1,287,331,326,-1,326,331,332,-1,333,329,334,-1,334,329,239,-1,334,239,332,-1,332,239,229,-1,332,229,326,-1,326,229,325,-1,326,325,131,-1,131,325,133,-1,335,336,248,-1,159,337,338,-1,336,339,248,-1,248,339,340,-1,248,340,159,-1,159,340,341,-1,159,341,337,-1,338,342,159,-1,159,342,184,-1,159,184,113,-1,113,184,125,-1,342,343,184,-1,184,343,344,-1,184,344,186,-1,186,344,345,-1,186,345,248,-1,248,345,346,-1,248,346,335,-1,115,157,159,-1,159,157,156,-1,159,156,347,-1,348,349,347,-1,347,349,350,-1,347,350,159,-1,159,350,351,-1,159,351,248,-1,248,351,352,-1,248,352,255,-1,352,155,255,-1,255,155,157,-1,255,157,254,-1,254,157,327,-1,254,327,262,-1,262,327,328,-1,262,328,270,-1,122,121,328,-1,328,121,152,-1,328,152,270,-1,270,152,154,-1,270,154,280,-1,280,154,278,-1,280,278,353,-1,353,278,284,-1,353,284,282,-1,282,284,354,-1,282,354,265,-1,265,354,355,-1,118,158,153,-1,153,158,356,-1,153,356,154,-1,154,356,357,-1,154,357,277,-1,358,359,360,-1,147,361,362,-1,363,364,365,-1,366,136,135,-1,367,368,143,-1,143,368,369,-1,139,144,140,-1,140,144,370,-1,140,370,371,-1,371,370,372,-1,371,372,369,-1,369,372,373,-1,369,373,143,-1,143,373,374,-1,143,374,144,-1,144,374,370,-1,375,371,376,-1,376,371,377,-1,376,377,378,-1,378,377,141,-1,378,141,379,-1,379,141,140,-1,379,140,375,-1,375,140,371,-1,380,377,381,-1,381,377,382,-1,381,382,383,-1,383,382,142,-1,383,142,384,-1,384,142,141,-1,384,141,380,-1,380,141,377,-1,135,142,385,-1,385,142,386,-1,386,142,382,-1,386,382,387,-1,387,382,388,-1,387,388,389,-1,390,391,392,-1,390,392,393,-1,393,392,394,-1,393,394,388,-1,388,394,395,-1,388,395,396,-1,385,389,135,-1,135,389,388,-1,135,388,366,-1,366,388,396,-1,366,396,392,-1,392,396,397,-1,392,397,394,-1,365,398,399,-1,399,398,60,-1,400,401,402,-1,402,401,399,-1,402,399,403,-1,403,399,60,-1,403,60,404,-1,404,60,61,-1,404,61,400,-1,400,61,401,-1,405,363,406,-1,406,363,365,-1,406,365,407,-1,407,365,399,-1,407,399,408,-1,408,399,409,-1,408,409,410,-1,410,409,405,-1,410,405,406,-1,411,412,413,-1,413,412,414,-1,413,414,409,-1,409,414,415,-1,409,415,405,-1,358,416,359,-1,359,416,417,-1,359,417,411,-1,411,417,418,-1,411,418,412,-1,64,66,146,-1,64,419,62,-1,62,419,420,-1,62,420,421,-1,420,422,423,-1,423,422,424,-1,421,420,425,-1,425,420,423,-1,425,423,426,-1,427,420,428,-1,428,420,429,-1,428,429,430,-1,430,429,431,-1,430,431,432,-1,432,431,422,-1,432,422,427,-1,427,422,420,-1,433,429,434,-1,434,429,369,-1,434,369,435,-1,435,369,368,-1,435,368,436,-1,436,368,431,-1,436,431,433,-1,433,431,429,-1,437,393,438,-1,438,393,399,-1,438,399,439,-1,439,399,401,-1,439,401,440,-1,440,401,390,-1,440,390,437,-1,437,390,393,-1,441,413,442,-1,442,413,409,-1,442,409,443,-1,443,409,399,-1,443,399,444,-1,444,399,393,-1,444,393,441,-1,441,393,413,-1,445,411,446,-1,446,411,413,-1,446,413,447,-1,447,413,393,-1,447,393,448,-1,448,393,388,-1,448,388,445,-1,445,388,411,-1,449,359,450,-1,450,359,411,-1,450,411,451,-1,451,411,388,-1,451,388,452,-1,452,388,382,-1,452,382,449,-1,449,382,359,-1,453,360,454,-1,454,360,359,-1,454,359,455,-1,455,359,382,-1,455,382,456,-1,456,382,377,-1,456,377,453,-1,453,377,360,-1,457,458,459,-1,459,458,360,-1,459,360,460,-1,460,360,377,-1,460,377,461,-1,461,377,371,-1,461,371,457,-1,457,371,458,-1,462,463,464,-1,464,463,458,-1,464,458,465,-1,465,458,371,-1,465,371,466,-1,466,371,369,-1,466,369,462,-1,462,369,463,-1,467,468,469,-1,469,468,463,-1,469,463,470,-1,470,463,369,-1,470,369,471,-1,471,369,429,-1,471,429,467,-1,467,429,468,-1,472,419,473,-1,473,419,468,-1,473,468,474,-1,474,468,429,-1,474,429,475,-1,475,429,420,-1,475,420,472,-1,472,420,419,-1,64,146,419,-1,419,146,151,-1,419,151,468,-1,468,151,150,-1,468,150,463,-1,463,150,148,-1,463,148,458,-1,458,148,147,-1,458,147,360,-1,360,147,362,-1,360,362,358,-1,476,477,478,-1,479,480,481,-1,481,480,482,-1,481,482,483,-1,483,482,484,-1,483,484,485,-1,485,484,486,-1,485,486,479,-1,479,486,480,-1,487,482,488,-1,488,482,489,-1,488,489,490,-1,490,489,491,-1,490,491,492,-1,492,491,484,-1,492,484,487,-1,487,484,482,-1,493,489,494,-1,494,489,495,-1,494,495,496,-1,496,495,497,-1,496,497,498,-1,498,497,491,-1,498,491,493,-1,493,491,489,-1,499,495,500,-1,500,495,501,-1,500,501,502,-1,502,501,503,-1,502,503,504,-1,504,503,497,-1,504,497,499,-1,499,497,495,-1,505,501,506,-1,506,501,507,-1,506,507,508,-1,508,507,509,-1,508,509,510,-1,510,509,503,-1,510,503,505,-1,505,503,501,-1,511,507,512,-1,512,507,513,-1,512,513,514,-1,514,513,515,-1,514,515,516,-1,516,515,509,-1,516,509,511,-1,511,509,507,-1,517,513,518,-1,518,513,519,-1,518,519,520,-1,520,519,521,-1,520,521,522,-1,522,521,515,-1,522,515,517,-1,517,515,513,-1,478,521,523,-1,523,521,524,-1,524,521,519,-1,524,519,525,-1,525,519,526,-1,525,526,527,-1,478,477,528,-1,529,530,531,-1,531,530,476,-1,531,476,526,-1,526,476,478,-1,526,478,527,-1,527,478,523,-1,477,529,528,-1,528,529,531,-1,528,531,532,-1,532,531,533,-1,480,534,482,-1,482,534,535,-1,482,535,489,-1,489,535,536,-1,489,536,495,-1,495,536,537,-1,495,537,501,-1,501,537,538,-1,501,538,507,-1,507,538,539,-1,507,539,513,-1,513,539,540,-1,513,540,519,-1,519,540,541,-1,519,541,526,-1,526,541,542,-1,526,542,531,-1,531,542,543,-1,531,543,533,-1,533,543,544,-1,545,546,547,-1,548,549,550,-1,550,549,551,-1,550,551,552,-1,552,551,553,-1,554,555,556,-1,557,558,559,-1,560,561,562,-1,563,564,553,-1,553,564,565,-1,553,565,566,-1,567,568,553,-1,547,567,545,-1,545,567,553,-1,545,553,569,-1,569,553,566,-1,569,566,570,-1,570,566,571,-1,572,573,553,-1,556,572,554,-1,554,572,553,-1,554,553,574,-1,574,553,568,-1,574,568,575,-1,575,568,576,-1,577,578,553,-1,559,577,557,-1,557,577,553,-1,557,553,579,-1,579,553,573,-1,579,573,580,-1,580,573,581,-1,562,552,560,-1,560,552,553,-1,560,553,582,-1,582,553,578,-1,582,578,583,-1,583,578,584,-1,585,586,587,-1,585,587,534,-1,534,587,588,-1,534,588,535,-1,589,590,591,-1,591,590,544,-1,591,544,592,-1,592,544,543,-1,592,543,593,-1,593,543,542,-1,594,595,596,-1,596,595,597,-1,597,595,598,-1,597,598,599,-1,537,536,600,-1,588,594,535,-1,535,594,596,-1,535,596,536,-1,536,596,601,-1,536,601,600,-1,600,601,602,-1,600,602,603,-1,603,602,604,-1,603,604,605,-1,606,607,608,-1,608,607,609,-1,609,607,610,-1,609,610,611,-1,612,613,538,-1,538,613,539,-1,614,615,616,-1,616,615,612,-1,616,612,617,-1,617,612,538,-1,617,538,608,-1,608,538,537,-1,608,537,606,-1,606,537,600,-1,618,619,620,-1,620,619,621,-1,621,619,622,-1,621,622,623,-1,541,540,624,-1,613,618,539,-1,539,618,620,-1,539,620,540,-1,540,620,625,-1,540,625,624,-1,624,625,626,-1,624,626,627,-1,627,626,628,-1,627,628,629,-1,630,631,632,-1,632,631,633,-1,633,631,634,-1,633,634,635,-1,624,630,541,-1,541,630,632,-1,541,632,542,-1,542,632,636,-1,542,636,593,-1,593,636,637,-1,593,637,638,-1,638,637,639,-1,638,639,640,-1,641,642,643,-1,641,643,644,-1,644,643,645,-1,644,645,646,-1,647,648,649,-1,650,651,652,-1,652,651,653,-1,652,653,654,-1,654,653,655,-1,656,657,658,-1,658,657,647,-1,658,647,659,-1,659,647,649,-1,659,649,660,-1,661,662,663,-1,663,662,664,-1,663,664,646,-1,646,664,665,-1,646,665,644,-1,644,665,654,-1,644,654,657,-1,657,654,655,-1,657,655,647,-1,666,667,657,-1,668,669,670,-1,670,669,671,-1,670,671,656,-1,656,671,672,-1,656,672,657,-1,657,672,673,-1,657,673,666,-1,666,673,674,-1,666,674,675,-1,675,674,676,-1,675,676,677,-1,678,679,680,-1,680,679,681,-1,680,681,667,-1,667,681,682,-1,667,682,657,-1,657,682,683,-1,684,685,686,-1,686,685,687,-1,686,687,688,-1,689,690,691,-1,689,691,692,-1,692,691,693,-1,692,693,694,-1,694,693,657,-1,694,657,684,-1,684,657,683,-1,684,683,685,-1,695,696,697,-1,697,696,657,-1,697,657,698,-1,698,657,693,-1,561,266,562,-1,562,266,265,-1,562,265,355,-1,584,258,583,-1,583,258,162,-1,583,162,161,-1,558,250,559,-1,559,250,165,-1,559,165,164,-1,167,580,168,-1,168,580,581,-1,168,581,243,-1,243,581,244,-1,237,273,556,-1,233,232,555,-1,555,232,240,-1,555,240,556,-1,556,240,238,-1,556,238,237,-1,170,575,171,-1,171,575,576,-1,171,576,220,-1,546,213,547,-1,547,213,174,-1,547,174,173,-1,571,202,570,-1,570,202,177,-1,570,177,176,-1,687,605,688,-1,688,605,604,-1,678,611,679,-1,679,611,610,-1,676,615,677,-1,677,615,614,-1,668,623,669,-1,669,623,622,-1,649,629,660,-1,660,629,628,-1,650,635,651,-1,651,635,634,-1,661,640,662,-1,662,640,639,-1,641,590,642,-1,642,590,589,-1,563,209,564,-1,564,209,242,-1,598,690,599,-1,599,690,689,-1,641,279,699,-1,700,701,702,-1,702,532,590,-1,590,532,533,-1,590,533,544,-1,278,279,549,-1,549,279,641,-1,549,641,551,-1,551,641,644,-1,703,700,704,-1,704,700,702,-1,704,702,699,-1,699,702,590,-1,699,590,641,-1,486,705,480,-1,480,705,585,-1,480,585,534,-1,207,209,563,-1,553,657,563,-1,563,657,696,-1,563,696,207,-1,207,696,706,-1,707,708,705,-1,705,708,709,-1,696,585,706,-1,706,585,705,-1,706,705,710,-1,710,705,709,-1,657,553,644,-1,644,553,551,-1,283,278,548,-1,548,278,549,-1,277,357,711,-1,699,279,277,-1,712,699,713,-1,713,699,277,-1,713,277,714,-1,714,277,711,-1,715,700,703,-1,715,703,716,-1,716,703,704,-1,716,704,717,-1,717,704,699,-1,717,699,712,-1,98,718,719,-1,8,99,4,-1,4,99,98,-1,4,98,720,-1,720,98,719,-1,720,719,721,-1,721,719,722,-1,718,723,724,-1,706,719,207,-1,207,719,718,-1,207,718,208,-1,208,718,724,-1,715,716,717,-1,95,48,101,-1,101,48,46,-1,101,46,713,-1,713,46,715,-1,713,715,712,-1,712,715,717,-1,71,80,725,-1,725,80,726,-1,701,700,715,-1,715,46,701,-1,701,46,44,-1,701,44,707,-1,720,708,4,-1,4,708,707,-1,4,707,2,-1,2,707,44,-1,2,44,727,-1,727,44,728,-1,708,720,721,-1,708,721,709,-1,709,721,722,-1,709,722,710,-1,710,722,719,-1,710,719,706,-1,726,30,725,-1,725,30,36,-1,726,80,30,-1,30,80,79,-1,31,30,78,-1,78,30,79,-1,76,72,39,-1,39,72,36,-1,36,72,725,-1,725,72,71,-1,701,707,702,-1,702,707,705,-1,486,484,705,-1,705,484,491,-1,491,497,705,-1,705,497,503,-1,705,503,702,-1,503,509,702,-1,702,509,515,-1,702,515,521,-1,521,478,702,-1,702,478,528,-1,702,528,532,-1,585,696,586,-1,586,696,695,-1,690,598,691,-1,691,598,595,-1,697,587,695,-1,695,587,586,-1,28,75,39,-1,39,75,76,-1,31,78,32,-1,32,78,77,-1,367,729,368,-1,368,729,431,-1,431,729,422,-1,422,729,730,-1,422,730,424,-1,729,367,145,-1,145,367,143,-1,85,84,731,-1,731,84,366,-1,731,366,392,-1,731,392,732,-1,732,392,391,-1,61,59,401,-1,401,59,732,-1,401,732,390,-1,390,732,391,-1,415,733,405,-1,405,733,734,-1,405,734,363,-1,418,417,735,-1,733,415,414,-1,733,414,735,-1,735,414,412,-1,735,412,418,-1,423,424,736,-1,736,424,730,-1,
        ]
    }
}
Shape{
    appearance Appearance {
        material  Material 	{
            diffuseColor 0.796078431372549 0.8235294117647058 0.9372549019607843
            specularColor 0.396078431372549 0.4117647058823529 0.4666666666666667
            ambientIntensity 0.8283
            transparency 0.0
            shininess 0.5
        }
    }
    geometry IndexedFaceSet {
        ccw TRUE
        solid FALSE
        coord DEF co Coordinate {
            point [
                3.248 -2.2814 1.6409, 3.248 -2.2224 1.6999, 3.0512 -2.2814 1.6409, 3.0512 -2.2224 1.6999, 3.248 -2.2814 1.5621, 3.0512 -2.2814 1.5621, 3.248 -2.2224 1.5031, 3.0512 -2.2224 1.5031, 3.248 -0.8268 1.5031, 3.248 -0.8268 1.6999, 3.0512 -0.8268 1.6999, 3.0512 -0.8268 1.5031
            ]
        }
        coordIndex [
            0,1,2,-1,2,1,3,-1,4,0,5,-1,5,0,2,-1,6,4,7,-1,7,4,5,-1,6,8,4,-1,4,8,9,-1,4,9,0,-1,0,9,1,-1,2,3,5,-1,5,3,10,-1,5,10,7,-1,7,10,11,-1,3,1,10,-1,10,1,9,-1,6,7,8,-1,8,7,11,-1,
        ]
    }
}
Shape{
    appearance Appearance {
        material  Material 	{
            diffuseColor 0.7529411764705882 0.7529411764705882 0.7529411764705882
            specularColor 0.3764705882352941 0.3764705882352941 0.3764705882352941
            ambientIntensity 0.7529
            transparency 0.0
            shininess 0.5
        }
    }
    geometry IndexedFaceSet {
        ccw TRUE
        solid FALSE
        coord DEF co Coordinate {
            point [
                3.248 0.1181 1.5021, 3.0512 0.1181 1.5021, 3.248 0.2011 1.4741, 3.0512 0.2011 1.4741, 3.248 0.2638 1.4129, 3.0512 0.2638 1.4129
            ]
        }
        coordIndex [
            0,1,2,-1,2,1,3,-1,2,3,4,-1,4,3,5,-1,
        ]
    }
}
Shape{
    appearance Appearance {
        material  Material 	{
            diffuseColor 0.796078431372549 0.8235294117647058 0.9372549019607843
            specularColor 0.396078431372549 0.4117647058823529 0.4666666666666667
            ambientIntensity 0.8283
            transparency 0.0
            shininess 0.5
        }
    }
    geometry IndexedFaceSet {
        ccw TRUE
        solid FALSE
        coord DEF co Coordinate {
            point [
                3.0512 0.2952 0.0, 3.0512 0.2952 -1.2008, 3.248 0.2952 0.0, 3.248 0.2952 -1.2008
            ]
        }
        coordIndex [
            0,1,2,-1,2,1,3,-1,
        ]
    }
}
Shape{
    appearance Appearance {
        material  Material 	{
            diffuseColor 0.7529411764705882 0.7529411764705882 0.7529411764705882
            specularColor 0.3764705882352941 0.3764705882352941 0.3764705882352941
            ambientIntensity 0.7529
            transparency 0.0
            shininess 0.5
        }
    }
    geometry IndexedFaceSet {
        ccw TRUE
        solid FALSE
        coord DEF co Coordinate {
            point [
                3.248 0.2952 0.3637, 3.248 0.2952 1.0859, 3.0512 0.2952 0.3637, 3.0512 0.2952 1.0859
            ]
        }
        coordIndex [
            0,1,2,-1,2,1,3,-1,
        ]
    }
}
Shape{
    appearance Appearance {
        material  Material 	{
            diffuseColor 0.796078431372549 0.8235294117647058 0.9372549019607843
            specularColor 0.396078431372549 0.4117647058823529 0.4666666666666667
            ambientIntensity 0.8283
            transparency 0.0
            shininess 0.5
        }
    }
    geometry IndexedFaceSet {
        ccw TRUE
        solid FALSE
        coord DEF co Coordinate {
            point [
                3.248 0.2952 1.6999, 3.0512 0.2952 1.6999, 3.248 0.1181 1.6999, 3.0512 0.1181 1.6999, 3.248 0.2952 1.0859, 3.248 0.2952 0.3637, 3.248 0.3149 1.0859, 3.248 0.3149 0.3637, 3.248 0.1181 1.5021, 3.248 0.2011 1.4741, 3.248 0.3706 1.6849, 3.248 0.4344 1.6423, 3.248 0.2638 1.4129, 3.248 0.4771 1.5784, 3.248 0.3149 1.4129, 3.248 0.4921 1.5031, 3.248 0.4921 -1.2008, 3.248 0.3149 0.0, 3.248 0.3543 -1.2598, 3.248 0.433 -1.2598, 3.248 0.2952 -1.2008, 3.248 0.2952 0.0, 3.0512 0.2952 -1.2008, 3.0512 0.2952 0.0, 3.0512 0.3149 0.0, 3.0512 0.4921 -1.2008, 3.0512 0.433 -1.2598, 3.0512 0.3543 -1.2598, 3.0512 0.4921 1.5031, 3.0512 0.2952 0.3637, 3.0512 0.2952 1.0859, 3.0512 0.3149 0.3637, 3.0512 0.3149 1.0859, 3.0512 0.4771 1.5784, 3.0512 0.3149 1.4129, 3.0512 0.4344 1.6423, 3.0512 0.2638 1.4129, 3.0512 0.3706 1.6849, 3.0512 0.2011 1.4741, 3.0512 0.1181 1.5021, 3.248 -2.2552 0.8535, 3.248 -2.1961 0.9125, 3.0512 -2.2552 0.8535, 3.0512 -2.1961 0.9125, 3.248 -2.2552 0.7747, 3.0512 -2.2552 0.7747, 3.248 -2.1961 0.7157, 3.0512 -2.1961 0.7157, 3.248 -0.8268 0.7157, 3.248 -0.8268 0.9125, 3.0512 -0.8268 0.9125, 3.0512 -0.8268 0.7157, 3.0512 -0.4922 0.0, 3.0512 -0.4922 -1.2008, 3.248 -0.4922 0.0, 3.248 -0.4922 -1.2008, 3.248 -0.2953 0.0, 3.248 -0.2953 -1.2008, 3.0512 -0.2953 0.0, 3.0512 -0.2953 -1.2008, 3.248 -0.3544 -1.2598, 3.248 -0.4331 -1.2598, 3.0512 -0.4331 -1.2598, 3.0512 -0.3544 -1.2598
            ]
        }
        coordIndex [
            0,1,2,-1,2,1,3,-1,4,5,6,-1,6,5,7,-1,2,8,0,-1,0,8,9,-1,0,9,10,-1,10,9,11,-1,11,9,12,-1,11,12,13,-1,13,12,14,-1,13,14,15,-1,15,14,6,-1,15,6,16,-1,16,6,7,-1,16,7,17,-1,18,19,20,-1,20,19,16,-1,20,16,21,-1,21,16,17,-1,22,23,24,-1,25,26,27,-1,27,22,25,-1,25,22,24,-1,25,24,28,-1,29,30,31,-1,31,30,32,-1,24,31,28,-1,28,31,32,-1,28,32,33,-1,33,32,34,-1,33,34,35,-1,35,34,36,-1,35,36,37,-1,37,36,38,-1,37,38,1,-1,1,38,39,-1,1,39,3,-1,18,20,27,-1,27,20,22,-1,19,18,26,-1,26,18,27,-1,16,19,25,-1,25,19,26,-1,15,16,28,-1,28,16,25,-1,15,28,33,-1,15,33,13,-1,13,33,35,-1,13,35,11,-1,11,35,37,-1,11,37,10,-1,10,37,1,-1,10,1,0,-1,40,41,42,-1,42,41,43,-1,44,40,45,-1,45,40,42,-1,46,44,47,-1,47,44,45,-1,44,46,40,-1,40,46,48,-1,40,48,41,-1,41,48,49,-1,42,43,45,-1,45,43,50,-1,45,50,47,-1,47,50,51,-1,43,41,50,-1,50,41,49,-1,46,47,48,-1,48,47,51,-1,52,53,54,-1,54,53,55,-1,56,57,58,-1,58,57,59,-1,60,57,61,-1,61,57,56,-1,61,56,55,-1,55,56,54,-1,62,53,63,-1,63,53,52,-1,63,52,59,-1,59,52,58,-1,61,55,62,-1,62,55,53,-1,60,61,63,-1,63,61,62,-1,57,60,59,-1,59,60,63,-1,
        ]
    }
}
Shape{
    appearance Appearance {
        material  Material 	{
            diffuseColor 0.7529411764705882 0.7529411764705882 0.7529411764705882
            specularColor 0.3764705882352941 0.3764705882352941 0.3764705882352941
            ambientIntensity 0.7529
            transparency 0.0
            shininess 0.5
        }
    }
    geometry IndexedFaceSet {
        ccw TRUE
        solid FALSE
        coord DEF co Coordinate {
            point [
                -3.3465 0.7874 1.0859, -3.3465 0.7874 1.4129, -3.248 0.3149 1.0859, -3.248 0.3149 1.4129, -3.0512 0.3149 1.0859, -3.0512 0.3149 1.4129, -2.9528 0.7874 1.0859, -2.9528 0.7874 1.4129, -2.5591 0.7874 1.0859, -2.5591 0.7874 1.4129, -2.4606 0.3149 1.0859, -2.4606 0.3149 1.4129, -2.2638 0.3149 1.0859, -2.2638 0.3149 1.4129, -2.1654 0.7874 1.0859, -2.1654 0.7874 1.4129, -1.7717 0.7874 1.0859, -1.7717 0.7874 1.4129, -1.6732 0.3149 1.0859, -1.6732 0.3149 1.4129, -1.4764 0.3149 1.0859, -1.4764 0.3149 1.4129, -1.378 0.7874 1.0859, -1.378 0.7874 1.4129, -0.9843 0.7874 1.0859, -0.9843 0.7874 1.4129, -0.8858 0.3149 1.0859, -0.8858 0.3149 1.4129, -0.689 0.3149 1.0859, -0.689 0.3149 1.4129, -0.5906 0.7874 1.0859, -0.5906 0.7874 1.4129, -0.1969 0.7874 1.0859, -0.1969 0.7874 1.4129, -0.0984 0.3149 1.0859, -0.0984 0.3149 1.4129, 0.0984 0.3149 1.0859, 0.0984 0.3149 1.4129, 0.1968 0.7874 1.0859, 0.1968 0.7874 1.4129, 0.5905 0.7874 1.0859, 0.5905 0.7874 1.4129, 0.689 0.3149 1.0859, 0.689 0.3149 1.4129, 0.8858 0.3149 1.0859, 0.8858 0.3149 1.4129, 0.9842 0.7874 1.0859, 0.9842 0.7874 1.4129, 1.3779 0.7874 1.0859, 1.3779 0.7874 1.4129, 1.4764 0.3149 1.0859, 1.4764 0.3149 1.4129, 1.6732 0.3149 1.0859, 1.6732 0.3149 1.4129, 1.7716 0.7874 1.0859, 1.7716 0.7874 1.4129, 2.1653 0.7874 1.0859, 2.1653 0.7874 1.4129, 2.2638 0.3149 1.0859, 2.2638 0.3149 1.4129, 2.4606 0.3149 1.0859, 2.4606 0.3149 1.4129, 2.559 0.7874 1.0859, 2.559 0.7874 1.4129
            ]
        }
        coordIndex [
            0,1,2,-1,2,1,3,-1,4,5,6,-1,6,5,7,-1,8,9,10,-1,10,9,11,-1,12,13,14,-1,14,13,15,-1,16,17,18,-1,18,17,19,-1,20,21,22,-1,22,21,23,-1,24,25,26,-1,26,25,27,-1,28,29,30,-1,30,29,31,-1,32,33,34,-1,34,33,35,-1,36,37,38,-1,38,37,39,-1,40,41,42,-1,42,41,43,-1,44,45,46,-1,46,45,47,-1,48,49,50,-1,50,49,51,-1,52,53,54,-1,54,53,55,-1,56,57,58,-1,58,57,59,-1,60,61,62,-1,62,61,63,-1,
        ]
    }
}
Shape{
    appearance Appearance {
        material  Material 	{
            diffuseColor 0.796078431372549 0.8235294117647058 0.9372549019607843
            specularColor 0.396078431372549 0.4117647058823529 0.4666666666666667
            ambientIntensity 0.8283
            transparency 0.0
            shininess 0.5
        }
    }
    geometry IndexedFaceSet {
        ccw TRUE
        solid FALSE
        coord DEF co Coordinate {
            point [
                2.4606 0.3543 -1.2598, 2.4606 0.2952 -1.2008, 2.2638 0.3543 -1.2598, 2.2638 0.2952 -1.2008, 2.4606 0.433 -1.2598, 2.2638 0.433 -1.2598, 2.4606 0.4921 -1.2008, 2.2638 0.4921 -1.2008, 2.4606 0.4921 1.5031, 2.2638 0.4921 1.5031, 2.2638 0.4771 1.5784, 2.4606 0.4771 1.5784, 2.2638 0.4344 1.6423, 2.4606 0.4344 1.6423, 2.2638 0.3706 1.6849, 2.4606 0.3706 1.6849, 2.2638 0.2952 1.6999, 2.4606 0.2952 1.6999, 2.4606 0.2952 1.0859, 2.4606 0.2952 0.3637, 2.4606 0.3149 1.0859, 2.4606 0.3149 0.3637, 2.4606 0.2952 0.0, 2.4606 0.3149 0.0, 2.4606 0.1181 1.6999, 2.4606 0.1181 1.5021, 2.4606 0.2011 1.4741, 2.4606 0.2638 1.4129, 2.4606 0.3149 1.4129, 2.2638 0.3149 0.3637, 2.2638 0.2952 0.3637, 2.2638 0.2952 1.0859, 2.2638 0.1181 1.5021, 2.2638 0.1181 1.6999, 2.2638 0.3149 1.0859, 2.2638 0.3149 0.0, 2.2638 0.2952 0.0, 2.2638 0.2011 1.4741, 2.2638 0.2638 1.4129, 2.2638 0.3149 1.4129
            ]
        }
        coordIndex [
            0,1,2,-1,2,1,3,-1,4,0,5,-1,5,0,2,-1,6,4,7,-1,7,4,5,-1,8,6,9,-1,9,6,7,-1,8,9,10,-1,8,10,11,-1,11,10,12,-1,11,12,13,-1,13,12,14,-1,13,14,15,-1,15,14,16,-1,15,16,17,-1,18,19,20,-1,20,19,21,-1,0,4,1,-1,1,4,6,-1,1,6,22,-1,22,6,23,-1,24,25,17,-1,17,25,26,-1,17,26,15,-1,15,26,13,-1,13,26,27,-1,13,27,11,-1,11,27,28,-1,11,28,8,-1,8,28,20,-1,8,20,6,-1,6,20,21,-1,6,21,23,-1,29,30,31,-1,32,33,16,-1,5,2,7,-1,7,2,3,-1,31,34,29,-1,29,34,7,-1,29,7,35,-1,35,7,3,-1,35,3,36,-1,32,16,37,-1,37,16,14,-1,37,14,38,-1,38,14,12,-1,38,12,39,-1,39,12,10,-1,39,10,34,-1,34,10,9,-1,34,9,7,-1,
        ]
    }
}
Shape{
    appearance Appearance {
        material  Material 	{
            diffuseColor 0.7529411764705882 0.7529411764705882 0.7529411764705882
            specularColor 0.3764705882352941 0.3764705882352941 0.3764705882352941
            ambientIntensity 0.7529
            transparency 0.0
            shininess 0.5
        }
    }
    geometry IndexedFaceSet {
        ccw TRUE
        solid FALSE
        coord DEF co Coordinate {
            point [
                2.4606 0.2952 0.3637, 2.4606 0.2952 1.0859, 2.2638 0.2952 0.3637, 2.2638 0.2952 1.0859, 2.4606 0.1181 1.5021, 2.2638 0.1181 1.5021, 2.4606 0.2011 1.4741, 2.2638 0.2011 1.4741, 2.4606 0.2638 1.4129, 2.2638 0.2638 1.4129
            ]
        }
        coordIndex [
            0,1,2,-1,2,1,3,-1,4,5,6,-1,6,5,7,-1,6,7,8,-1,8,7,9,-1,
        ]
    }
}
Shape{
    appearance Appearance {
        material  Material 	{
            diffuseColor 0.796078431372549 0.8235294117647058 0.9372549019607843
            specularColor 0.396078431372549 0.4117647058823529 0.4666666666666667
            ambientIntensity 0.8283
            transparency 0.0
            shininess 0.5
        }
    }
    geometry IndexedFaceSet {
        ccw TRUE
        solid FALSE
        coord DEF co Coordinate {
            point [
                2.4606 0.2952 1.6999, 2.2638 0.2952 1.6999, 2.4606 0.1181 1.6999, 2.2638 0.1181 1.6999, 2.2638 0.2952 0.0, 2.2638 0.2952 -1.2008, 2.4606 0.2952 0.0, 2.4606 0.2952 -1.2008, 2.2638 -2.2224 1.6999, 2.4606 -2.2224 1.6999, 2.2638 -0.8268 1.6999, 2.4606 -0.8268 1.6999, 2.4606 -2.2224 1.5031, 2.4606 -0.8268 1.5031, 2.4606 -2.2814 1.5621, 2.4606 -2.2814 1.6409, 2.2638 -0.8268 1.5031, 2.2638 -2.2224 1.5031, 2.2638 -2.2814 1.6409, 2.2638 -2.2814 1.5621, 2.4606 -2.2552 0.8535, 2.4606 -2.1961 0.9125, 2.2638 -2.2552 0.8535, 2.2638 -2.1961 0.9125, 2.4606 -2.2552 0.7747, 2.2638 -2.2552 0.7747, 2.4606 -2.1961 0.7157, 2.2638 -2.1961 0.7157, 2.4606 -0.8268 0.9125, 2.4606 -0.8268 0.7157, 2.2638 -0.8268 0.7157, 2.2638 -0.8268 0.9125, 2.2638 -0.4922 0.0, 2.2638 -0.4922 -1.2008, 2.4606 -0.4922 0.0, 2.4606 -0.4922 -1.2008, 2.4606 -0.2953 0.0, 2.4606 -0.2953 -1.2008, 2.2638 -0.2953 0.0, 2.2638 -0.2953 -1.2008, 2.4606 -0.3544 -1.2598, 2.4606 -0.4331 -1.2598, 2.2638 -0.4331 -1.2598, 2.2638 -0.3544 -1.2598, 1.6732 0.3543 -1.2598, 1.6732 0.2952 -1.2008, 1.4764 0.3543 -1.2598, 1.4764 0.2952 -1.2008, 1.6732 0.433 -1.2598, 1.4764 0.433 -1.2598, 1.6732 0.4921 -1.2008, 1.4764 0.4921 -1.2008, 1.6732 0.4921 1.5031, 1.4764 0.4921 1.5031, 1.4764 0.4771 1.5784, 1.6732 0.4771 1.5784, 1.4764 0.4344 1.6423, 1.6732 0.4344 1.6423, 1.4764 0.3706 1.6849, 1.6732 0.3706 1.6849, 1.4764 0.2952 1.6999, 1.6732 0.2952 1.6999, 1.6732 0.2952 1.0859, 1.6732 0.2952 0.3637, 1.6732 0.3149 1.0859, 1.6732 0.3149 0.3637, 1.6732 0.2952 0.0, 1.6732 0.3149 0.0, 1.6732 0.1181 1.6999, 1.6732 0.1181 1.5021, 1.6732 0.2011 1.4741, 1.6732 0.2638 1.4129, 1.6732 0.3149 1.4129, 1.4764 0.3149 0.3637, 1.4764 0.2952 0.3637, 1.4764 0.2952 1.0859, 1.4764 0.1181 1.5021, 1.4764 0.1181 1.6999, 1.4764 0.3149 1.0859, 1.4764 0.3149 0.0, 1.4764 0.2952 0.0, 1.4764 0.2011 1.4741, 1.4764 0.2638 1.4129, 1.4764 0.3149 1.4129
            ]
        }
        coordIndex [
            0,1,2,-1,2,1,3,-1,4,5,6,-1,6,5,7,-1,8,9,10,-1,10,9,11,-1,12,13,14,-1,14,13,11,-1,14,11,15,-1,15,11,9,-1,10,16,8,-1,8,16,17,-1,8,17,18,-1,18,17,19,-1,15,9,18,-1,18,9,8,-1,14,15,19,-1,19,15,18,-1,12,14,17,-1,17,14,19,-1,12,17,13,-1,13,17,16,-1,20,21,22,-1,22,21,23,-1,24,20,25,-1,25,20,22,-1,26,24,27,-1,27,24,25,-1,20,24,21,-1,21,24,26,-1,21,26,28,-1,28,26,29,-1,25,22,27,-1,27,22,23,-1,27,23,30,-1,30,23,31,-1,23,21,31,-1,31,21,28,-1,26,27,29,-1,29,27,30,-1,32,33,34,-1,34,33,35,-1,36,37,38,-1,38,37,39,-1,40,37,41,-1,41,37,36,-1,41,36,35,-1,35,36,34,-1,42,33,43,-1,43,33,32,-1,43,32,39,-1,39,32,38,-1,41,35,42,-1,42,35,33,-1,40,41,43,-1,43,41,42,-1,37,40,39,-1,39,40,43,-1,44,45,46,-1,46,45,47,-1,48,44,49,-1,49,44,46,-1,50,48,51,-1,51,48,49,-1,52,50,53,-1,53,50,51,-1,52,53,54,-1,52,54,55,-1,55,54,56,-1,55,56,57,-1,57,56,58,-1,57,58,59,-1,59,58,60,-1,59,60,61,-1,62,63,64,-1,64,63,65,-1,44,48,45,-1,45,48,50,-1,45,50,66,-1,66,50,67,-1,68,69,61,-1,61,69,70,-1,61,70,59,-1,59,70,57,-1,57,70,71,-1,57,71,55,-1,55,71,72,-1,55,72,52,-1,52,72,64,-1,52,64,50,-1,50,64,65,-1,50,65,67,-1,73,74,75,-1,76,77,60,-1,49,46,51,-1,51,46,47,-1,75,78,73,-1,73,78,51,-1,73,51,79,-1,79,51,47,-1,79,47,80,-1,76,60,81,-1,81,60,58,-1,81,58,82,-1,82,58,56,-1,82,56,83,-1,83,56,54,-1,83,54,78,-1,78,54,53,-1,78,53,51,-1,
        ]
    }
}
Shape{
    appearance Appearance {
        material  Material 	{
            diffuseColor 0.7529411764705882 0.7529411764705882 0.7529411764705882
            specularColor 0.3764705882352941 0.3764705882352941 0.3764705882352941
            ambientIntensity 0.7529
            transparency 0.0
            shininess 0.5
        }
    }
    geometry IndexedFaceSet {
        ccw TRUE
        solid FALSE
        coord DEF co Coordinate {
            point [
                1.6732 0.2952 0.3637, 1.6732 0.2952 1.0859, 1.4764 0.2952 0.3637, 1.4764 0.2952 1.0859, 1.6732 0.1181 1.5021, 1.4764 0.1181 1.5021, 1.6732 0.2011 1.4741, 1.4764 0.2011 1.4741, 1.6732 0.2638 1.4129, 1.4764 0.2638 1.4129
            ]
        }
        coordIndex [
            0,1,2,-1,2,1,3,-1,4,5,6,-1,6,5,7,-1,6,7,8,-1,8,7,9,-1,
        ]
    }
}
Shape{
    appearance Appearance {
        material  Material 	{
            diffuseColor 0.796078431372549 0.8235294117647058 0.9372549019607843
            specularColor 0.396078431372549 0.4117647058823529 0.4666666666666667
            ambientIntensity 0.8283
            transparency 0.0
            shininess 0.5
        }
    }
    geometry IndexedFaceSet {
        ccw TRUE
        solid FALSE
        coord DEF co Coordinate {
            point [
                1.6732 0.2952 1.6999, 1.4764 0.2952 1.6999, 1.6732 0.1181 1.6999, 1.4764 0.1181 1.6999, 1.4764 0.2952 0.0, 1.4764 0.2952 -1.2008, 1.6732 0.2952 0.0, 1.6732 0.2952 -1.2008, 1.4764 -2.2224 1.6999, 1.6732 -2.2224 1.6999, 1.4764 -0.8268 1.6999, 1.6732 -0.8268 1.6999, 1.6732 -2.2224 1.5031, 1.6732 -0.8268 1.5031, 1.6732 -2.2814 1.5621, 1.6732 -2.2814 1.6409, 1.4764 -2.2814 1.6409, 1.4764 -2.2814 1.5621, 1.4764 -2.2224 1.5031, 1.4764 -0.8268 1.5031, 1.6732 -2.2552 0.8535, 1.6732 -2.1961 0.9125, 1.4764 -2.2552 0.8535, 1.4764 -2.1961 0.9125, 1.6732 -2.2552 0.7747, 1.4764 -2.2552 0.7747, 1.6732 -2.1961 0.7157, 1.4764 -2.1961 0.7157, 1.6732 -0.8268 0.9125, 1.6732 -0.8268 0.7157, 1.4764 -0.8268 0.7157, 1.4764 -0.8268 0.9125, 1.4764 -0.4922 0.0, 1.4764 -0.4922 -1.2008, 1.6732 -0.4922 0.0, 1.6732 -0.4922 -1.2008, 1.6732 -0.2953 0.0, 1.6732 -0.2953 -1.2008, 1.4764 -0.2953 0.0, 1.4764 -0.2953 -1.2008, 1.6732 -0.3544 -1.2598, 1.6732 -0.4331 -1.2598, 1.4764 -0.4331 -1.2598, 1.4764 -0.3544 -1.2598, 0.8858 0.3543 -1.2598, 0.8858 0.2952 -1.2008, 0.689 0.3543 -1.2598, 0.689 0.2952 -1.2008, 0.8858 0.433 -1.2598, 0.689 0.433 -1.2598, 0.8858 0.4921 -1.2008, 0.689 0.4921 -1.2008, 0.8858 0.4921 1.5031, 0.689 0.4921 1.5031, 0.689 0.4771 1.5784, 0.8858 0.4771 1.5784, 0.689 0.4344 1.6423, 0.8858 0.4344 1.6423, 0.689 0.3706 1.6849, 0.8858 0.3706 1.6849, 0.689 0.2952 1.6999, 0.8858 0.2952 1.6999, 0.8858 0.2952 1.0859, 0.8858 0.2952 0.3637, 0.8858 0.3149 1.0859, 0.8858 0.3149 0.3637, 0.8858 0.2952 0.0, 0.8858 0.3149 0.0, 0.8858 0.1181 1.6999, 0.8858 0.1181 1.5021, 0.8858 0.2011 1.4741, 0.8858 0.2638 1.4129, 0.8858 0.3149 1.4129, 0.689 0.3149 0.3637, 0.689 0.2952 0.3637, 0.689 0.2952 1.0859, 0.689 0.1181 1.5021, 0.689 0.1181 1.6999, 0.689 0.3149 1.0859, 0.689 0.3149 0.0, 0.689 0.2952 0.0, 0.689 0.2011 1.4741, 0.689 0.2638 1.4129, 0.689 0.3149 1.4129
            ]
        }
        coordIndex [
            0,1,2,-1,2,1,3,-1,4,5,6,-1,6,5,7,-1,8,9,10,-1,10,9,11,-1,12,13,14,-1,14,13,11,-1,14,11,15,-1,15,11,9,-1,16,8,17,-1,17,8,10,-1,17,10,18,-1,18,10,19,-1,15,9,16,-1,16,9,8,-1,14,15,17,-1,17,15,16,-1,12,14,18,-1,18,14,17,-1,12,18,13,-1,13,18,19,-1,20,21,22,-1,22,21,23,-1,24,20,25,-1,25,20,22,-1,26,24,27,-1,27,24,25,-1,20,24,21,-1,21,24,26,-1,21,26,28,-1,28,26,29,-1,25,22,27,-1,27,22,23,-1,27,23,30,-1,30,23,31,-1,23,21,31,-1,31,21,28,-1,26,27,29,-1,29,27,30,-1,32,33,34,-1,34,33,35,-1,36,37,38,-1,38,37,39,-1,40,37,41,-1,41,37,36,-1,41,36,35,-1,35,36,34,-1,42,33,43,-1,43,33,32,-1,43,32,39,-1,39,32,38,-1,41,35,42,-1,42,35,33,-1,40,41,43,-1,43,41,42,-1,37,40,39,-1,39,40,43,-1,44,45,46,-1,46,45,47,-1,48,44,49,-1,49,44,46,-1,50,48,51,-1,51,48,49,-1,52,50,53,-1,53,50,51,-1,52,53,54,-1,52,54,55,-1,55,54,56,-1,55,56,57,-1,57,56,58,-1,57,58,59,-1,59,58,60,-1,59,60,61,-1,62,63,64,-1,64,63,65,-1,44,48,45,-1,45,48,50,-1,45,50,66,-1,66,50,67,-1,68,69,61,-1,61,69,70,-1,61,70,59,-1,59,70,57,-1,57,70,71,-1,57,71,55,-1,55,71,72,-1,55,72,52,-1,52,72,64,-1,52,64,50,-1,50,64,65,-1,50,65,67,-1,73,74,75,-1,76,77,60,-1,49,46,51,-1,51,46,47,-1,75,78,73,-1,73,78,51,-1,73,51,79,-1,79,51,47,-1,79,47,80,-1,76,60,81,-1,81,60,58,-1,81,58,82,-1,82,58,56,-1,82,56,83,-1,83,56,54,-1,83,54,78,-1,78,54,53,-1,78,53,51,-1,
        ]
    }
}
Shape{
    appearance Appearance {
        material  Material 	{
            diffuseColor 0.7529411764705882 0.7529411764705882 0.7529411764705882
            specularColor 0.3764705882352941 0.3764705882352941 0.3764705882352941
            ambientIntensity 0.7529
            transparency 0.0
            shininess 0.5
        }
    }
    geometry IndexedFaceSet {
        ccw TRUE
        solid FALSE
        coord DEF co Coordinate {
            point [
                0.8858 0.2952 0.3637, 0.8858 0.2952 1.0859, 0.689 0.2952 0.3637, 0.689 0.2952 1.0859, 0.8858 0.1181 1.5021, 0.689 0.1181 1.5021, 0.8858 0.2011 1.4741, 0.689 0.2011 1.4741, 0.8858 0.2638 1.4129, 0.689 0.2638 1.4129
            ]
        }
        coordIndex [
            0,1,2,-1,2,1,3,-1,4,5,6,-1,6,5,7,-1,6,7,8,-1,8,7,9,-1,
        ]
    }
}
Shape{
    appearance Appearance {
        material  Material 	{
            diffuseColor 0.796078431372549 0.8235294117647058 0.9372549019607843
            specularColor 0.396078431372549 0.4117647058823529 0.4666666666666667
            ambientIntensity 0.8283
            transparency 0.0
            shininess 0.5
        }
    }
    geometry IndexedFaceSet {
        ccw TRUE
        solid FALSE
        coord DEF co Coordinate {
            point [
                0.8858 0.2952 1.6999, 0.689 0.2952 1.6999, 0.8858 0.1181 1.6999, 0.689 0.1181 1.6999, 0.689 0.2952 0.0, 0.689 0.2952 -1.2008, 0.8858 0.2952 0.0, 0.8858 0.2952 -1.2008, 0.689 -2.2224 1.6999, 0.8858 -2.2224 1.6999, 0.689 -0.8268 1.6999, 0.8858 -0.8268 1.6999, 0.8858 -2.2224 1.5031, 0.8858 -0.8268 1.5031, 0.8858 -2.2814 1.5621, 0.8858 -2.2814 1.6409, 0.689 -2.2814 1.6409, 0.689 -2.2814 1.5621, 0.689 -2.2224 1.5031, 0.689 -0.8268 1.5031, 0.8858 -2.2552 0.8535, 0.8858 -2.1961 0.9125, 0.689 -2.2552 0.8535, 0.689 -2.1961 0.9125, 0.8858 -2.2552 0.7747, 0.689 -2.2552 0.7747, 0.8858 -2.1961 0.7157, 0.689 -2.1961 0.7157, 0.8858 -0.8268 0.9125, 0.8858 -0.8268 0.7157, 0.689 -0.8268 0.7157, 0.689 -0.8268 0.9125, 0.689 -0.4922 0.0, 0.689 -0.4922 -1.2008, 0.8858 -0.4922 0.0, 0.8858 -0.4922 -1.2008, 0.8858 -0.2953 0.0, 0.8858 -0.2953 -1.2008, 0.689 -0.2953 0.0, 0.689 -0.2953 -1.2008, 0.8858 -0.3544 -1.2598, 0.8858 -0.4331 -1.2598, 0.689 -0.4331 -1.2598, 0.689 -0.3544 -1.2598, 0.0984 0.3543 -1.2598, 0.0984 0.2952 -1.2008, -0.0984 0.3543 -1.2598, -0.0984 0.2952 -1.2008, 0.0984 0.433 -1.2598, -0.0984 0.433 -1.2598, 0.0984 0.4921 -1.2008, -0.0984 0.4921 -1.2008, 0.0984 0.4921 1.5031, -0.0984 0.4921 1.5031, -0.0984 0.4771 1.5784, 0.0984 0.4771 1.5784, -0.0984 0.4344 1.6423, 0.0984 0.4344 1.6423, -0.0984 0.3706 1.6849, 0.0984 0.3706 1.6849, -0.0984 0.2952 1.6999, 0.0984 0.2952 1.6999, 0.0984 0.2952 1.0859, 0.0984 0.2952 0.3637, 0.0984 0.3149 1.0859, 0.0984 0.3149 0.3637, 0.0984 0.2952 0.0, 0.0984 0.3149 0.0, 0.0984 0.1181 1.6999, 0.0984 0.1181 1.5021, 0.0984 0.2011 1.4741, 0.0984 0.2638 1.4129, 0.0984 0.3149 1.4129, -0.0984 0.3149 0.3637, -0.0984 0.2952 0.3637, -0.0984 0.2952 1.0859, -0.0984 0.1181 1.5021, -0.0984 0.1181 1.6999, -0.0984 0.3149 1.0859, -0.0984 0.3149 0.0, -0.0984 0.2952 0.0, -0.0984 0.2011 1.4741, -0.0984 0.2638 1.4129, -0.0984 0.3149 1.4129
            ]
        }
        coordIndex [
            0,1,2,-1,2,1,3,-1,4,5,6,-1,6,5,7,-1,8,9,10,-1,10,9,11,-1,12,13,14,-1,14,13,11,-1,14,11,15,-1,15,11,9,-1,16,8,17,-1,17,8,10,-1,17,10,18,-1,18,10,19,-1,15,9,16,-1,16,9,8,-1,14,15,17,-1,17,15,16,-1,12,14,18,-1,18,14,17,-1,12,18,13,-1,13,18,19,-1,20,21,22,-1,22,21,23,-1,24,20,25,-1,25,20,22,-1,26,24,27,-1,27,24,25,-1,20,24,21,-1,21,24,26,-1,21,26,28,-1,28,26,29,-1,25,22,27,-1,27,22,23,-1,27,23,30,-1,30,23,31,-1,23,21,31,-1,31,21,28,-1,26,27,29,-1,29,27,30,-1,32,33,34,-1,34,33,35,-1,36,37,38,-1,38,37,39,-1,40,37,41,-1,41,37,36,-1,41,36,35,-1,35,36,34,-1,42,33,43,-1,43,33,32,-1,43,32,39,-1,39,32,38,-1,41,35,42,-1,42,35,33,-1,40,41,43,-1,43,41,42,-1,37,40,39,-1,39,40,43,-1,44,45,46,-1,46,45,47,-1,48,44,49,-1,49,44,46,-1,50,48,51,-1,51,48,49,-1,52,50,53,-1,53,50,51,-1,52,53,54,-1,52,54,55,-1,55,54,56,-1,55,56,57,-1,57,56,58,-1,57,58,59,-1,59,58,60,-1,59,60,61,-1,62,63,64,-1,64,63,65,-1,44,48,45,-1,45,48,50,-1,45,50,66,-1,66,50,67,-1,68,69,61,-1,61,69,70,-1,61,70,59,-1,59,70,57,-1,57,70,71,-1,57,71,55,-1,55,71,72,-1,55,72,52,-1,52,72,64,-1,52,64,50,-1,50,64,65,-1,50,65,67,-1,73,74,75,-1,76,77,60,-1,49,46,51,-1,51,46,47,-1,75,78,73,-1,73,78,51,-1,73,51,79,-1,79,51,47,-1,79,47,80,-1,76,60,81,-1,81,60,58,-1,81,58,82,-1,82,58,56,-1,82,56,83,-1,83,56,54,-1,83,54,78,-1,78,54,53,-1,78,53,51,-1,
        ]
    }
}
Shape{
    appearance Appearance {
        material  Material 	{
            diffuseColor 0.7529411764705882 0.7529411764705882 0.7529411764705882
            specularColor 0.3764705882352941 0.3764705882352941 0.3764705882352941
            ambientIntensity 0.7529
            transparency 0.0
            shininess 0.5
        }
    }
    geometry IndexedFaceSet {
        ccw TRUE
        solid FALSE
        coord DEF co Coordinate {
            point [
                0.0984 0.2952 0.3637, 0.0984 0.2952 1.0859, -0.0984 0.2952 0.3637, -0.0984 0.2952 1.0859, 0.0984 0.1181 1.5021, -0.0984 0.1181 1.5021, 0.0984 0.2011 1.4741, -0.0984 0.2011 1.4741, 0.0984 0.2638 1.4129, -0.0984 0.2638 1.4129
            ]
        }
        coordIndex [
            0,1,2,-1,2,1,3,-1,4,5,6,-1,6,5,7,-1,6,7,8,-1,8,7,9,-1,
        ]
    }
}
Shape{
    appearance Appearance {
        material  Material 	{
            diffuseColor 0.796078431372549 0.8235294117647058 0.9372549019607843
            specularColor 0.396078431372549 0.4117647058823529 0.4666666666666667
            ambientIntensity 0.8283
            transparency 0.0
            shininess 0.5
        }
    }
    geometry IndexedFaceSet {
        ccw TRUE
        solid FALSE
        coord DEF co Coordinate {
            point [
                0.0984 0.2952 1.6999, -0.0984 0.2952 1.6999, 0.0984 0.1181 1.6999, -0.0984 0.1181 1.6999, -0.0984 0.2952 0.0, -0.0984 0.2952 -1.2008, 0.0675 0.2952 0.0, 0.0984 0.2952 -1.2008, 0.0984 0.2952 0.0, -0.0984 -2.2224 1.6999, 0.0984 -2.2224 1.6999, -0.0984 -0.8268 1.6999, 0.0984 -0.8268 1.6999, 0.0984 -2.2224 1.5031, 0.0984 -0.8268 1.5031, 0.0984 -2.2814 1.5621, 0.0984 -2.2814 1.6409, -0.0984 -2.2814 1.6409, -0.0984 -2.2814 1.5621, -0.0984 -2.2224 1.5031, -0.0984 -0.8268 1.5031, 0.0984 -2.2552 0.8535, 0.0984 -2.1961 0.9125, -0.0984 -2.2552 0.8535, -0.0984 -2.1961 0.9125, 0.0984 -2.2552 0.7747, -0.0984 -2.2552 0.7747, 0.0984 -2.1961 0.7157, -0.0984 -2.1961 0.7157, 0.0984 -0.8268 0.9125, 0.0984 -0.8268 0.7157, -0.0984 -0.8268 0.7157, -0.0984 -0.8268 0.9125, -0.0984 -0.4922 0.0, -0.0984 -0.4922 -1.2008, 0.0675 -0.4922 0.0, 0.0984 -0.4922 -1.2008, 0.0984 -0.4922 0.0, 0.0984 -0.2953 0.0, 0.0984 -0.2953 -1.2008, 0.0675 -0.2953 0.0, -0.0984 -0.2953 -1.2008, -0.0984 -0.2953 0.0, 0.0984 -0.3544 -1.2598, 0.0984 -0.4331 -1.2598, -0.0984 -0.4331 -1.2598, -0.0984 -0.3544 -1.2598, -0.689 0.3543 -1.2598, -0.689 0.2952 -1.2008, -0.8858 0.3543 -1.2598, -0.8858 0.2952 -1.2008, -0.689 0.433 -1.2598, -0.8858 0.433 -1.2598, -0.689 0.4921 -1.2008, -0.8858 0.4921 -1.2008, -0.689 0.4921 1.5031, -0.8858 0.4921 1.5031, -0.8858 0.4771 1.5784, -0.689 0.4771 1.5784, -0.8858 0.4344 1.6423, -0.689 0.4344 1.6423, -0.8858 0.3706 1.6849, -0.689 0.3706 1.6849, -0.8858 0.2952 1.6999, -0.689 0.2952 1.6999, -0.689 0.2952 1.0859, -0.689 0.2952 0.3637, -0.689 0.3149 1.0859, -0.689 0.3149 0.3637, -0.689 0.2952 0.0, -0.689 0.3149 0.0, -0.689 0.1181 1.6999, -0.689 0.1181 1.5021, -0.689 0.2011 1.4741, -0.689 0.2638 1.4129, -0.689 0.3149 1.4129, -0.8858 0.3149 0.3637, -0.8858 0.2952 0.3637, -0.8858 0.2952 1.0859, -0.8858 0.1181 1.5021, -0.8858 0.1181 1.6999, -0.8858 0.3149 1.0859, -0.8858 0.3149 0.0, -0.8858 0.2952 0.0, -0.8858 0.2011 1.4741, -0.8858 0.2638 1.4129, -0.8858 0.3149 1.4129
            ]
        }
        coordIndex [
            0,1,2,-1,2,1,3,-1,4,5,6,-1,6,5,7,-1,6,7,8,-1,9,10,11,-1,11,10,12,-1,13,14,15,-1,15,14,12,-1,15,12,16,-1,16,12,10,-1,17,9,18,-1,18,9,11,-1,18,11,19,-1,19,11,20,-1,16,10,17,-1,17,10,9,-1,15,16,18,-1,18,16,17,-1,13,15,19,-1,19,15,18,-1,13,19,14,-1,14,19,20,-1,21,22,23,-1,23,22,24,-1,25,21,26,-1,26,21,23,-1,27,25,28,-1,28,25,26,-1,21,25,22,-1,22,25,27,-1,22,27,29,-1,29,27,30,-1,26,23,28,-1,28,23,24,-1,28,24,31,-1,31,24,32,-1,24,22,32,-1,32,22,29,-1,27,28,30,-1,30,28,31,-1,33,34,35,-1,35,34,36,-1,35,36,37,-1,38,39,40,-1,40,39,41,-1,40,41,42,-1,43,39,44,-1,44,39,38,-1,44,38,36,-1,36,38,37,-1,45,34,46,-1,46,34,33,-1,46,33,41,-1,41,33,42,-1,44,36,45,-1,45,36,34,-1,43,44,46,-1,46,44,45,-1,39,43,41,-1,41,43,46,-1,47,48,49,-1,49,48,50,-1,51,47,52,-1,52,47,49,-1,53,51,54,-1,54,51,52,-1,55,53,56,-1,56,53,54,-1,55,56,57,-1,55,57,58,-1,58,57,59,-1,58,59,60,-1,60,59,61,-1,60,61,62,-1,62,61,63,-1,62,63,64,-1,65,66,67,-1,67,66,68,-1,47,51,48,-1,48,51,53,-1,48,53,69,-1,69,53,70,-1,71,72,64,-1,64,72,73,-1,64,73,62,-1,62,73,60,-1,60,73,74,-1,60,74,58,-1,58,74,75,-1,58,75,55,-1,55,75,67,-1,55,67,53,-1,53,67,68,-1,53,68,70,-1,76,77,78,-1,79,80,63,-1,52,49,54,-1,54,49,50,-1,78,81,76,-1,76,81,54,-1,76,54,82,-1,82,54,50,-1,82,50,83,-1,79,63,84,-1,84,63,61,-1,84,61,85,-1,85,61,59,-1,85,59,86,-1,86,59,57,-1,86,57,81,-1,81,57,56,-1,81,56,54,-1,
        ]
    }
}
Shape{
    appearance Appearance {
        material  Material 	{
            diffuseColor 0.7529411764705882 0.7529411764705882 0.7529411764705882
            specularColor 0.3764705882352941 0.3764705882352941 0.3764705882352941
            ambientIntensity 0.7529
            transparency 0.0
            shininess 0.5
        }
    }
    geometry IndexedFaceSet {
        ccw TRUE
        solid FALSE
        coord DEF co Coordinate {
            point [
                -0.689 0.2952 0.3637, -0.689 0.2952 1.0859, -0.8858 0.2952 0.3637, -0.8858 0.2952 1.0859, -0.689 0.1181 1.5021, -0.8858 0.1181 1.5021, -0.689 0.2011 1.4741, -0.8858 0.2011 1.4741, -0.689 0.2638 1.4129, -0.8858 0.2638 1.4129
            ]
        }
        coordIndex [
            0,1,2,-1,2,1,3,-1,4,5,6,-1,6,5,7,-1,6,7,8,-1,8,7,9,-1,
        ]
    }
}
Shape{
    appearance Appearance {
        material  Material 	{
            diffuseColor 0.796078431372549 0.8235294117647058 0.9372549019607843
            specularColor 0.396078431372549 0.4117647058823529 0.4666666666666667
            ambientIntensity 0.8283
            transparency 0.0
            shininess 0.5
        }
    }
    geometry IndexedFaceSet {
        ccw TRUE
        solid FALSE
        coord DEF co Coordinate {
            point [
                -0.689 0.2952 1.6999, -0.8858 0.2952 1.6999, -0.689 0.1181 1.6999, -0.8858 0.1181 1.6999, -0.8858 0.2952 0.0, -0.8858 0.2952 -1.2008, -0.689 0.2952 0.0, -0.689 0.2952 -1.2008, -0.8858 -2.2224 1.6999, -0.689 -2.2224 1.6999, -0.8858 -0.8268 1.6999, -0.689 -0.8268 1.6999, -0.689 -2.2224 1.5031, -0.689 -0.8268 1.5031, -0.689 -2.2814 1.5621, -0.689 -2.2814 1.6409, -0.8858 -2.2814 1.6409, -0.8858 -2.2814 1.5621, -0.8858 -2.2224 1.5031, -0.8858 -0.8268 1.5031, -0.689 -2.2552 0.8535, -0.689 -2.1961 0.9125, -0.8858 -2.2552 0.8535, -0.8858 -2.1961 0.9125, -0.689 -2.2552 0.7747, -0.8858 -2.2552 0.7747, -0.689 -2.1961 0.7157, -0.8858 -2.1961 0.7157, -0.689 -0.8268 0.9125, -0.689 -0.8268 0.7157, -0.8858 -0.8268 0.7157, -0.8858 -0.8268 0.9125, -0.8858 -0.4922 0.0, -0.8858 -0.4922 -1.2008, -0.689 -0.4922 0.0, -0.689 -0.4922 -1.2008, -0.689 -0.2953 0.0, -0.689 -0.2953 -1.2008, -0.8858 -0.2953 0.0, -0.8858 -0.2953 -1.2008, -0.689 -0.3544 -1.2598, -0.689 -0.4331 -1.2598, -0.8858 -0.4331 -1.2598, -0.8858 -0.3544 -1.2598, -1.4764 0.3543 -1.2598, -1.4764 0.2952 -1.2008, -1.6732 0.3543 -1.2598, -1.6732 0.2952 -1.2008, -1.4764 0.433 -1.2598, -1.6732 0.433 -1.2598, -1.4764 0.4921 -1.2008, -1.6732 0.4921 -1.2008, -1.4764 0.4921 1.5031, -1.6732 0.4921 1.5031, -1.6732 0.4771 1.5784, -1.4764 0.4771 1.5784, -1.6732 0.4344 1.6423, -1.4764 0.4344 1.6423, -1.6732 0.3706 1.6849, -1.4764 0.3706 1.6849, -1.6732 0.2952 1.6999, -1.4764 0.2952 1.6999, -1.4764 0.2952 1.0859, -1.4764 0.2952 0.3637, -1.4764 0.3149 1.0859, -1.4764 0.3149 0.3637, -1.4764 0.2952 0.0, -1.4764 0.3149 0.0, -1.4764 0.1181 1.6999, -1.4764 0.1181 1.5021, -1.4764 0.2011 1.4741, -1.4764 0.2638 1.4129, -1.4764 0.3149 1.4129, -1.6732 0.3149 0.3637, -1.6732 0.2952 0.3637, -1.6732 0.2952 1.0859, -1.6732 0.1181 1.5021, -1.6732 0.1181 1.6999, -1.6732 0.3149 1.0859, -1.6732 0.3149 0.0, -1.6732 0.2952 0.0, -1.6732 0.2011 1.4741, -1.6732 0.2638 1.4129, -1.6732 0.3149 1.4129
            ]
        }
        coordIndex [
            0,1,2,-1,2,1,3,-1,4,5,6,-1,6,5,7,-1,8,9,10,-1,10,9,11,-1,12,13,14,-1,14,13,11,-1,14,11,15,-1,15,11,9,-1,16,8,17,-1,17,8,10,-1,17,10,18,-1,18,10,19,-1,15,9,16,-1,16,9,8,-1,14,15,17,-1,17,15,16,-1,12,14,18,-1,18,14,17,-1,12,18,13,-1,13,18,19,-1,20,21,22,-1,22,21,23,-1,24,20,25,-1,25,20,22,-1,26,24,27,-1,27,24,25,-1,20,24,21,-1,21,24,26,-1,21,26,28,-1,28,26,29,-1,25,22,27,-1,27,22,23,-1,27,23,30,-1,30,23,31,-1,23,21,31,-1,31,21,28,-1,26,27,29,-1,29,27,30,-1,32,33,34,-1,34,33,35,-1,36,37,38,-1,38,37,39,-1,40,37,41,-1,41,37,36,-1,41,36,35,-1,35,36,34,-1,42,33,43,-1,43,33,32,-1,43,32,39,-1,39,32,38,-1,41,35,42,-1,42,35,33,-1,40,41,43,-1,43,41,42,-1,37,40,39,-1,39,40,43,-1,44,45,46,-1,46,45,47,-1,48,44,49,-1,49,44,46,-1,50,48,51,-1,51,48,49,-1,52,50,53,-1,53,50,51,-1,52,53,54,-1,52,54,55,-1,55,54,56,-1,55,56,57,-1,57,56,58,-1,57,58,59,-1,59,58,60,-1,59,60,61,-1,62,63,64,-1,64,63,65,-1,44,48,45,-1,45,48,50,-1,45,50,66,-1,66,50,67,-1,68,69,61,-1,61,69,70,-1,61,70,59,-1,59,70,57,-1,57,70,71,-1,57,71,55,-1,55,71,72,-1,55,72,52,-1,52,72,64,-1,52,64,50,-1,50,64,65,-1,50,65,67,-1,73,74,75,-1,76,77,60,-1,49,46,51,-1,51,46,47,-1,75,78,73,-1,73,78,51,-1,73,51,79,-1,79,51,47,-1,79,47,80,-1,76,60,81,-1,81,60,58,-1,81,58,82,-1,82,58,56,-1,82,56,83,-1,83,56,54,-1,83,54,78,-1,78,54,53,-1,78,53,51,-1,
        ]
    }
}
Shape{
    appearance Appearance {
        material  Material 	{
            diffuseColor 0.7529411764705882 0.7529411764705882 0.7529411764705882
            specularColor 0.3764705882352941 0.3764705882352941 0.3764705882352941
            ambientIntensity 0.7529
            transparency 0.0
            shininess 0.5
        }
    }
    geometry IndexedFaceSet {
        ccw TRUE
        solid FALSE
        coord DEF co Coordinate {
            point [
                -1.4764 0.2952 0.3637, -1.4764 0.2952 1.0859, -1.6732 0.2952 0.3637, -1.6732 0.2952 1.0859, -1.4764 0.1181 1.5021, -1.6732 0.1181 1.5021, -1.4764 0.2011 1.4741, -1.6732 0.2011 1.4741, -1.4764 0.2638 1.4129, -1.6732 0.2638 1.4129
            ]
        }
        coordIndex [
            0,1,2,-1,2,1,3,-1,4,5,6,-1,6,5,7,-1,6,7,8,-1,8,7,9,-1,
        ]
    }
}
Shape{
    appearance Appearance {
        material  Material 	{
            diffuseColor 0.796078431372549 0.8235294117647058 0.9372549019607843
            specularColor 0.396078431372549 0.4117647058823529 0.4666666666666667
            ambientIntensity 0.8283
            transparency 0.0
            shininess 0.5
        }
    }
    geometry IndexedFaceSet {
        ccw TRUE
        solid FALSE
        coord DEF co Coordinate {
            point [
                -1.4764 0.2952 1.6999, -1.6732 0.2952 1.6999, -1.4764 0.1181 1.6999, -1.6732 0.1181 1.6999, -1.6732 0.2952 0.0, -1.6732 0.2952 -1.2008, -1.4764 0.2952 0.0, -1.4764 0.2952 -1.2008, -1.6732 -2.2224 1.6999, -1.4764 -2.2224 1.6999, -1.6732 -0.8268 1.6999, -1.4764 -0.8268 1.6999, -1.4764 -2.2224 1.5031, -1.4764 -0.8268 1.5031, -1.4764 -2.2814 1.5621, -1.4764 -2.2814 1.6409, -1.6732 -2.2814 1.6409, -1.6732 -2.2814 1.5621, -1.6732 -2.2224 1.5031, -1.6732 -0.8268 1.5031, -1.4764 -2.2552 0.8535, -1.4764 -2.1961 0.9125, -1.6732 -2.2552 0.8535, -1.6732 -2.1961 0.9125, -1.4764 -2.2552 0.7747, -1.6732 -2.2552 0.7747, -1.4764 -2.1961 0.7157, -1.6732 -2.1961 0.7157, -1.4764 -0.8268 0.9125, -1.4764 -0.8268 0.7157, -1.6732 -0.8268 0.7157, -1.6732 -0.8268 0.9125, -1.6732 -0.4922 0.0, -1.6732 -0.4922 -1.2008, -1.4764 -0.4922 0.0, -1.4764 -0.4922 -1.2008, -1.4764 -0.2953 0.0, -1.4764 -0.2953 -1.2008, -1.6732 -0.2953 0.0, -1.6732 -0.2953 -1.2008, -1.4764 -0.3544 -1.2598, -1.4764 -0.4331 -1.2598, -1.6732 -0.4331 -1.2598, -1.6732 -0.3544 -1.2598, -2.2638 0.3543 -1.2598, -2.2638 0.2952 -1.2008, -2.4606 0.3543 -1.2598, -2.4606 0.2952 -1.2008, -2.2638 0.433 -1.2598, -2.4606 0.433 -1.2598, -2.2638 0.4921 -1.2008, -2.4606 0.4921 -1.2008, -2.2638 0.4921 1.5031, -2.4606 0.4921 1.5031, -2.4606 0.4771 1.5784, -2.2638 0.4771 1.5784, -2.4606 0.4344 1.6423, -2.2638 0.4344 1.6423, -2.4606 0.3706 1.6849, -2.2638 0.3706 1.6849, -2.4606 0.2952 1.6999, -2.2638 0.2952 1.6999, -2.2638 0.2952 1.0859, -2.2638 0.2952 0.3637, -2.2638 0.3149 1.0859, -2.2638 0.3149 0.3637, -2.2638 0.2952 0.0, -2.2638 0.3149 0.0, -2.2638 0.1181 1.6999, -2.2638 0.1181 1.5021, -2.2638 0.2011 1.4741, -2.2638 0.2638 1.4129, -2.2638 0.3149 1.4129, -2.4606 0.3149 0.3637, -2.4606 0.2952 0.3637, -2.4606 0.2952 1.0859, -2.4606 0.1181 1.5021, -2.4606 0.1181 1.6999, -2.4606 0.3149 1.0859, -2.4606 0.3149 0.0, -2.4606 0.2952 0.0, -2.4606 0.2011 1.4741, -2.4606 0.2638 1.4129, -2.4606 0.3149 1.4129
            ]
        }
        coordIndex [
            0,1,2,-1,2,1,3,-1,4,5,6,-1,6,5,7,-1,8,9,10,-1,10,9,11,-1,12,13,14,-1,14,13,11,-1,14,11,15,-1,15,11,9,-1,16,8,17,-1,17,8,10,-1,17,10,18,-1,18,10,19,-1,15,9,16,-1,16,9,8,-1,14,15,17,-1,17,15,16,-1,12,14,18,-1,18,14,17,-1,12,18,13,-1,13,18,19,-1,20,21,22,-1,22,21,23,-1,24,20,25,-1,25,20,22,-1,26,24,27,-1,27,24,25,-1,20,24,21,-1,21,24,26,-1,21,26,28,-1,28,26,29,-1,25,22,27,-1,27,22,23,-1,27,23,30,-1,30,23,31,-1,23,21,31,-1,31,21,28,-1,26,27,29,-1,29,27,30,-1,32,33,34,-1,34,33,35,-1,36,37,38,-1,38,37,39,-1,40,37,41,-1,41,37,36,-1,41,36,35,-1,35,36,34,-1,42,33,43,-1,43,33,32,-1,43,32,39,-1,39,32,38,-1,41,35,42,-1,42,35,33,-1,40,41,43,-1,43,41,42,-1,37,40,39,-1,39,40,43,-1,44,45,46,-1,46,45,47,-1,48,44,49,-1,49,44,46,-1,50,48,51,-1,51,48,49,-1,52,50,53,-1,53,50,51,-1,52,53,54,-1,52,54,55,-1,55,54,56,-1,55,56,57,-1,57,56,58,-1,57,58,59,-1,59,58,60,-1,59,60,61,-1,62,63,64,-1,64,63,65,-1,44,48,45,-1,45,48,50,-1,45,50,66,-1,66,50,67,-1,68,69,61,-1,61,69,70,-1,61,70,59,-1,59,70,57,-1,57,70,71,-1,57,71,55,-1,55,71,72,-1,55,72,52,-1,52,72,64,-1,52,64,50,-1,50,64,65,-1,50,65,67,-1,73,74,75,-1,76,77,60,-1,49,46,51,-1,51,46,47,-1,75,78,73,-1,73,78,51,-1,73,51,79,-1,79,51,47,-1,79,47,80,-1,76,60,81,-1,81,60,58,-1,81,58,82,-1,82,58,56,-1,82,56,83,-1,83,56,54,-1,83,54,78,-1,78,54,53,-1,78,53,51,-1,
        ]
    }
}
Shape{
    appearance Appearance {
        material  Material 	{
            diffuseColor 0.7529411764705882 0.7529411764705882 0.7529411764705882
            specularColor 0.3764705882352941 0.3764705882352941 0.3764705882352941
            ambientIntensity 0.7529
            transparency 0.0
            shininess 0.5
        }
    }
    geometry IndexedFaceSet {
        ccw TRUE
        solid FALSE
        coord DEF co Coordinate {
            point [
                -2.2638 0.2952 0.3637, -2.2638 0.2952 1.0859, -2.4606 0.2952 0.3637, -2.4606 0.2952 1.0859, -2.2638 0.1181 1.5021, -2.4606 0.1181 1.5021, -2.2638 0.2011 1.4741, -2.4606 0.2011 1.4741, -2.2638 0.2638 1.4129, -2.4606 0.2638 1.4129
            ]
        }
        coordIndex [
            0,1,2,-1,2,1,3,-1,4,5,6,-1,6,5,7,-1,6,7,8,-1,8,7,9,-1,
        ]
    }
}
Shape{
    appearance Appearance {
        material  Material 	{
            diffuseColor 0.796078431372549 0.8235294117647058 0.9372549019607843
            specularColor 0.396078431372549 0.4117647058823529 0.4666666666666667
            ambientIntensity 0.8283
            transparency 0.0
            shininess 0.5
        }
    }
    geometry IndexedFaceSet {
        ccw TRUE
        solid FALSE
        coord DEF co Coordinate {
            point [
                -2.2638 0.2952 1.6999, -2.4606 0.2952 1.6999, -2.2638 0.1181 1.6999, -2.4606 0.1181 1.6999, -2.4606 0.2952 0.0, -2.4606 0.2952 -1.2008, -2.2638 0.2952 0.0, -2.2638 0.2952 -1.2008, -2.4606 -2.2224 1.6999, -2.2638 -2.2224 1.6999, -2.4606 -0.8268 1.6999, -2.2638 -0.8268 1.6999, -2.2638 -2.2224 1.5031, -2.2638 -0.8268 1.5031, -2.2638 -2.2814 1.5621, -2.2638 -2.2814 1.6409, -2.4606 -2.2814 1.6409, -2.4606 -2.2814 1.5621, -2.4606 -2.2224 1.5031, -2.4606 -0.8268 1.5031, -2.2638 -2.2552 0.8535, -2.2638 -2.1961 0.9125, -2.4606 -2.2552 0.8535, -2.4606 -2.1961 0.9125, -2.2638 -2.2552 0.7747, -2.4606 -2.2552 0.7747, -2.2638 -2.1961 0.7157, -2.4606 -2.1961 0.7157, -2.2638 -0.8268 0.7157, -2.2638 -0.8268 0.9125, -2.4606 -0.8268 0.9125, -2.4606 -0.8268 0.7157, -2.4606 -0.4922 0.0, -2.4606 -0.4922 -1.2008, -2.2638 -0.4922 0.0, -2.2638 -0.4922 -1.2008, -2.2638 -0.2953 0.0, -2.2638 -0.2953 -1.2008, -2.4606 -0.2953 0.0, -2.4606 -0.2953 -1.2008, -2.2638 -0.3544 -1.2598, -2.2638 -0.4331 -1.2598, -2.4606 -0.4331 -1.2598, -2.4606 -0.3544 -1.2598, -3.0512 0.3543 -1.2598, -3.0512 0.2952 -1.2008, -3.248 0.3543 -1.2598, -3.248 0.2952 -1.2008, -3.0512 0.433 -1.2598, -3.248 0.433 -1.2598, -3.0512 0.4921 -1.2008, -3.248 0.4921 -1.2008, -3.0512 0.4921 1.5031, -3.248 0.4921 1.5031, -3.248 0.4771 1.5784, -3.0512 0.4771 1.5784, -3.248 0.4344 1.6423, -3.0512 0.4344 1.6423, -3.248 0.3706 1.6849, -3.0512 0.3706 1.6849, -3.248 0.2952 1.6999, -3.0512 0.2952 1.6999, -3.0512 0.2952 1.0859, -3.0512 0.2952 0.3637, -3.0512 0.3149 1.0859, -3.0512 0.3149 0.3637, -3.0512 0.2952 0.0, -3.0512 0.3149 0.0, -3.0512 0.1181 1.6999, -3.0512 0.1181 1.5021, -3.0512 0.2011 1.4741, -3.0512 0.2638 1.4129, -3.0512 0.3149 1.4129, -3.248 0.3149 0.3637, -3.248 0.2952 0.3637, -3.248 0.2952 1.0859, -3.248 0.1181 1.5021, -3.248 0.1181 1.6999, -3.248 0.3149 1.0859, -3.248 0.3149 0.0, -3.248 0.2952 0.0, -3.248 0.2011 1.4741, -3.248 0.2638 1.4129, -3.248 0.3149 1.4129
            ]
        }
        coordIndex [
            0,1,2,-1,2,1,3,-1,4,5,6,-1,6,5,7,-1,8,9,10,-1,10,9,11,-1,12,13,14,-1,14,13,11,-1,14,11,15,-1,15,11,9,-1,16,8,17,-1,17,8,10,-1,17,10,18,-1,18,10,19,-1,15,9,16,-1,16,9,8,-1,14,15,17,-1,17,15,16,-1,12,14,18,-1,18,14,17,-1,12,18,13,-1,13,18,19,-1,20,21,22,-1,22,21,23,-1,24,20,25,-1,25,20,22,-1,26,24,27,-1,27,24,25,-1,24,26,20,-1,20,26,28,-1,20,28,21,-1,21,28,29,-1,22,23,25,-1,25,23,30,-1,25,30,27,-1,27,30,31,-1,23,21,30,-1,30,21,29,-1,26,27,28,-1,28,27,31,-1,32,33,34,-1,34,33,35,-1,36,37,38,-1,38,37,39,-1,40,37,41,-1,41,37,36,-1,41,36,35,-1,35,36,34,-1,42,33,43,-1,43,33,32,-1,43,32,39,-1,39,32,38,-1,41,35,42,-1,42,35,33,-1,40,41,43,-1,43,41,42,-1,37,40,39,-1,39,40,43,-1,44,45,46,-1,46,45,47,-1,48,44,49,-1,49,44,46,-1,50,48,51,-1,51,48,49,-1,52,50,53,-1,53,50,51,-1,52,53,54,-1,52,54,55,-1,55,54,56,-1,55,56,57,-1,57,56,58,-1,57,58,59,-1,59,58,60,-1,59,60,61,-1,62,63,64,-1,64,63,65,-1,44,48,45,-1,45,48,50,-1,45,50,66,-1,66,50,67,-1,68,69,61,-1,61,69,70,-1,61,70,59,-1,59,70,57,-1,57,70,71,-1,57,71,55,-1,55,71,72,-1,55,72,52,-1,52,72,64,-1,52,64,50,-1,50,64,65,-1,50,65,67,-1,73,74,75,-1,76,77,60,-1,49,46,51,-1,51,46,47,-1,75,78,73,-1,73,78,51,-1,73,51,79,-1,79,51,47,-1,79,47,80,-1,76,60,81,-1,81,60,58,-1,81,58,82,-1,82,58,56,-1,82,56,83,-1,83,56,54,-1,83,54,78,-1,78,54,53,-1,78,53,51,-1,
        ]
    }
}
Shape{
    appearance Appearance {
        material  Material 	{
            diffuseColor 0.7529411764705882 0.7529411764705882 0.7529411764705882
            specularColor 0.3764705882352941 0.3764705882352941 0.3764705882352941
            ambientIntensity 0.7529
            transparency 0.0
            shininess 0.5
        }
    }
    geometry IndexedFaceSet {
        ccw TRUE
        solid FALSE
        coord DEF co Coordinate {
            point [
                -3.0512 0.2952 0.3637, -3.0512 0.2952 1.0859, -3.248 0.2952 0.3637, -3.248 0.2952 1.0859, -3.0512 0.1181 1.5021, -3.248 0.1181 1.5021, -3.0512 0.2011 1.4741, -3.248 0.2011 1.4741, -3.0512 0.2638 1.4129, -3.248 0.2638 1.4129
            ]
        }
        coordIndex [
            0,1,2,-1,2,1,3,-1,4,5,6,-1,6,5,7,-1,6,7,8,-1,8,7,9,-1,
        ]
    }
}
Shape{
    appearance Appearance {
        material  Material 	{
            diffuseColor 0.796078431372549 0.8235294117647058 0.9372549019607843
            specularColor 0.396078431372549 0.4117647058823529 0.4666666666666667
            ambientIntensity 0.8283
            transparency 0.0
            shininess 0.5
        }
    }
    geometry IndexedFaceSet {
        ccw TRUE
        solid FALSE
        coord DEF co Coordinate {
            point [
                -3.0512 0.2952 1.6999, -3.248 0.2952 1.6999, -3.0512 0.1181 1.6999, -3.248 0.1181 1.6999, -3.248 0.2952 0.0, -3.248 0.2952 -1.2008, -3.0512 0.2952 0.0, -3.0512 0.2952 -1.2008, -3.248 -2.2224 1.6999, -3.0512 -2.2224 1.6999, -3.248 -0.8268 1.6999, -3.0512 -0.8268 1.6999, -3.0512 -2.2224 1.5031, -3.0512 -0.8268 1.5031, -3.0512 -2.2814 1.5621, -3.0512 -2.2814 1.6409, -3.248 -0.8268 1.5031, -3.248 -2.2224 1.5031, -3.248 -2.2814 1.6409, -3.248 -2.2814 1.5621, -3.0512 -2.2552 0.8535, -3.0512 -2.1961 0.9125, -3.248 -2.2552 0.8535, -3.248 -2.1961 0.9125, -3.0512 -2.2552 0.7747, -3.248 -2.2552 0.7747, -3.0512 -2.1961 0.7157, -3.248 -2.1961 0.7157, -3.0512 -0.8268 0.9125, -3.0512 -0.8268 0.7157, -3.248 -0.8268 0.7157, -3.248 -0.8268 0.9125, -3.248 -0.4922 0.0, -3.248 -0.4922 -1.2008, -3.0512 -0.4922 0.0, -3.0512 -0.4922 -1.2008, -3.0512 -0.2953 0.0, -3.0512 -0.2953 -1.2008, -3.248 -0.2953 0.0, -3.248 -0.2953 -1.2008, -3.0512 -0.3544 -1.2598, -3.0512 -0.4331 -1.2598, -3.248 -0.4331 -1.2598, -3.248 -0.3544 -1.2598
            ]
        }
        coordIndex [
            0,1,2,-1,2,1,3,-1,4,5,6,-1,6,5,7,-1,8,9,10,-1,10,9,11,-1,12,13,14,-1,14,13,11,-1,14,11,15,-1,15,11,9,-1,10,16,8,-1,8,16,17,-1,8,17,18,-1,18,17,19,-1,15,9,18,-1,18,9,8,-1,14,15,19,-1,19,15,18,-1,12,14,17,-1,17,14,19,-1,12,17,13,-1,13,17,16,-1,20,21,22,-1,22,21,23,-1,24,20,25,-1,25,20,22,-1,26,24,27,-1,27,24,25,-1,20,24,21,-1,21,24,26,-1,21,26,28,-1,28,26,29,-1,25,22,27,-1,27,22,23,-1,27,23,30,-1,30,23,31,-1,23,21,31,-1,31,21,28,-1,26,27,29,-1,29,27,30,-1,32,33,34,-1,34,33,35,-1,36,37,38,-1,38,37,39,-1,40,37,41,-1,41,37,36,-1,41,36,35,-1,35,36,34,-1,42,33,43,-1,43,33,32,-1,43,32,39,-1,39,32,38,-1,41,35,42,-1,42,35,33,-1,40,41,43,-1,43,41,42,-1,37,40,39,-1,39,40,43,-1,
        ]
    }
}
Shape{
    appearance Appearance {
        material  Material 	{
            diffuseColor 0.7529411764705882 0.7529411764705882 0.7529411764705882
            specularColor 0.3764705882352941 0.3764705882352941 0.3764705882352941
            ambientIntensity 0.7529
            transparency 0.0
            shininess 0.5
        }
    }
    geometry IndexedFaceSet {
        ccw TRUE
        solid FALSE
        coord DEF co Coordinate {
            point [
                -0.4748 -4.3069 2.6373, -0.4748 -4.3069 3.2677, 0.7675 -4.3069 2.6373, 0.7675 -4.3069 3.2677, -0.4748 -3.6738 2.6373, -0.4748 -3.6738 3.2677, 0.7675 -3.6738 2.6373, 0.7675 -3.6738 3.2677, -1.5748 -2.5694 2.4706, -1.5748 -3.0892 3.2677, 1.5748 -2.5694 2.4706, 1.5748 -3.0892 3.2677, -1.5748 -0.7516 3.2677, -1.5748 -0.1736 2.4706, 1.5748 -0.1736 2.4706, 1.5748 -0.7516 3.2677, -1.9685 -3.1496 3.2677, -1.9685 -0.7516 3.2677, -1.9685 -3.1496 2.7559, -1.9685 -0.3839 2.7607, -1.9685 -0.3839 2.7559, -3.5433 -3.0038 3.1496, -3.5433 -0.666 3.1496, -3.5433 -3.0038 3.2677, -3.5433 -0.7516 3.2677, 1.9685 -0.7516 3.2677, 1.9685 -3.1496 3.2677, 1.9685 -0.3839 2.7607, 1.9685 -3.1496 2.7559, 1.9685 -0.3839 2.7559, 3.5433 -3.0038 3.2677, 3.5433 -0.7516 3.2677, 3.5433 -3.0038 3.1496, 3.5433 -0.666 3.1496, -0.2303 -1.2377 0.0394, -0.2328 -1.2377 0.0394, -0.2303 -1.2377 0.0, -0.2328 -1.2377 0.0, -0.3237 -1.4345 0.0394, -0.3237 -1.4345 0.0, -0.3045 -1.4345 0.0394, -0.3045 -1.4345 0.0, -0.2754 -1.3714 0.0394, -0.2754 -1.3714 0.0, -0.1861 -1.3714 0.0394, -0.1861 -1.3714 0.0, -0.1562 -1.4345 0.0394, -0.1562 -1.4345 0.0, -0.1369 -1.4345 0.0394, -0.1369 -1.4345 0.0, -0.2661 -1.3512 0.0394, -0.1957 -1.3512 0.0394, -0.2314 -1.276 0.0394, -0.2661 -1.3512 0.0, -0.2314 -1.276 0.0, -0.1957 -1.3512 0.0, -0.0112 -1.4345 0.0394, 0.0498 -1.4345 0.0394, -0.0112 -1.4345 0.0, 0.0498 -1.4345 0.0, 0.0498 -1.2377 0.0394, 0.0498 -1.2377 0.0, 0.0101 -1.2377 0.0394, 0.0101 -1.2377 0.0, -0.0524 -1.2448 0.0394, -0.0524 -1.2448 0.0, -0.0215 -1.2389 0.0, -0.0215 -1.2389 0.0394, -0.1117 -1.3386 0.0394, -0.1117 -1.3386 0.0, -0.108 -1.3076 0.0, -0.108 -1.3076 0.0394, -0.0879 -1.2686 0.0, -0.0879 -1.2686 0.0394, -0.0324 -1.4334 0.0, -0.0324 -1.4334 0.0394, -0.0721 -1.4207 0.0, -0.0721 -1.4207 0.0394, -0.1006 -1.3881 0.0, -0.1006 -1.3881 0.0394, -0.0909 -1.363 0.0394, -0.0748 -1.3919 0.0394, -0.0467 -1.4093 0.0394, -0.0188 -1.4135 0.0394, 0.0096 -1.4143 0.0394, 0.0322 -1.4143 0.0394, 0.0322 -1.2579 0.0394, 0.0183 -1.2579 0.0394, -0.0121 -1.2588 0.0394, -0.0422 -1.2634 0.0394, -0.0639 -1.2739 0.0394, -0.0854 -1.2992 0.0394, -0.094 -1.3385 0.0394, 0.0322 -1.2579 0.0, 0.0322 -1.4143 0.0, 0.0183 -1.2579 0.0, -0.0121 -1.2588 0.0, -0.0422 -1.2634 0.0, -0.0639 -1.2739 0.0, -0.0854 -1.2992 0.0, -0.094 -1.3385 0.0, -0.0909 -1.363 0.0, -0.0748 -1.3919 0.0, -0.0467 -1.4093 0.0, -0.0188 -1.4135 0.0, 0.0096 -1.4143 0.0, 0.1962 -1.4345 0.0394, 0.1962 -1.2377 0.0394, 0.1962 -1.4345 0.0, 0.1962 -1.2377 0.0, 0.0852 -1.2377 0.0394, 0.0852 -1.2377 0.0, 0.1473 -1.2377 0.0, 0.0852 -1.2579 0.0394, 0.0852 -1.2579 0.0, 0.1473 -1.2579 0.0, 0.1785 -1.2579 0.0394, 0.1785 -1.2579 0.0, 0.1785 -1.3184 0.0394, 0.1785 -1.3184 0.0, 0.0852 -1.3184 0.0394, 0.0852 -1.3184 0.0, 0.1473 -1.3184 0.0, 0.0852 -1.3386 0.0394, 0.0852 -1.3386 0.0, 0.1473 -1.3386 0.0, 0.1785 -1.3386 0.0394, 0.1785 -1.3386 0.0, 0.1785 -1.4143 0.0394, 0.1785 -1.4143 0.0, 0.0852 -1.4143 0.0394, 0.0852 -1.4143 0.0, 0.1473 -1.4143 0.0, 0.0852 -1.4345 0.0394, 0.0852 -1.4345 0.0, 0.1473 -1.4345 0.0, 0.2366 -1.2738 0.0394, 0.2366 -1.2738 0.0, 0.2428 -1.2661 0.0, 0.2428 -1.2661 0.0394, 0.2543 -1.2552 0.0, 0.2543 -1.2552 0.0394, 0.2744 -1.2427 0.0, 0.2744 -1.2427 0.0394, 0.3225 -1.2326 0.0, 0.3225 -1.2326 0.0394, 0.252 -1.2856 0.0394, 0.252 -1.2856 0.0, 0.3236 -1.2528 0.0394, 0.3236 -1.2528 0.0, 0.3154 -1.2531 0.0, 0.3154 -1.2531 0.0394, 0.3025 -1.2549 0.0, 0.3025 -1.2549 0.0394, 0.2839 -1.2609 0.0, 0.2839 -1.2609 0.0394, 0.4107 -1.3363 0.0394, 0.4107 -1.3363 0.0, 0.4104 -1.3284 0.0, 0.4104 -1.3284 0.0394, 0.3977 -1.2911 0.0, 0.3977 -1.2911 0.0394, 0.3672 -1.2636 0.0, 0.3672 -1.2636 0.0394, 0.3223 -1.4194 0.0394, 0.3223 -1.4194 0.0, 0.3347 -1.4187 0.0, 0.3347 -1.4187 0.0394, 0.3734 -1.4053 0.0, 0.3734 -1.4053 0.0394, 0.4005 -1.3769 0.0, 0.4005 -1.3769 0.0394, 0.252 -1.3866 0.0394, 0.252 -1.3866 0.0, 0.2834 -1.411 0.0, 0.2834 -1.411 0.0394, 0.2366 -1.3983 0.0394, 0.2366 -1.3983 0.0, 0.3222 -1.4396 0.0394, 0.3222 -1.4396 0.0, 0.3124 -1.4392 0.0, 0.3124 -1.4392 0.0394, 0.2974 -1.437 0.0, 0.2967 -1.4369 0.0394, 0.2967 -1.4369 0.0, 0.2743 -1.4293 0.0, 0.2743 -1.4293 0.0394, 0.3363 -1.437 0.0, 0.3668 -1.4316 0.0394, 0.3668 -1.4316 0.0, 0.386 -1.4211 0.0394, 0.386 -1.4211 0.0, 0.3972 -1.4118 0.0394, 0.3972 -1.4118 0.0, 0.4034 -1.4051 0.0394, 0.4034 -1.4051 0.0, 0.4284 -1.3349 0.0394, 0.4284 -1.3349 0.0, 0.4224 -1.3724 0.0, 0.4224 -1.3724 0.0394, 0.3312 -1.2329 0.0, 0.3312 -1.2329 0.0394, 0.382 -1.2492 0.0, 0.382 -1.2492 0.0394, 0.4157 -1.2847 0.0, 0.4157 -1.2847 0.0394, 0.5445 -1.4345 0.0394, 0.5445 -1.2377 0.0394, 0.5445 -1.4345 0.0, 0.5445 -1.2377 0.0, 0.5268 -1.2377 0.0394, 0.5268 -1.2377 0.0, 0.5268 -1.4143 0.0394, 0.5268 -1.4143 0.0, 0.4511 -1.4143 0.0394, 0.4511 -1.4143 0.0, 0.4511 -1.4345 0.0394, 0.4511 -1.4345 0.0, -1.6631 -3.9764 2.1222, -1.6631 -3.9764 2.079, -1.6631 -0.8268 2.1222, -1.6631 -0.8268 2.079, 1.5853 -3.9764 2.079, 1.5853 -3.9764 2.1222, 1.5853 -0.8268 2.079, 1.5853 -0.8268 2.1222, -1.0731 -0.8268 0.1442, -1.0731 -0.8268 0.2362, -1.0731 -3.8977 0.1442, -1.0731 -3.8977 0.2362, -1.0731 -3.9764 0.0654, -1.0731 -3.9764 0.1575, 0.8974 -3.9764 0.0654, 0.8974 -3.9764 0.1575, 0.8974 -3.8977 0.1442, 0.8974 -3.8977 0.2362, 0.8974 -0.8268 0.1442, 0.8974 -0.8268 0.2362, -0.3937 -0.8268 0.1442, 0.3937 -0.8268 0.1442, 3.7598 -3.9764 0.1575, 3.6811 -3.8977 0.2362, 3.6811 -3.8977 0.7869, 3.7598 -3.9764 0.7869, 1.8701 -3.9764 2.5815, 1.9488 -3.8977 2.5028, 3.7598 -3.9764 2.5815, 3.6811 -3.8977 2.5028, 1.8701 -3.9764 2.079, 1.9488 -3.8977 2.079, -3.6811 -3.8977 0.2362, -3.7599 -3.9764 0.1575, -3.6811 -3.8977 2.394, -3.7599 -3.9764 2.4727, -3.6811 -3.8977 1.681, -3.7599 -3.9764 1.681, -1.9488 -3.8977 2.394, -1.8701 -3.9764 2.4727, -1.8701 -3.9764 2.079, -1.9488 -3.8977 2.079, 3.8583 -0.7516 3.2677, 3.8583 -3.9764 3.2677, 3.8884 -3.9764 3.2617, 3.8884 -0.7473 3.2617, 3.9139 -3.9764 3.2447, 3.9139 -0.7349 3.2447, 3.931 -3.9764 3.2191, 3.931 -0.7164 3.2191, 3.937 -3.9764 3.189, 3.937 -0.6945 3.189, 3.8583 -0.8624 0.0, 3.8583 0.9055 0.0, 3.8976 0.9055 0.0106, 3.8583 -1.437 0.0, 3.8976 -3.9764 0.0106, 3.8583 -3.9764 0.0, 3.9264 0.9055 0.0394, 3.9264 -3.9764 0.0394, 3.937 0.9055 0.0787, 3.937 -3.9764 0.0787, -3.8583 -1.437 0.0, -3.8583 -3.9764 0.0, -3.8976 -3.9764 0.0106, -3.8583 0.9055 0.0, -3.8583 -0.8624 0.0, -3.8976 0.9055 0.0106, -3.9265 -3.9764 0.0394, -3.9265 0.9055 0.0394, -3.937 -3.9764 0.0787, -3.937 0.9055 0.0787, -3.937 -0.6945 3.189, -3.937 -3.9764 3.189, -3.931 -3.9764 3.2191, -3.931 -0.7164 3.2191, -3.914 -3.9764 3.2447, -3.914 -0.7349 3.2447, -3.8884 -3.9764 3.2617, -3.8884 -0.7473 3.2617, -3.8583 -3.9764 3.2677, -3.8583 -0.7516 3.2677, 1.3779 -4.4438 2.6373, 1.3779 -4.4438 2.3964, -1.378 -4.4438 2.6373, -1.378 -4.4438 2.3964, -1.378 -2.9548 2.6373, 1.3779 -2.9548 2.6373, -1.378 -2.6009 2.1222, 1.3779 -2.6009 2.1222, -1.378 -3.9764 2.1222, -1.378 -3.9764 2.1484, 1.3779 -3.9764 2.1484, 1.3779 -3.9764 2.1222, -3.6811 -0.8268 0.7869, -3.8347 -0.8268 0.7869, -3.6811 -3.8977 0.7869, -3.8347 -3.9764 0.7869, -3.7599 -3.9764 0.7869, -3.8347 -0.8268 1.681, -3.8347 -3.9764 1.681, -3.8347 -0.8268 1.2078, -3.6811 -0.8268 1.681, 3.6811 -0.8268 1.681, 3.8346 -0.8268 1.681, 3.6811 -3.8977 1.681, 3.8346 -3.9764 1.681, 3.7598 -3.9764 1.681, 3.8346 -0.8268 0.7869, 3.8346 -3.9764 0.7869, 3.8346 -0.8268 1.2078, 3.6811 -0.8268 0.7869, 3.0709 -0.3839 2.7559, 3.0709 -0.3839 2.7607, 3.0709 -3.1496 3.2677, 3.0709 -3.0038 3.2677, 3.0709 -3.1496 2.7559, 3.0709 -3.0038 3.1496, 3.0709 -0.666 3.1496, -3.0709 -0.3839 2.7559, -3.0709 -0.3839 2.7607, -3.0709 -0.666 3.1496, -3.0709 -3.0038 3.1496, -3.0709 -3.1496 2.7559, -3.0709 -3.1496 3.2677, -3.0709 -3.0038 3.2677
            ]
        }
        coordIndex [
            0,1,2,-1,2,1,3,-1,4,5,0,-1,0,5,1,-1,2,3,6,-1,6,3,7,-1,6,7,4,-1,4,7,5,-1,8,9,10,-1,10,9,11,-1,9,8,12,-1,12,8,13,-1,10,11,14,-1,14,11,15,-1,16,17,18,-1,18,17,19,-1,18,19,20,-1,21,22,23,-1,23,22,24,-1,25,26,27,-1,27,26,28,-1,27,28,29,-1,30,31,32,-1,32,31,33,-1,34,35,36,-1,36,35,37,-1,35,38,37,-1,37,38,39,-1,38,40,39,-1,39,40,41,-1,40,42,41,-1,41,42,43,-1,42,44,43,-1,43,44,45,-1,44,46,45,-1,45,46,47,-1,46,48,47,-1,47,48,49,-1,48,34,49,-1,49,34,36,-1,50,38,35,-1,34,51,35,-1,35,51,52,-1,35,52,50,-1,48,46,44,-1,40,38,42,-1,42,38,50,-1,42,50,44,-1,44,50,51,-1,44,51,48,-1,48,51,34,-1,50,52,53,-1,53,52,54,-1,51,50,55,-1,55,50,53,-1,52,51,54,-1,54,51,55,-1,56,57,58,-1,58,57,59,-1,57,60,59,-1,59,60,61,-1,60,62,61,-1,61,62,63,-1,64,65,66,-1,64,66,67,-1,67,66,63,-1,67,63,62,-1,68,69,70,-1,68,70,71,-1,71,70,72,-1,71,72,73,-1,73,72,65,-1,73,65,64,-1,56,58,74,-1,56,74,75,-1,75,74,76,-1,75,76,77,-1,77,76,78,-1,77,78,79,-1,79,78,69,-1,79,69,68,-1,80,81,77,-1,77,81,82,-1,77,82,75,-1,75,82,83,-1,75,83,56,-1,56,83,84,-1,56,84,57,-1,57,84,85,-1,57,85,60,-1,60,85,86,-1,60,86,62,-1,62,86,87,-1,62,87,67,-1,67,87,88,-1,67,88,64,-1,64,88,89,-1,64,89,73,-1,73,89,90,-1,73,90,71,-1,71,90,91,-1,71,91,68,-1,68,91,92,-1,68,92,79,-1,79,92,80,-1,79,80,77,-1,86,85,93,-1,93,85,94,-1,87,86,95,-1,95,86,93,-1,87,95,96,-1,87,96,88,-1,88,96,97,-1,88,97,89,-1,89,97,98,-1,89,98,90,-1,90,98,99,-1,90,99,91,-1,91,99,100,-1,91,100,92,-1,92,100,101,-1,92,101,80,-1,80,101,102,-1,80,102,81,-1,81,102,103,-1,81,103,82,-1,82,103,104,-1,82,104,83,-1,83,104,105,-1,83,105,84,-1,85,84,94,-1,94,84,105,-1,106,107,108,-1,108,107,109,-1,110,111,107,-1,107,111,112,-1,107,112,109,-1,110,113,111,-1,111,113,114,-1,114,113,115,-1,115,113,116,-1,115,116,117,-1,116,118,117,-1,117,118,119,-1,120,121,118,-1,118,121,122,-1,118,122,119,-1,120,123,121,-1,121,123,124,-1,124,123,125,-1,125,123,126,-1,125,126,127,-1,126,128,127,-1,127,128,129,-1,130,131,128,-1,128,131,132,-1,128,132,129,-1,130,133,131,-1,131,133,134,-1,134,133,135,-1,135,133,106,-1,135,106,108,-1,106,133,130,-1,130,128,106,-1,106,128,126,-1,106,126,107,-1,113,110,116,-1,116,110,107,-1,116,107,118,-1,118,107,126,-1,118,126,120,-1,120,126,123,-1,136,137,138,-1,136,138,139,-1,139,138,140,-1,139,140,141,-1,141,140,142,-1,141,142,143,-1,143,142,144,-1,143,144,145,-1,136,146,137,-1,137,146,147,-1,148,149,150,-1,148,150,151,-1,151,150,152,-1,151,152,153,-1,153,152,154,-1,153,154,155,-1,155,154,147,-1,155,147,146,-1,156,157,158,-1,156,158,159,-1,159,158,160,-1,159,160,161,-1,161,160,162,-1,161,162,163,-1,163,162,149,-1,163,149,148,-1,164,165,166,-1,164,166,167,-1,167,166,168,-1,167,168,169,-1,169,168,170,-1,169,170,171,-1,171,170,157,-1,171,157,156,-1,172,173,174,-1,172,174,175,-1,175,174,165,-1,175,165,164,-1,172,176,173,-1,173,176,177,-1,178,179,180,-1,178,180,181,-1,181,180,182,-1,181,182,183,-1,182,184,183,-1,183,184,185,-1,183,185,186,-1,186,185,177,-1,186,177,176,-1,179,178,187,-1,187,178,188,-1,187,188,189,-1,189,188,190,-1,189,190,191,-1,191,190,192,-1,191,192,193,-1,193,192,194,-1,193,194,195,-1,196,197,198,-1,196,198,199,-1,199,198,195,-1,199,195,194,-1,145,144,200,-1,145,200,201,-1,201,200,202,-1,201,202,203,-1,203,202,204,-1,203,204,205,-1,205,204,197,-1,205,197,196,-1,176,172,186,-1,186,172,175,-1,196,199,171,-1,171,199,169,-1,169,199,194,-1,169,194,192,-1,146,136,139,-1,146,139,155,-1,155,139,141,-1,155,141,143,-1,192,190,169,-1,169,190,188,-1,169,188,167,-1,167,188,178,-1,167,178,164,-1,164,178,181,-1,164,181,175,-1,175,181,183,-1,175,183,186,-1,171,156,196,-1,196,156,159,-1,196,159,205,-1,205,159,161,-1,205,161,203,-1,203,161,163,-1,203,163,201,-1,201,163,148,-1,201,148,145,-1,145,148,151,-1,145,151,143,-1,143,151,153,-1,143,153,155,-1,206,207,208,-1,208,207,209,-1,207,210,209,-1,209,210,211,-1,210,212,211,-1,211,212,213,-1,212,214,213,-1,213,214,215,-1,214,216,215,-1,215,216,217,-1,216,206,217,-1,217,206,208,-1,210,207,212,-1,212,207,206,-1,212,206,214,-1,214,206,216,-1,54,55,53,-1,93,94,95,-1,95,94,105,-1,95,105,96,-1,96,105,104,-1,96,104,97,-1,103,102,104,-1,104,102,101,-1,104,101,100,-1,100,99,104,-1,104,99,98,-1,104,98,97,-1,218,219,220,-1,220,219,221,-1,222,223,224,-1,224,223,225,-1,226,227,228,-1,228,227,229,-1,228,229,230,-1,230,229,231,-1,232,233,234,-1,234,233,235,-1,234,235,236,-1,236,235,237,-1,226,228,238,-1,238,228,234,-1,238,234,239,-1,239,234,236,-1,240,241,233,-1,233,241,235,-1,241,240,242,-1,242,240,243,-1,244,245,246,-1,246,245,247,-1,248,249,244,-1,244,249,245,-1,232,234,230,-1,230,234,228,-1,250,251,229,-1,229,251,231,-1,252,253,254,-1,254,253,255,-1,256,257,252,-1,252,257,253,-1,257,256,258,-1,258,256,259,-1,260,261,262,-1,260,262,263,-1,263,262,264,-1,263,264,265,-1,265,264,266,-1,265,266,267,-1,267,266,268,-1,267,268,269,-1,270,271,272,-1,270,272,273,-1,274,275,273,-1,273,272,274,-1,274,272,276,-1,274,276,277,-1,277,276,278,-1,277,278,279,-1,280,281,282,-1,283,284,285,-1,285,284,280,-1,280,282,285,-1,285,282,286,-1,285,286,287,-1,287,286,288,-1,287,288,289,-1,290,291,292,-1,290,292,293,-1,293,292,294,-1,293,294,295,-1,295,294,296,-1,295,296,297,-1,297,296,298,-1,297,298,299,-1,300,301,302,-1,302,301,303,-1,2,300,0,-1,0,300,302,-1,0,302,4,-1,4,302,304,-1,4,304,6,-1,6,304,305,-1,6,305,2,-1,2,305,300,-1,304,306,305,-1,305,306,307,-1,308,306,309,-1,309,306,304,-1,309,304,303,-1,303,304,302,-1,301,300,310,-1,310,300,305,-1,310,305,311,-1,311,305,307,-1,312,313,314,-1,314,313,315,-1,314,315,316,-1,317,318,319,-1,319,318,315,-1,319,315,313,-1,320,254,317,-1,317,254,255,-1,317,255,318,-1,321,322,323,-1,323,322,324,-1,323,324,325,-1,326,327,328,-1,328,327,324,-1,328,324,322,-1,243,327,242,-1,242,327,326,-1,242,326,329,-1,29,330,27,-1,27,330,331,-1,332,333,334,-1,334,333,335,-1,335,336,334,-1,334,336,331,-1,334,331,330,-1,28,26,334,-1,334,26,332,-1,334,330,28,-1,28,330,29,-1,337,20,338,-1,338,20,19,-1,338,339,340,-1,337,338,341,-1,341,338,340,-1,341,340,342,-1,342,340,343,-1,341,342,18,-1,18,342,16,-1,337,341,20,-1,20,341,18,-1,
        ]
    }
}